<svg version="1.1" id="Layer_1" xmlns="http://www.w3.org/2000/svg" xmlns:xlink="http://www.w3.org/1999/xlink" x="0px" y="0px"
	 width="100%" viewBox="0 0 1080 1080" enable-background="new 0 0 1080 1080" xml:space="preserve">
<path fill="#000000" opacity="1.000000" stroke="none" 
	d="
M1081.000000,383.000000 
	C1081.000000,615.973083 1081.000000,848.446228 1081.000000,1080.959717 
	C721.068542,1080.959717 361.137024,1080.959717 1.102769,1080.959717 
	C1.102769,721.110168 1.102769,361.220306 1.102769,1.165211 
	C360.999939,1.165211 720.999939,1.165211 1081.000000,1.165211 
	C1081.000000,128.196426 1081.000000,255.348206 1081.000000,383.000000 
M8.176076,394.043518 
	C11.508533,399.944946 14.195912,406.354736 18.341520,411.615356 
	C23.202065,417.783234 29.243523,423.043030 34.953518,428.507843 
	C37.195858,430.653839 38.430164,432.475006 37.311825,435.845947 
	C35.593853,441.024445 34.558353,446.429169 33.230373,451.737183 
	C25.551390,482.430481 22.253042,513.743896 21.209936,545.237549 
	C20.689388,560.954041 21.781582,576.787231 23.118547,592.484619 
	C24.521955,608.962036 26.161642,625.521790 29.329391,641.726685 
	C37.891899,685.528870 52.407112,727.245667 74.929863,766.039978 
	C94.358894,799.505554 117.914200,829.391235 147.694748,854.335144 
	C168.765015,871.983459 191.715103,886.467651 217.114548,896.814270 
	C223.715454,899.503235 227.611145,902.310669 226.069977,909.857483 
	C225.854553,910.912476 226.360382,912.137207 226.619110,913.263367 
	C230.492065,930.121216 240.410889,942.809448 253.987274,952.996643 
	C274.712830,968.548279 298.495239,977.285950 323.164978,984.006348 
	C357.998352,993.495422 393.670166,997.979614 429.525879,1000.824341 
	C451.848541,1002.595398 474.272491,1003.487549 496.665985,1003.852112 
	C517.781860,1004.195862 538.921631,1003.491455 560.042908,1002.943604 
	C574.305908,1002.573792 588.580200,1002.005920 602.804321,1000.930359 
	C620.633179,999.582214 638.518372,998.329956 656.194519,995.763672 
	C682.963989,991.877197 709.544495,986.691772 734.983765,977.085327 
	C755.158569,969.466980 774.462402,960.372498 789.500610,944.086975 
	C799.699036,933.042725 806.266418,920.651855 805.957397,905.286011 
	C805.895874,902.225281 806.917847,900.768860 809.874573,899.372864 
	C822.631531,893.349548 835.688232,887.707886 847.677124,880.362427 
	C874.885925,863.691528 898.790649,843.051086 919.299133,818.398987 
	C936.921875,797.215454 951.950073,774.408203 964.425293,749.941772 
	C975.236389,728.739014 983.872009,706.621765 990.657043,683.759644 
	C1002.679565,643.250000 1008.750549,601.876404 1008.885315,559.677734 
	C1008.931335,545.257996 1007.794495,530.827637 1006.975403,516.414734 
	C1006.543335,508.812958 1005.483337,501.246613 1005.060791,493.644653 
	C1004.975342,492.107910 1006.062256,489.685974 1007.320679,489.022400 
	C1018.965942,482.881561 1029.166016,474.822327 1037.442383,464.755188 
	C1042.309937,458.834381 1046.742554,451.998138 1049.279175,444.833099 
	C1054.843018,429.117035 1050.869019,417.504486 1038.452026,407.916321 
	C1025.062988,397.577515 1009.997681,396.055847 994.030457,399.528595 
	C990.200623,400.361572 986.462341,401.615479 982.385925,402.758789 
	C970.508484,370.423676 955.252869,340.106812 936.486816,311.149963 
	C938.333740,310.300140 939.453796,309.639984 940.661072,309.250641 
	C965.887634,301.115692 989.204041,289.289917 1010.086182,272.911713 
	C1026.571289,259.982178 1040.839478,245.122360 1049.664673,225.708313 
	C1059.020142,205.128082 1057.375610,179.678757 1036.724976,164.218201 
	C1016.391602,148.995193 993.704712,144.353287 968.929626,148.526840 
	C954.049377,151.033539 940.094727,156.208954 926.725342,163.099976 
	C925.193359,163.889648 923.529053,164.422684 921.646301,165.188492 
	C917.404297,148.678360 912.000488,133.346237 903.174622,119.464073 
	C887.348450,94.571289 866.289001,79.359459 835.110229,82.990440 
	C822.740295,84.431000 811.827454,89.379585 803.456238,98.318520 
	C790.494751,112.159019 784.609070,129.325027 783.002625,148.047455 
	C782.473267,154.217392 781.966919,160.389297 781.439209,166.689789 
	C780.479431,166.443329 779.970154,166.401611 779.545105,166.190491 
	C765.266296,159.097229 751.104858,151.756821 736.698975,144.932419 
	C712.294434,133.371399 686.688721,125.041397 660.677307,118.021774 
	C633.761169,110.758018 606.451050,105.350304 578.634460,102.954819 
	C560.809326,101.419777 542.964661,99.916519 525.096558,99.148888 
	C514.336426,98.686615 503.515289,99.904999 492.720032,99.942596 
	C470.602417,100.019615 448.750214,102.681007 426.926544,105.927010 
	C398.306183,110.183929 370.221405,116.760895 342.728851,125.686584 
	C309.922729,136.337402 278.477295,150.091110 248.412415,167.151260 
	C212.648499,187.445282 180.255081,212.122406 150.956711,240.800812 
	C139.838898,251.683380 129.943359,263.847717 119.833870,275.720001 
	C102.547630,296.020477 88.166466,318.346863 75.303238,341.641785 
	C73.375771,345.132385 71.817162,345.951019 68.060699,344.634735 
	C58.379013,341.242218 48.404877,339.950348 38.248135,342.425781 
	C17.961218,347.370056 -0.132850,366.970490 8.176076,394.043518 
z"/>
<path fill="#190548" opacity="1.000000" stroke="none" 
	d="
M8.104624,393.645691 
	C-0.132850,366.970490 17.961218,347.370056 38.248135,342.425781 
	C48.404877,339.950348 58.379013,341.242218 68.060699,344.634735 
	C71.817162,345.951019 73.375771,345.132385 75.303238,341.641785 
	C88.166466,318.346863 102.547630,296.020477 119.833870,275.720001 
	C129.943359,263.847717 139.838898,251.683380 150.956711,240.800812 
	C180.255081,212.122406 212.648499,187.445282 248.412415,167.151260 
	C278.477295,150.091110 309.922729,136.337402 342.728851,125.686584 
	C370.221405,116.760895 398.306183,110.183929 426.926544,105.927010 
	C448.750214,102.681007 470.602417,100.019615 492.720032,99.942596 
	C503.515289,99.904999 514.336426,98.686615 525.096558,99.148888 
	C542.964661,99.916519 560.809326,101.419777 578.634460,102.954819 
	C606.451050,105.350304 633.761169,110.758018 660.677307,118.021774 
	C686.688721,125.041397 712.294434,133.371399 736.698975,144.932419 
	C751.104858,151.756821 765.266296,159.097229 779.545105,166.190491 
	C779.970154,166.401611 780.479431,166.443329 781.439209,166.689789 
	C781.966919,160.389297 782.473267,154.217392 783.002625,148.047455 
	C784.609070,129.325027 790.494751,112.159019 803.456238,98.318520 
	C811.827454,89.379585 822.740295,84.431000 835.110229,82.990440 
	C866.289001,79.359459 887.348450,94.571289 903.174622,119.464073 
	C912.000488,133.346237 917.404297,148.678360 921.646301,165.188492 
	C923.529053,164.422684 925.193359,163.889648 926.725342,163.099976 
	C940.094727,156.208954 954.049377,151.033539 968.929626,148.526840 
	C993.704712,144.353287 1016.391602,148.995193 1036.724976,164.218201 
	C1057.375610,179.678757 1059.020142,205.128082 1049.664673,225.708313 
	C1040.839478,245.122360 1026.571289,259.982178 1010.086182,272.911713 
	C989.204041,289.289917 965.887634,301.115692 940.661072,309.250641 
	C939.453796,309.639984 938.333740,310.300140 936.486816,311.149963 
	C955.252869,340.106812 970.508484,370.423676 982.385925,402.758789 
	C986.462341,401.615479 990.200623,400.361572 994.030457,399.528595 
	C1009.997681,396.055847 1025.062988,397.577515 1038.452026,407.916321 
	C1050.869019,417.504486 1054.843018,429.117035 1049.279175,444.833099 
	C1046.742554,451.998138 1042.309937,458.834381 1037.442383,464.755188 
	C1029.166016,474.822327 1018.965942,482.881561 1007.320679,489.022400 
	C1006.062256,489.685974 1004.975342,492.107910 1005.060791,493.644653 
	C1005.483337,501.246613 1006.543335,508.812958 1006.975403,516.414734 
	C1007.794495,530.827637 1008.931335,545.257996 1008.885315,559.677734 
	C1008.750549,601.876404 1002.679565,643.250000 990.657043,683.759644 
	C983.872009,706.621765 975.236389,728.739014 964.425293,749.941772 
	C951.950073,774.408203 936.921875,797.215454 919.299133,818.398987 
	C898.790649,843.051086 874.885925,863.691528 847.677124,880.362427 
	C835.688232,887.707886 822.631531,893.349548 809.874573,899.372864 
	C806.917847,900.768860 805.895874,902.225281 805.957397,905.286011 
	C806.266418,920.651855 799.699036,933.042725 789.500610,944.086975 
	C774.462402,960.372498 755.158569,969.466980 734.983765,977.085327 
	C709.544495,986.691772 682.963989,991.877197 656.194519,995.763672 
	C638.518372,998.329956 620.633179,999.582214 602.804321,1000.930359 
	C588.580200,1002.005920 574.305908,1002.573792 560.042908,1002.943604 
	C538.921631,1003.491455 517.781860,1004.195862 496.665985,1003.852112 
	C474.272491,1003.487549 451.848541,1002.595398 429.525879,1000.824341 
	C393.670166,997.979614 357.998352,993.495422 323.164978,984.006348 
	C298.495239,977.285950 274.712830,968.548279 253.987274,952.996643 
	C240.410889,942.809448 230.492065,930.121216 226.619110,913.263367 
	C226.360382,912.137207 225.854553,910.912476 226.069977,909.857483 
	C227.611145,902.310669 223.715454,899.503235 217.114548,896.814270 
	C191.715103,886.467651 168.765015,871.983459 147.694748,854.335144 
	C117.914200,829.391235 94.358894,799.505554 74.929863,766.039978 
	C52.407112,727.245667 37.891899,685.528870 29.329391,641.726685 
	C26.161642,625.521790 24.521955,608.962036 23.118547,592.484619 
	C21.781582,576.787231 20.689388,560.954041 21.209936,545.237549 
	C22.253042,513.743896 25.551390,482.430481 33.230373,451.737183 
	C34.558353,446.429169 35.593853,441.024445 37.311825,435.845947 
	C38.430164,432.475006 37.195858,430.653839 34.953518,428.507843 
	C29.243523,423.043030 23.202065,417.783234 18.341520,411.615356 
	C14.195912,406.354736 11.508533,399.944946 8.104624,393.645691 
M242.060486,342.031097 
	C242.060486,342.031097 242.048050,341.962280 241.771790,342.205444 
	C241.585175,342.383453 241.478271,342.600677 240.958450,343.407471 
	C219.681335,379.250854 203.586609,417.265839 193.538681,457.743896 
	C179.337036,514.955200 178.261520,571.984802 196.729477,628.599365 
	C198.252106,633.267151 197.222595,637.107605 195.138626,641.406372 
	C188.043701,656.041504 180.691620,670.620178 174.793915,685.749084 
	C168.387344,702.183350 164.552826,719.444641 162.885269,737.935425 
	C161.301819,751.551331 160.530640,765.172058 162.288254,779.568726 
	C162.844162,783.523560 163.263489,787.503235 163.977249,791.429382 
	C170.607071,827.896912 188.951294,856.074463 222.863968,872.551514 
	C238.244949,880.024597 254.015213,886.826111 270.000580,892.901611 
	C321.469269,912.463257 375.288879,921.137085 429.826691,925.932251 
	C470.833984,929.537781 511.924438,930.472107 553.098694,929.254883 
	C601.453125,927.825378 649.484558,923.732605 696.914856,913.950378 
	C726.144104,907.922058 754.831421,900.081604 781.794678,886.878479 
	C786.110535,884.765076 790.403625,882.508301 794.917236,880.911255 
	C826.987915,869.564026 850.448120,849.065918 862.498901,816.814148 
	C872.027527,791.312073 873.373169,764.876587 869.995728,737.222717 
	C869.515503,733.765930 869.128784,730.293091 868.540405,726.854797 
	C863.499939,697.397949 854.040222,669.504333 838.772522,643.720886 
	C836.192139,639.363281 835.714172,635.217957 837.512329,630.446472 
	C839.324707,625.637329 840.614136,620.623657 841.999329,615.662292 
	C848.159302,593.598999 851.132385,571.022339 851.698853,548.199829 
	C851.981506,536.810974 850.712341,525.383606 850.157776,513.086548 
	C849.708313,507.659302 849.559998,502.187469 848.763672,496.811615 
	C838.830566,429.756744 813.790161,368.791077 774.350891,313.751099 
	C768.296265,305.301544 761.194092,297.602631 754.530579,289.500854 
	C727.369995,306.411987 703.829163,325.775299 682.437439,348.804230 
	C682.263855,349.203430 682.090271,349.602631 681.984680,349.988312 
	C681.984680,349.988312 681.959595,349.923676 681.246887,350.177490 
	C681.081421,350.764252 680.915955,351.350983 680.901611,351.912048 
	C680.901611,351.912048 680.860352,351.764404 680.200134,351.385406 
	C670.141052,363.766083 659.526062,375.742188 650.151855,388.621368 
	C635.723938,408.443726 623.665710,429.668182 617.094849,453.561523 
	C614.449097,463.182373 610.234253,466.005249 600.675476,463.262024 
	C562.129150,452.199738 522.919189,449.259918 482.267273,453.138855 
	C466.296600,456.376099 450.299683,459.490662 434.365448,462.898346 
	C425.362885,464.823608 421.056824,462.258667 418.337372,453.521332 
	C415.724030,445.125000 413.099182,436.645447 409.450562,428.673279 
	C394.238037,395.434326 372.398499,366.767761 347.141571,340.618103 
	C331.847382,324.783386 315.475830,310.139069 296.734924,297.342194 
	C292.108795,294.421295 287.079681,288.730408 282.965546,289.328949 
	C278.512177,289.976807 274.311096,296.054504 271.053375,300.530670 
	C261.396790,313.799042 252.258987,327.444977 242.978256,340.983124 
	C242.978256,340.983124 242.973862,340.911316 242.416840,341.026703 
	C242.275772,341.368317 242.134689,341.709961 242.060486,342.031097 
M274.251617,940.635315 
	C277.378937,942.525330 280.423584,944.571411 283.647369,946.279297 
	C301.292511,955.626709 320.229187,961.402527 339.548462,965.956787 
	C383.636444,976.350098 428.564117,979.918457 473.658081,981.640747 
	C492.767090,982.370483 511.918365,982.024475 531.050720,982.105347 
	C570.541504,982.272339 609.906006,980.277222 649.067627,974.990234 
	C676.166443,971.331726 702.928955,966.153992 728.664795,956.620667 
	C742.944519,951.330933 756.570984,944.750427 768.272705,934.780151 
	C775.848022,928.325867 781.576660,920.631653 784.362488,909.644043 
	C778.288086,912.072510 773.386963,914.457092 768.235962,916.015808 
	C748.212891,922.075256 728.110535,927.872498 707.207458,933.859436 
	C706.547424,933.949890 705.878174,933.997314 705.228699,934.136841 
	C652.780579,945.405823 599.566833,949.600403 546.088257,950.762451 
	C490.760590,951.964661 435.564789,949.685242 380.704407,941.911377 
	C343.255310,936.604797 306.322693,928.961548 270.636292,916.100647 
	C263.187500,913.416260 255.840668,910.448853 248.340424,907.570984 
	C248.429886,918.203613 260.962646,933.894165 274.251617,940.635315 
M58.806938,671.677246 
	C59.553822,674.050049 60.309570,676.420105 61.046303,678.796082 
	C78.156990,733.978821 105.294212,783.247009 146.758835,824.056641 
	C148.205902,825.480835 149.803055,826.752563 151.627518,828.356689 
	C151.794373,827.303772 151.979797,826.930725 151.876129,826.674622 
	C137.970444,792.322266 137.273346,756.775574 143.297272,720.928345 
	C148.300232,691.156677 158.168060,662.895996 172.924942,636.417603 
	C174.122849,634.268127 174.481964,631.115234 174.015396,628.659485 
	C170.558258,610.463013 165.846100,592.452637 163.377533,574.134583 
	C160.629150,553.740173 161.206924,533.112183 162.890488,512.520630 
	C164.841644,488.656433 169.362747,465.326721 175.629929,442.285522 
	C183.092361,414.849976 193.693878,388.600311 206.184494,362.330780 
	C207.157120,360.606323 208.188751,358.912170 209.093491,357.152802 
	C222.502686,331.077148 237.643539,306.104065 257.073669,284.020691 
	C262.075989,278.335266 268.011292,273.366547 273.998352,268.682617 
	C279.459991,264.409790 285.388885,264.239838 291.462006,268.491516 
	C298.234161,273.232544 305.392273,277.422302 312.781433,282.357910 
	C321.969269,289.774536 331.417877,296.893036 340.298431,304.661011 
	C373.256256,333.489594 401.323517,366.402618 421.993317,405.188507 
	C427.893555,416.260132 432.553406,427.992798 437.962158,439.816071 
	C491.128998,426.146942 544.870239,426.597443 597.755859,440.391724 
	C602.476501,429.839905 606.203064,419.839111 611.231506,410.542542 
	C642.997192,351.814331 688.236877,305.851685 744.567749,270.392395 
	C751.591370,265.971130 757.951538,265.914246 763.717529,271.049164 
	C771.505066,277.984436 779.337646,285.126587 785.788086,293.260620 
	C812.240173,326.616974 831.537048,364.060822 846.464294,403.762360 
	C866.057556,455.873932 876.384583,509.492615 872.103455,565.483337 
	C870.657349,584.396423 868.096802,603.138367 862.531738,621.157837 
	C859.498352,630.979980 860.352295,638.609619 865.047791,647.632385 
	C880.424438,677.179749 889.199158,708.789246 892.099731,742.064636 
	C893.887390,762.572815 893.346924,782.880554 888.892944,802.989868 
	C887.307922,810.146118 885.062988,817.156311 882.861450,825.172180 
	C885.070312,823.160217 886.666321,821.951294 887.967285,820.481262 
	C895.575745,811.884094 903.607605,803.605042 910.598999,794.527344 
	C960.779358,729.372437 983.140564,654.486633 986.907532,573.329163 
	C987.987366,550.065308 986.706909,526.809692 984.103821,503.639526 
	C983.695801,500.007935 982.639465,500.056763 979.358398,500.637573 
	C966.160645,502.973633 952.887695,504.954926 939.578979,506.531006 
	C937.077209,506.827301 933.610840,505.353607 931.750000,503.519379 
	C925.598877,497.456390 919.375427,491.300171 914.263611,484.379211 
	C895.946228,459.579224 884.706909,432.335571 889.176941,400.761200 
	C891.499817,384.353241 899.319580,371.265167 915.843506,365.251312 
	C924.336487,362.160278 933.061646,362.650696 941.762451,365.085236 
	C942.131897,364.709839 942.501343,364.334442 942.870789,363.959045 
	C933.295471,347.813293 923.720093,331.667572 915.242676,317.373169 
	C896.053589,318.568298 878.870911,319.845612 861.664490,320.504791 
	C858.820984,320.613708 855.241943,318.671295 853.068970,316.572876 
	C818.839111,283.516846 795.653625,244.178452 785.807129,197.319016 
	C785.501587,195.865189 784.127502,194.357559 782.845276,193.447342 
	C780.439819,191.739853 777.736755,190.451630 774.883972,188.339371 
	C774.083069,187.755859 773.329468,187.089554 772.474426,186.600662 
	C708.210815,149.854477 638.832642,129.670013 565.353516,123.052780 
	C526.111877,119.518829 486.898407,120.129707 447.733704,124.796341 
	C407.106445,129.637268 367.520508,138.763672 329.201630,153.090759 
	C245.944809,184.219742 176.494949,234.041580 123.381737,305.828827 
	C122.011879,307.680328 120.788963,309.640533 118.866577,312.482971 
	C122.277451,311.223450 124.411003,310.369812 126.586823,309.642670 
	C142.476578,304.332214 156.502502,307.447845 165.772034,318.553040 
	C171.813965,325.791473 175.162796,334.401398 175.796967,343.653473 
	C176.453201,353.227570 175.928436,362.882599 175.470306,373.073853 
	C175.156784,374.863312 174.921402,376.670563 174.518066,378.439545 
	C167.935043,407.312347 154.103989,432.053802 132.869354,452.800598 
	C128.723587,456.851105 124.632080,457.895172 119.179352,457.691559 
	C104.510773,457.143829 90.257545,454.454590 75.684029,450.089752 
	C69.749290,447.765930 63.814548,445.442139 57.671741,443.036865 
	C49.237495,474.264557 44.657017,505.586884 43.236042,537.381409 
	C42.052544,563.862305 42.947594,590.322083 47.217648,616.464600 
	C50.204533,634.751099 54.941849,652.751709 58.806938,671.677246 
M961.909973,172.320999 
	C941.033875,178.029022 923.133484,189.270309 906.052185,203.224640 
	C905.607971,200.375565 905.240906,198.426956 905.007751,196.462463 
	C902.920288,178.876129 899.126526,161.717880 892.124023,145.377747 
	C886.478455,132.203903 879.250854,120.152000 867.238892,111.696838 
	C850.063721,99.607246 819.964233,98.354309 808.792603,130.510483 
	C803.471680,145.826126 802.525208,161.559814 804.394592,177.350082 
	C809.751160,222.596588 829.969849,260.849518 860.506958,294.108307 
	C863.927734,297.834015 867.493835,299.794312 872.649597,299.128937 
	C877.591431,298.491150 882.616150,298.527649 887.584717,298.059052 
	C932.104553,293.860382 971.887024,278.232666 1005.540161,248.375595 
	C1017.595947,237.679626 1027.891846,225.470398 1032.420532,209.464584 
	C1035.475952,198.666260 1033.512817,188.827637 1024.095825,182.323792 
	C1017.246399,177.593246 1009.495544,173.674988 1001.593811,171.073029 
	C988.743713,166.841599 975.592285,168.652618 961.909973,172.320999 
M135.974304,329.305573 
	C127.610443,331.594971 120.993126,336.370758 116.021965,343.432404 
	C109.593681,352.563904 105.612015,362.683624 103.884041,373.711670 
	C103.012054,379.276733 102.049492,384.827606 101.041100,390.908142 
	C94.792763,385.862549 89.193665,380.923523 83.170525,376.571350 
	C73.085007,369.283783 62.274639,363.332458 49.406746,363.053528 
	C31.973448,362.675629 22.698378,376.911682 31.173986,391.938049 
	C35.085838,398.873352 40.590179,405.394196 46.702591,410.515381 
	C66.535240,427.131836 90.120773,434.512665 115.690163,435.875214 
	C117.771057,435.986115 120.515053,434.717407 122.002892,433.175171 
	C136.252243,418.404938 146.119644,401.002747 151.646942,381.275482 
	C155.544571,367.364563 157.628906,353.199524 153.066696,338.992889 
	C150.015366,329.491119 146.488144,327.558258 135.974304,329.305573 
M949.912415,400.689972 
	C947.801025,397.513550 946.020081,394.044952 943.517334,391.214600 
	C935.443604,382.084290 916.219055,380.733337 911.766785,398.529541 
	C910.371338,404.107391 909.417542,410.047821 909.701416,415.750610 
	C911.024170,442.327179 922.967346,464.142822 941.218994,482.832489 
	C942.480713,484.124451 945.026917,484.876678 946.899231,484.749817 
	C972.229187,483.033630 994.940308,474.450378 1014.274536,457.834259 
	C1020.845520,452.187103 1026.548950,445.633392 1029.254517,437.016083 
	C1030.876831,431.849396 1029.801880,427.205811 1025.049805,425.006836 
	C1019.614502,422.491699 1013.589783,420.039337 1007.749634,419.857483 
	C994.795471,419.454102 983.593506,425.119720 973.489990,432.937195 
	C968.580444,436.735870 963.726990,440.607056 958.233459,444.928986 
	C956.840149,429.379120 956.619812,414.788055 949.912415,400.689972 
z"/>
<path fill="#E49D5B" opacity="1.000000" stroke="none" 
	d="
M163.099854,737.128296 
	C164.552826,719.444641 168.387344,702.183350 174.793915,685.749084 
	C180.691620,670.620178 188.043701,656.041504 195.138626,641.406372 
	C197.222595,637.107605 198.252106,633.267151 196.729477,628.599365 
	C178.261520,571.984802 179.337036,514.955200 193.538681,457.743896 
	C203.586609,417.265839 219.681335,379.250854 241.228455,342.938232 
	C241.579010,342.188690 241.762222,342.019775 242.048050,341.962280 
	C242.048050,341.962280 242.060486,342.031097 242.280182,341.937683 
	C242.657883,341.533295 242.815872,341.222321 242.973877,340.911316 
	C242.973862,340.911316 242.978256,340.983124 243.312103,341.059753 
	C244.272125,340.941681 244.980408,340.875092 245.512543,340.533813 
	C264.410706,328.414032 281.186798,313.722473 297.056396,297.935608 
	C315.475830,310.139069 331.847382,324.783386 347.141571,340.618103 
	C372.398499,366.767761 394.238037,395.434326 409.450562,428.673279 
	C413.099182,436.645447 415.724030,445.125000 418.337372,453.521332 
	C421.056824,462.258667 425.362885,464.823608 434.365448,462.898346 
	C450.299683,459.490662 466.296600,456.376099 483.046844,453.358887 
	C484.818054,453.659546 485.810211,453.816437 486.801270,453.809753 
	C516.439697,453.609924 545.420654,457.976807 573.718140,466.684082 
	C587.851318,471.032867 601.790955,476.007507 615.896118,480.451752 
	C622.841614,482.640137 623.325989,482.081726 625.201233,475.262207 
	C635.621399,437.367065 650.486633,401.377075 671.274414,367.924744 
	C674.579468,362.606171 677.670471,357.154541 680.860352,351.764404 
	C680.860352,351.764404 680.901611,351.912048 681.142212,351.816620 
	C681.575134,351.122009 681.767395,350.522858 681.959595,349.923676 
	C681.959595,349.923676 681.984680,349.988312 682.261902,349.852783 
	C682.694153,349.291718 682.849121,348.866180 683.004150,348.440643 
	C703.829163,325.775299 727.369995,306.411987 754.530579,289.500854 
	C761.194092,297.602631 768.296265,305.301544 774.350891,313.751099 
	C813.790161,368.791077 838.830566,429.756744 848.763672,496.811615 
	C849.559998,502.187469 849.708313,507.659302 849.863892,513.835510 
	C848.377380,527.800598 847.748718,541.096924 845.881409,554.217041 
	C841.147461,587.478455 830.802490,618.646118 809.936096,645.657715 
	C808.733154,647.215027 808.091675,650.057800 808.580322,651.941345 
	C815.175232,677.357117 814.141724,702.789673 808.030823,727.966248 
	C804.589050,742.145996 799.388916,755.898987 794.723633,769.917542 
	C794.298401,770.050781 794.130432,770.110718 793.497925,770.130310 
	C766.521912,771.789124 741.101990,766.415222 715.990112,758.559448 
	C675.840454,745.999268 637.821350,728.373352 599.784485,710.687195 
	C587.319153,704.891174 574.121887,700.669189 561.017090,695.594360 
	C557.658081,693.967346 554.675659,692.015015 551.402283,691.055054 
	C532.539551,685.523376 513.403564,683.543457 493.933899,687.496399 
	C485.195099,689.270569 476.232605,690.395264 468.291687,695.930115 
	C465.941467,696.496521 463.926941,696.785828 462.118744,697.558228 
	C442.252838,706.043213 422.313385,714.367493 402.599823,723.195312 
	C367.651428,738.845154 332.152618,752.966370 295.021271,762.573975 
	C270.576843,768.898987 245.780426,770.468384 220.845551,765.879272 
	C198.903564,761.841003 179.680588,752.070618 163.099854,737.128296 
M759.866943,347.175110 
	C761.072998,343.261902 760.575928,339.364746 756.787354,337.676422 
	C754.313293,336.573944 750.807129,336.965637 748.027222,337.694672 
	C746.479187,338.100616 745.267639,340.444977 744.250732,342.125305 
	C719.301392,383.351288 706.238892,428.164734 702.542908,476.127930 
	C701.639832,487.846863 705.152344,494.853210 714.473511,501.450531 
	C736.515808,517.051514 757.488342,534.087219 774.226685,555.590881 
	C780.862732,564.116150 786.772644,573.204285 793.097900,581.975098 
	C795.964233,585.949707 800.190918,586.925232 804.040161,584.755249 
	C807.825562,582.621277 809.045898,578.427551 807.186462,573.913452 
	C806.809265,572.997742 806.401733,572.094482 806.587646,570.815002 
	C808.704712,567.642456 811.111755,564.623840 812.890503,561.271729 
	C822.774048,542.646362 824.118042,522.581665 822.464050,502.070801 
	C822.215942,498.994171 821.620605,495.945526 821.163513,492.726074 
	C819.910034,492.958618 819.135925,492.885803 818.654968,493.226685 
	C815.590820,495.398163 812.591309,497.660797 809.146545,500.206787 
	C808.385559,472.751831 804.527771,446.086700 796.151428,420.177063 
	C787.754456,394.203735 775.980957,369.935303 759.866943,347.175110 
M231.736938,570.021484 
	C228.792801,575.755127 229.559418,580.138062 233.933151,582.578186 
	C238.204376,584.961121 242.394577,583.560059 245.769470,578.607239 
	C246.237625,577.920166 246.642853,577.190613 247.097748,576.494080 
	C258.716644,558.704224 271.882660,542.150146 288.150574,528.420715 
	C301.625610,517.048340 315.634308,506.292969 329.661407,495.598450 
	C334.366699,492.011108 336.831635,488.068268 336.205200,482.096893 
	C334.713654,467.878723 334.191498,453.509766 331.849457,439.439484 
	C325.950653,404.001434 313.917480,370.665253 295.210175,339.871552 
	C292.002258,334.591064 288.438721,333.141663 284.148163,335.016998 
	C279.904541,336.871796 278.619232,340.494507 279.576080,346.869568 
	C251.807129,384.040436 236.567307,426.095764 231.024948,471.881409 
	C230.003098,480.323151 229.581329,488.837555 228.876358,497.393921 
	C225.138138,494.681793 221.763107,492.233124 217.766769,489.333710 
	C214.456421,505.845673 214.301239,521.195801 217.220383,536.506409 
	C219.515228,548.542664 223.501862,559.951904 231.736938,570.021484 
M293.390686,681.471802 
	C296.440887,681.793762 299.491119,682.115784 302.602112,682.444214 
	C298.432434,695.255920 302.171173,700.267578 315.057220,699.032654 
	C331.949219,697.413757 348.839020,695.701477 365.674774,693.590576 
	C376.707550,692.207336 387.730835,690.451965 398.590973,688.092651 
	C405.704559,686.547180 409.390747,678.390747 406.138275,672.465149 
	C404.848206,670.114746 402.175995,668.523010 400.150421,666.602356 
	C402.415222,665.246094 404.791168,664.023926 406.948029,662.493042 
	C412.790710,658.345947 413.629486,650.893250 408.337158,646.205444 
	C406.305267,644.405579 403.000244,643.388367 400.202026,643.217957 
	C385.600067,642.328674 370.978882,641.461853 356.355988,641.285767 
	C339.555511,641.083496 322.739960,641.405518 305.943726,641.918274 
	C298.556580,642.143921 294.241272,649.019104 296.340332,656.101562 
	C296.699371,657.312866 297.310577,658.449402 297.811249,659.634644 
	C287.891357,662.900696 285.198029,665.255371 285.015350,670.894775 
	C284.840546,676.291321 287.549866,679.649170 293.390686,681.471802 
M662.559326,641.456177 
	C649.428101,642.051331 636.292419,642.565125 623.167786,643.281372 
	C617.856384,643.571228 614.666016,646.679565 613.481812,651.833679 
	C612.353149,656.746155 614.488708,660.231750 618.456055,662.819702 
	C620.614563,664.227844 622.868042,665.490417 625.259705,666.927307 
	C618.912781,670.355835 617.333191,672.878113 617.863098,678.304321 
	C618.367920,683.473938 621.490601,686.917480 627.302368,688.601257 
	C629.217590,689.156067 631.154175,689.757202 633.122131,689.991455 
	C660.062500,693.197693 687.000793,696.426453 713.962830,699.441528 
	C720.168579,700.135559 724.149475,696.098267 723.935852,689.829224 
	C723.853394,687.408691 723.038086,685.013123 722.496399,682.305054 
	C729.704041,681.680725 738.555664,682.686829 739.802063,672.476440 
	C740.864868,663.770691 734.034973,661.217773 727.010559,659.779297 
	C731.733215,648.583435 727.458252,641.744263 715.502319,641.547058 
	C698.187561,641.261475 680.864746,641.462830 662.559326,641.456177 
M449.139404,585.480957 
	C445.614288,582.753174 442.411713,579.383057 438.502533,577.420288 
	C427.629547,571.960938 415.929321,570.670227 403.958069,572.525452 
	C394.419586,574.003662 385.687683,577.547729 378.245667,583.864258 
	C367.432312,593.042175 367.749573,604.135620 379.590637,611.844971 
	C392.174377,620.037903 406.318848,621.605408 420.892334,619.400330 
	C430.415955,617.959290 439.248688,614.609619 446.432159,607.844604 
	C453.725037,600.976562 454.692719,594.186340 449.139404,585.480957 
M641.801880,618.483337 
	C646.598572,616.632568 651.712646,615.339966 656.132935,612.827026 
	C669.679504,605.125671 670.372803,592.964111 658.172974,583.153076 
	C642.178711,570.290588 615.702820,568.049500 597.311523,578.001343 
	C580.883667,586.890686 580.222473,601.481384 595.785400,611.833313 
	C596.475891,612.292603 597.229614,612.656921 597.954407,613.064331 
	C611.547424,620.705505 626.030762,621.595642 641.801880,618.483337 
M722.422546,718.141907 
	C720.213135,725.359619 722.363037,732.120300 728.431580,736.600952 
	C734.894897,741.373169 742.246582,743.427856 750.200073,744.406860 
	C765.422791,746.280701 779.422302,743.315247 791.785095,734.367249 
	C804.875427,724.892700 803.307007,709.783142 788.938293,702.434326 
	C777.134399,696.397156 764.632507,695.541748 752.045593,698.355957 
	C740.104004,701.025818 728.378235,704.756042 722.422546,718.141907 
M232.558685,732.948608 
	C251.514801,746.659119 271.836151,749.154297 293.099762,739.356018 
	C306.937988,732.979370 308.655396,719.597656 297.612427,709.153687 
	C296.653717,708.246887 295.599670,707.412048 294.491028,706.697021 
	C280.056519,697.386902 264.382507,695.005432 247.742706,698.630859 
	C244.531631,699.330505 241.332367,700.454590 238.376953,701.894531 
	C224.030045,708.884888 221.739990,720.191589 232.558685,732.948608 
z"/>
<path fill="#38A1F4" opacity="1.000000" stroke="none" 
	d="
M775.157471,188.989044 
	C777.736755,190.451630 780.439819,191.739853 782.845276,193.447342 
	C784.127502,194.357559 785.501587,195.865189 785.807129,197.319016 
	C795.653625,244.178452 818.839111,283.516846 853.068970,316.572876 
	C855.241943,318.671295 858.820984,320.613708 861.664490,320.504791 
	C878.870911,319.845612 896.053589,318.568298 915.242676,317.373169 
	C923.720093,331.667572 933.295471,347.813293 942.870789,363.959045 
	C942.501343,364.334442 942.131897,364.709839 941.762451,365.085236 
	C933.061646,362.650696 924.336487,362.160278 915.843506,365.251312 
	C899.319580,371.265167 891.499817,384.353241 889.176941,400.761200 
	C884.706909,432.335571 895.946228,459.579224 914.263611,484.379211 
	C919.375427,491.300171 925.598877,497.456390 931.750000,503.519379 
	C933.610840,505.353607 937.077209,506.827301 939.578979,506.531006 
	C952.887695,504.954926 966.160645,502.973633 979.358398,500.637573 
	C982.639465,500.056763 983.695801,500.007935 984.103821,503.639526 
	C986.706909,526.809692 987.987366,550.065308 986.907532,573.329163 
	C983.140564,654.486633 960.779358,729.372437 910.598999,794.527344 
	C903.607605,803.605042 895.575745,811.884094 887.967285,820.481262 
	C886.666321,821.951294 885.070312,823.160217 882.861450,825.172180 
	C885.062988,817.156311 887.307922,810.146118 888.892944,802.989868 
	C893.346924,782.880554 893.887390,762.572815 892.099731,742.064636 
	C889.199158,708.789246 880.424438,677.179749 865.047791,647.632385 
	C860.352295,638.609619 859.498352,630.979980 862.531738,621.157837 
	C868.096802,603.138367 870.657349,584.396423 872.103455,565.483337 
	C876.384583,509.492615 866.057556,455.873932 846.464294,403.762360 
	C831.537048,364.060822 812.240173,326.616974 785.788086,293.260620 
	C779.337646,285.126587 771.505066,277.984436 763.717529,271.049164 
	C757.951538,265.914246 751.591370,265.971130 744.567749,270.392395 
	C688.236877,305.851685 642.997192,351.814331 611.231506,410.542542 
	C606.203064,419.839111 602.476501,429.839905 597.755859,440.391724 
	C544.870239,426.597443 491.128998,426.146942 437.962158,439.816071 
	C432.553406,427.992798 427.893555,416.260132 421.993317,405.188507 
	C401.323517,366.402618 373.256256,333.489594 340.298431,304.661011 
	C331.417877,296.893036 321.969269,289.774536 312.794495,281.740784 
	C316.638275,276.089539 320.648163,271.180511 324.266785,265.998291 
	C336.162201,248.962784 346.611206,231.219681 348.428406,209.883530 
	C349.568085,196.502243 343.751251,183.896500 329.937469,179.034012 
	C328.047272,178.368668 326.195007,177.595703 323.813873,176.674805 
	C324.968353,176.059265 325.385071,175.778473 325.842041,175.601715 
	C385.977478,152.344986 448.203033,138.699112 512.650146,136.117981 
	C550.460205,134.603668 588.179626,136.817261 625.529968,143.145981 
	C675.719849,151.650238 724.167053,165.991592 770.330139,187.686844 
	C771.815247,188.384796 773.542908,188.566635 775.157471,188.989044 
M437.798706,228.329559 
	C451.231476,225.376633 463.228241,219.689026 472.843872,209.628220 
	C486.869995,194.952698 482.474365,177.930649 463.062439,171.990570 
	C453.663696,169.114532 444.029877,169.226028 434.475098,171.099197 
	C418.414734,174.247772 404.028687,180.615997 393.718750,193.985641 
	C389.783997,199.088074 387.163788,204.751907 388.817780,211.537231 
	C391.499664,222.539490 399.938934,227.332718 409.805481,228.655701 
	C418.710022,229.849716 427.924591,228.731766 437.798706,228.329559 
z"/>
<path fill="#F4F7F0" opacity="1.000000" stroke="none" 
	d="
M162.992554,737.531860 
	C179.680588,752.070618 198.903564,761.841003 220.845551,765.879272 
	C245.780426,770.468384 270.576843,768.898987 295.021271,762.573975 
	C332.152618,752.966370 367.651428,738.845154 402.599823,723.195312 
	C422.313385,714.367493 442.252838,706.043213 462.118744,697.558228 
	C463.926941,696.785828 465.941467,696.496521 468.067322,696.307373 
	C468.569885,698.716858 468.337128,701.081726 469.264679,702.831482 
	C471.590363,707.218567 473.991241,711.707153 477.170349,715.472473 
	C485.082581,724.843689 493.445221,733.834717 501.785431,743.155334 
	C493.605927,756.504150 473.079742,763.667847 456.559662,758.454956 
	C447.783691,755.685730 440.551086,750.568176 433.982025,744.258850 
	C430.514832,740.928833 426.256439,741.000610 423.300018,743.940613 
	C420.221619,747.001892 420.124817,751.108215 423.493896,754.598206 
	C449.436096,781.471130 483.459717,780.380737 506.737762,760.205017 
	C509.940308,757.429260 512.547668,753.966736 515.548645,750.693359 
	C523.056641,761.743408 533.142822,768.930359 545.771545,772.543823 
	C570.008667,779.478638 589.838684,771.434326 606.929749,754.382812 
	C609.938232,751.381165 609.997009,747.791809 607.331970,744.477356 
	C604.928284,741.487915 601.683350,741.004639 598.363403,742.702637 
	C596.785156,743.509827 595.550476,745.000305 594.183960,746.208191 
	C584.564941,754.711670 573.905823,760.987793 560.541565,760.067566 
	C547.071838,759.140015 535.609070,754.160461 527.903137,742.132202 
	C528.990723,741.202942 529.749329,740.571411 530.489868,739.919556 
	C541.664917,730.082764 551.642334,719.200439 559.204895,706.302551 
	C561.065796,703.128845 563.734863,699.856262 561.259338,695.727417 
	C574.121887,700.669189 587.319153,704.891174 599.784485,710.687195 
	C637.821350,728.373352 675.840454,745.999268 715.990112,758.559448 
	C741.101990,766.415222 766.521912,771.789124 793.460938,770.477417 
	C769.123718,825.095886 727.691223,861.335327 672.654541,882.654663 
	C634.761841,897.333130 595.144348,902.546082 554.759766,902.871094 
	C545.111755,902.948792 535.449951,902.571045 525.809692,902.094788 
	C500.725189,900.855286 475.564941,900.307739 450.592316,897.870728 
	C423.157135,895.193298 395.743408,891.592468 368.596161,886.823914 
	C321.494354,878.550110 275.869080,865.239746 233.510712,842.315918 
	C211.041092,830.155640 190.692612,815.312012 174.680725,795.118774 
	C170.485260,789.827637 166.646271,784.253784 162.643555,778.809814 
	C160.530640,765.172058 161.301819,751.551331 162.992554,737.531860 
M550.478943,809.044006 
	C544.248535,811.711670 538.238953,815.262390 531.747375,816.885315 
	C510.327057,822.240662 491.039246,816.175903 473.095428,804.427917 
	C468.625977,801.501770 464.112915,802.005371 461.677826,805.680908 
	C459.250183,809.345215 460.207153,814.297058 464.898590,816.647461 
	C474.795410,821.605896 484.667847,827.114319 495.192810,830.218018 
	C520.571594,837.701782 544.178650,832.876099 565.360779,816.842346 
	C570.075562,813.273438 571.109253,809.176453 568.304749,805.362732 
	C565.599976,801.684631 561.275391,801.547180 556.429749,804.975159 
	C554.665283,806.223328 552.887451,807.452576 550.478943,809.044006 
z"/>
<path fill="#38A1F4" opacity="1.000000" stroke="none" 
	d="
M76.174057,450.565002 
	C90.257545,454.454590 104.510773,457.143829 119.179352,457.691559 
	C124.632080,457.895172 128.723587,456.851105 132.869354,452.800598 
	C154.103989,432.053802 167.935043,407.312347 174.518066,378.439545 
	C174.921402,376.670563 175.156784,374.863312 176.121704,372.757690 
	C186.447235,369.269165 196.121338,366.096771 205.795441,362.924377 
	C193.693878,388.600311 183.092361,414.849976 175.629929,442.285522 
	C169.362747,465.326721 164.841644,488.656433 162.890488,512.520630 
	C161.206924,533.112183 160.629150,553.740173 163.377533,574.134583 
	C165.846100,592.452637 170.558258,610.463013 174.015396,628.659485 
	C174.481964,631.115234 174.122849,634.268127 172.924942,636.417603 
	C158.168060,662.895996 148.300232,691.156677 143.297272,720.928345 
	C137.273346,756.775574 137.970444,792.322266 151.876129,826.674622 
	C151.979797,826.930725 151.794373,827.303772 151.627518,828.356689 
	C149.803055,826.752563 148.205902,825.480835 146.758835,824.056641 
	C105.294212,783.247009 78.156990,733.978821 61.046303,678.796082 
	C60.309570,676.420105 59.553822,674.050049 58.792793,670.839355 
	C58.758530,667.675415 58.795811,665.347168 58.709362,663.023499 
	C57.893433,641.093567 55.957741,619.136353 56.516006,597.242371 
	C57.150146,572.372864 58.879406,547.406738 62.221500,522.765991 
	C65.510803,498.514313 71.416428,474.617523 76.174057,450.565002 
z"/>
<path fill="#B2AEBE" opacity="1.000000" stroke="none" 
	d="
M162.465912,779.189270 
	C166.646271,784.253784 170.485260,789.827637 174.680725,795.118774 
	C190.692612,815.312012 211.041092,830.155640 233.510712,842.315918 
	C275.869080,865.239746 321.494354,878.550110 368.596161,886.823914 
	C395.743408,891.592468 423.157135,895.193298 450.592316,897.870728 
	C475.564941,900.307739 500.725189,900.855286 525.809692,902.094788 
	C535.449951,902.571045 545.111755,902.948792 554.759766,902.871094 
	C595.144348,902.546082 634.761841,897.333130 672.654541,882.654663 
	C727.691223,861.335327 769.123718,825.095886 793.925476,770.517700 
	C794.130432,770.110718 794.298401,770.050781 795.159241,769.960571 
	C799.967163,769.430115 804.116272,769.121460 808.191711,768.398376 
	C831.672546,764.232483 852.490295,754.590820 869.912598,738.068542 
	C873.373169,764.876587 872.027527,791.312073 862.498901,816.814148 
	C850.448120,849.065918 826.987915,869.564026 794.917236,880.911255 
	C790.403625,882.508301 786.110535,884.765076 781.794678,886.878479 
	C754.831421,900.081604 726.144104,907.922058 696.914856,913.950378 
	C649.484558,923.732605 601.453125,927.825378 553.098694,929.254883 
	C511.924438,930.472107 470.833984,929.537781 429.826691,925.932251 
	C375.288879,921.137085 321.469269,912.463257 270.000580,892.901611 
	C254.015213,886.826111 238.244949,880.024597 222.863968,872.551514 
	C188.951294,856.074463 170.607071,827.896912 163.977249,791.429382 
	C163.263489,787.503235 162.844162,783.523560 162.465912,779.189270 
z"/>
<path fill="#E4EFEF" opacity="1.000000" stroke="none" 
	d="
M205.989960,362.627594 
	C196.121338,366.096771 186.447235,369.269165 176.346680,372.471893 
	C175.928436,362.882599 176.453201,353.227570 175.796967,343.653473 
	C175.162796,334.401398 171.813965,325.791473 165.772034,318.553040 
	C156.502502,307.447845 142.476578,304.332214 126.586823,309.642670 
	C124.411003,310.369812 122.277451,311.223450 118.866577,312.482971 
	C120.788963,309.640533 122.011879,307.680328 123.381737,305.828827 
	C176.494949,234.041580 245.944809,184.219742 329.201630,153.090759 
	C367.520508,138.763672 407.106445,129.637268 447.733704,124.796341 
	C486.898407,120.129707 526.111877,119.518829 565.353516,123.052780 
	C638.832642,129.670013 708.210815,149.854477 772.474426,186.600662 
	C773.329468,187.089554 774.083069,187.755859 775.020752,188.664215 
	C773.542908,188.566635 771.815247,188.384796 770.330139,187.686844 
	C724.167053,165.991592 675.719849,151.650238 625.529968,143.145981 
	C588.179626,136.817261 550.460205,134.603668 512.650146,136.117981 
	C448.203033,138.699112 385.977478,152.344986 325.842041,175.601715 
	C325.385071,175.778473 324.968353,176.059265 323.813873,176.674805 
	C326.195007,177.595703 328.047272,178.368668 329.937469,179.034012 
	C343.751251,183.896500 349.568085,196.502243 348.428406,209.883530 
	C346.611206,231.219681 336.162201,248.962784 324.266785,265.998291 
	C320.648163,271.180511 316.638275,276.089539 312.594971,281.487854 
	C305.392273,277.422302 298.234161,273.232544 291.462006,268.491516 
	C285.388885,264.239838 279.459991,264.409790 273.998352,268.682617 
	C268.011292,273.366547 262.075989,278.335266 257.073669,284.020691 
	C237.643539,306.104065 222.502686,331.077148 209.093491,357.152802 
	C208.188751,358.912170 207.157120,360.606323 205.989960,362.627594 
z"/>
<path fill="#FB615F" opacity="1.000000" stroke="none" 
	d="
M962.306885,172.219238 
	C975.592285,168.652618 988.743713,166.841599 1001.593811,171.073029 
	C1009.495544,173.674988 1017.246399,177.593246 1024.095825,182.323792 
	C1033.512817,188.827637 1035.475952,198.666260 1032.420532,209.464584 
	C1027.891846,225.470398 1017.595947,237.679626 1005.540161,248.375595 
	C971.887024,278.232666 932.104553,293.860382 887.584717,298.059052 
	C882.616150,298.527649 877.591431,298.491150 872.649597,299.128937 
	C867.493835,299.794312 863.927734,297.834015 860.506958,294.108307 
	C829.969849,260.849518 809.751160,222.596588 804.394592,177.350082 
	C802.525208,161.559814 803.471680,145.826126 808.792603,130.510483 
	C819.964233,98.354309 850.063721,99.607246 867.238892,111.696838 
	C879.250854,120.152000 886.478455,132.203903 892.124023,145.377747 
	C899.126526,161.717880 902.920288,178.876129 905.007751,196.462463 
	C905.240906,198.426956 905.607971,200.375565 906.052185,203.224640 
	C923.133484,189.270309 941.033875,178.029022 962.306885,172.219238 
z"/>
<path fill="#38A0F3" opacity="1.000000" stroke="none" 
	d="
M273.992401,940.007263 
	C260.962646,933.894165 248.429886,918.203613 248.340424,907.570984 
	C255.840668,910.448853 263.187500,913.416260 270.636292,916.100647 
	C306.322693,928.961548 343.255310,936.604797 380.704407,941.911377 
	C435.564789,949.685242 490.760590,951.964661 546.088257,950.762451 
	C599.566833,949.600403 652.780579,945.405823 705.228699,934.136841 
	C705.878174,933.997314 706.547424,933.949890 707.509644,934.148071 
	C706.329285,935.752136 704.949524,937.210999 703.347778,938.360413 
	C691.058228,947.178223 677.412292,953.305054 663.153015,958.069153 
	C623.756042,971.231934 582.862793,974.984619 541.742981,975.612061 
	C514.849792,976.022461 487.882446,974.574341 461.016998,972.873230 
	C438.665741,971.458069 416.377655,968.769104 394.127777,966.093689 
	C358.909912,961.859009 324.275391,954.667603 290.309998,944.344299 
	C284.928497,942.708740 279.434418,941.443665 273.992401,940.007263 
z"/>
<path fill="#FB605F" opacity="1.000000" stroke="none" 
	d="
M136.368805,329.223206 
	C146.488144,327.558258 150.015366,329.491119 153.066696,338.992889 
	C157.628906,353.199524 155.544571,367.364563 151.646942,381.275482 
	C146.119644,401.002747 136.252243,418.404938 122.002892,433.175171 
	C120.515053,434.717407 117.771057,435.986115 115.690163,435.875214 
	C90.120773,434.512665 66.535240,427.131836 46.702591,410.515381 
	C40.590179,405.394196 35.085838,398.873352 31.173986,391.938049 
	C22.698378,376.911682 31.973448,362.675629 49.406746,363.053528 
	C62.274639,363.332458 73.085007,369.283783 83.170525,376.571350 
	C89.193665,380.923523 94.792763,385.862549 101.041100,390.908142 
	C102.049492,384.827606 103.012054,379.276733 103.884041,373.711670 
	C105.612015,362.683624 109.593681,352.563904 116.021965,343.432404 
	C120.993126,336.370758 127.610443,331.594971 136.368805,329.223206 
z"/>
<path fill="#A76F55" opacity="1.000000" stroke="none" 
	d="
M869.954163,737.645630 
	C852.490295,754.590820 831.672546,764.232483 808.191711,768.398376 
	C804.116272,769.121460 799.967163,769.430115 795.416504,769.887207 
	C799.388916,755.898987 804.589050,742.145996 808.030823,727.966248 
	C814.141724,702.789673 815.175232,677.357117 808.580322,651.941345 
	C808.091675,650.057800 808.733154,647.215027 809.936096,645.657715 
	C830.802490,618.646118 841.147461,587.478455 845.881409,554.217041 
	C847.748718,541.096924 848.377380,527.800598 849.857544,514.279053 
	C850.712341,525.383606 851.981506,536.810974 851.698853,548.199829 
	C851.132385,571.022339 848.159302,593.598999 841.999329,615.662292 
	C840.614136,620.623657 839.324707,625.637329 837.512329,630.446472 
	C835.714172,635.217957 836.192139,639.363281 838.772522,643.720886 
	C854.040222,669.504333 863.499939,697.397949 868.540405,726.854797 
	C869.128784,730.293091 869.515503,733.765930 869.954163,737.645630 
z"/>
<path fill="#FB605F" opacity="1.000000" stroke="none" 
	d="
M950.039978,401.043823 
	C956.619812,414.788055 956.840149,429.379120 958.233459,444.928986 
	C963.726990,440.607056 968.580444,436.735870 973.489990,432.937195 
	C983.593506,425.119720 994.795471,419.454102 1007.749634,419.857483 
	C1013.589783,420.039337 1019.614502,422.491699 1025.049805,425.006836 
	C1029.801880,427.205811 1030.876831,431.849396 1029.254517,437.016083 
	C1026.548950,445.633392 1020.845520,452.187103 1014.274536,457.834259 
	C994.940308,474.450378 972.229187,483.033630 946.899231,484.749817 
	C945.026917,484.876678 942.480713,484.124451 941.218994,482.832489 
	C922.967346,464.142822 911.024170,442.327179 909.701416,415.750610 
	C909.417542,410.047821 910.371338,404.107391 911.766785,398.529541 
	C916.219055,380.733337 935.443604,382.084290 943.517334,391.214600 
	C946.020081,394.044952 947.801025,397.513550 950.039978,401.043823 
z"/>
<path fill="#2B61AE" opacity="1.000000" stroke="none" 
	d="
M274.122009,940.321289 
	C279.434418,941.443665 284.928497,942.708740 290.309998,944.344299 
	C324.275391,954.667603 358.909912,961.859009 394.127777,966.093689 
	C416.377655,968.769104 438.665741,971.458069 461.016998,972.873230 
	C487.882446,974.574341 514.849792,976.022461 541.742981,975.612061 
	C582.862793,974.984619 623.756042,971.231934 663.153015,958.069153 
	C677.412292,953.305054 691.058228,947.178223 703.347778,938.360413 
	C704.949524,937.210999 706.329285,935.752136 707.924805,934.101929 
	C728.110535,927.872498 748.212891,922.075256 768.235962,916.015808 
	C773.386963,914.457092 778.288086,912.072510 784.362488,909.644043 
	C781.576660,920.631653 775.848022,928.325867 768.272705,934.780151 
	C756.570984,944.750427 742.944519,951.330933 728.664795,956.620667 
	C702.928955,966.153992 676.166443,971.331726 649.067627,974.990234 
	C609.906006,980.277222 570.541504,982.272339 531.050720,982.105347 
	C511.918365,982.024475 492.767090,982.370483 473.658081,981.640747 
	C428.564117,979.918457 383.636444,976.350098 339.548462,965.956787 
	C320.229187,961.402527 301.292511,955.626709 283.647369,946.279297 
	C280.423584,944.571411 277.378937,942.525330 274.122009,940.321289 
z"/>
<path fill="#E2EEEF" opacity="1.000000" stroke="none" 
	d="
M75.929047,450.327393 
	C71.416428,474.617523 65.510803,498.514313 62.221500,522.765991 
	C58.879406,547.406738 57.150146,572.372864 56.516006,597.242371 
	C55.957741,619.136353 57.893433,641.093567 58.709362,663.023499 
	C58.795811,665.347168 58.758530,667.675415 58.838013,670.440796 
	C54.941849,652.751709 50.204533,634.751099 47.217648,616.464600 
	C42.947594,590.322083 42.052544,563.862305 43.236042,537.381409 
	C44.657017,505.586884 49.237495,474.264557 57.671741,443.036865 
	C63.814548,445.442139 69.749290,447.765930 75.929047,450.327393 
z"/>
<path fill="#EDD9C0" opacity="1.000000" stroke="none" 
	d="
M680.530273,351.574890 
	C677.670471,357.154541 674.579468,362.606171 671.274414,367.924744 
	C650.486633,401.377075 635.621399,437.367065 625.201233,475.262207 
	C623.325989,482.081726 622.841614,482.640137 615.896118,480.451752 
	C601.790955,476.007507 587.851318,471.032867 573.718140,466.684082 
	C545.420654,457.976807 516.439697,453.609924 486.801270,453.809753 
	C485.810211,453.816437 484.818054,453.659546 483.465820,453.406891 
	C522.919189,449.259918 562.129150,452.199738 600.675476,463.262024 
	C610.234253,466.005249 614.449097,463.182373 617.094849,453.561523 
	C623.665710,429.668182 635.723938,408.443726 650.151855,388.621368 
	C659.526062,375.742188 670.141052,363.766083 680.530273,351.574890 
z"/>
<path fill="#ECD9C0" opacity="1.000000" stroke="none" 
	d="
M296.895660,297.638916 
	C281.186798,313.722473 264.410706,328.414032 245.512543,340.533813 
	C244.980408,340.875092 244.272125,340.941681 243.282150,341.039825 
	C252.258987,327.444977 261.396790,313.799042 271.053375,300.530670 
	C274.311096,296.054504 278.512177,289.976807 282.965546,289.328949 
	C287.079681,288.730408 292.108795,294.421295 296.895660,297.638916 
z"/>
<path fill="#EDD9C0" opacity="1.000000" stroke="none" 
	d="
M681.603271,350.050598 
	C681.767395,350.522858 681.575134,351.122009 681.066650,351.829468 
	C680.915955,351.350983 681.081421,350.764252 681.603271,350.050598 
z"/>
<path fill="#EDD9C0" opacity="1.000000" stroke="none" 
	d="
M682.720825,348.622437 
	C682.849121,348.866180 682.694153,349.291718 682.227905,349.859558 
	C682.090271,349.602631 682.263855,349.203430 682.720825,348.622437 
z"/>
<path fill="#ECD9C0" opacity="1.000000" stroke="none" 
	d="
M241.909912,342.083862 
	C241.762222,342.019775 241.579010,342.188690 241.474762,342.663055 
	C241.478271,342.600677 241.585175,342.383453 241.909912,342.083862 
z"/>
<path fill="#ECD9C0" opacity="1.000000" stroke="none" 
	d="
M242.695358,340.968994 
	C242.815872,341.222321 242.657883,341.533295 242.246750,341.947937 
	C242.134689,341.709961 242.275772,341.368317 242.695358,340.968994 
z"/>
<path fill="#F3F6EF" opacity="1.000000" stroke="none" 
	d="
M231.869019,569.340454 
	C223.501862,559.951904 219.515228,548.542664 217.220383,536.506409 
	C214.301239,521.195801 214.456421,505.845673 217.766769,489.333710 
	C221.763107,492.233124 225.138138,494.681793 228.876358,497.393921 
	C229.581329,488.837555 230.003098,480.323151 231.024948,471.881409 
	C236.567307,426.095764 251.807129,384.040436 280.135010,346.867065 
	C302.754517,386.389832 313.769592,428.876434 315.107086,474.035858 
	C315.246307,478.736328 313.601654,481.437469 310.109222,484.328369 
	C297.938263,494.403229 285.792847,504.551819 274.232941,515.311890 
	C257.316406,531.057922 243.895935,549.686707 231.869019,569.340454 
z"/>
<path fill="#F3F6EF" opacity="1.000000" stroke="none" 
	d="
M759.769409,347.898102 
	C775.980957,369.935303 787.754456,394.203735 796.151428,420.177063 
	C804.527771,446.086700 808.385559,472.751831 809.146545,500.206787 
	C812.591309,497.660797 815.590820,495.398163 818.654968,493.226685 
	C819.135925,492.885803 819.910034,492.958618 821.163513,492.726074 
	C821.620605,495.945526 822.215942,498.994171 822.464050,502.070801 
	C824.118042,522.581665 822.774048,542.646362 812.890503,561.271729 
	C811.111755,564.623840 808.704712,567.642456 806.008850,570.792969 
	C793.997314,550.893555 780.413086,532.592773 763.785522,516.811890 
	C751.848022,505.482086 739.012390,495.102051 726.725220,484.132782 
	C725.213684,482.783386 723.715881,480.402069 723.733032,478.512756 
	C723.924072,457.470825 726.705017,436.735809 731.994263,416.360657 
	C738.234802,392.320892 746.535278,369.105835 759.769409,347.898102 
z"/>
<path fill="#1A0649" opacity="1.000000" stroke="none" 
	d="
M561.017090,695.594360 
	C563.734863,699.856262 561.065796,703.128845 559.204895,706.302551 
	C551.642334,719.200439 541.664917,730.082764 530.489868,739.919556 
	C529.749329,740.571411 528.990723,741.202942 527.903137,742.132202 
	C535.609070,754.160461 547.071838,759.140015 560.541565,760.067566 
	C573.905823,760.987793 584.564941,754.711670 594.183960,746.208191 
	C595.550476,745.000305 596.785156,743.509827 598.363403,742.702637 
	C601.683350,741.004639 604.928284,741.487915 607.331970,744.477356 
	C609.997009,747.791809 609.938232,751.381165 606.929749,754.382812 
	C589.838684,771.434326 570.008667,779.478638 545.771545,772.543823 
	C533.142822,768.930359 523.056641,761.743408 515.548645,750.693359 
	C512.547668,753.966736 509.940308,757.429260 506.737762,760.205017 
	C483.459717,780.380737 449.436096,781.471130 423.493896,754.598206 
	C420.124817,751.108215 420.221619,747.001892 423.300018,743.940613 
	C426.256439,741.000610 430.514832,740.928833 433.982025,744.258850 
	C440.551086,750.568176 447.783691,755.685730 456.559662,758.454956 
	C473.079742,763.667847 493.605927,756.504150 501.785431,743.155334 
	C493.445221,733.834717 485.082581,724.843689 477.170349,715.472473 
	C473.991241,711.707153 471.590363,707.218567 469.264679,702.831482 
	C468.337128,701.081726 468.569885,698.716858 468.498810,696.254639 
	C476.232605,690.395264 485.195099,689.270569 493.933899,687.496399 
	C513.403564,683.543457 532.539551,685.523376 551.402283,691.055054 
	C554.675659,692.015015 557.658081,693.967346 561.017090,695.594360 
z"/>
<path fill="#190547" opacity="1.000000" stroke="none" 
	d="
M292.997131,681.362305 
	C287.549866,679.649170 284.840546,676.291321 285.015350,670.894775 
	C285.198029,665.255371 287.891357,662.900696 297.811249,659.634644 
	C297.310577,658.449402 296.699371,657.312866 296.340332,656.101562 
	C294.241272,649.019104 298.556580,642.143921 305.943726,641.918274 
	C322.739960,641.405518 339.555511,641.083496 356.355988,641.285767 
	C370.978882,641.461853 385.600067,642.328674 400.202026,643.217957 
	C403.000244,643.388367 406.305267,644.405579 408.337158,646.205444 
	C413.629486,650.893250 412.790710,658.345947 406.948029,662.493042 
	C404.791168,664.023926 402.415222,665.246094 400.150421,666.602356 
	C402.175995,668.523010 404.848206,670.114746 406.138275,672.465149 
	C409.390747,678.390747 405.704559,686.547180 398.590973,688.092651 
	C387.730835,690.451965 376.707550,692.207336 365.674774,693.590576 
	C348.839020,695.701477 331.949219,697.413757 315.057220,699.032654 
	C302.171173,700.267578 298.432434,695.255920 302.602112,682.444214 
	C299.491119,682.115784 296.440887,681.793762 292.997131,681.362305 
z"/>
<path fill="#1A0547" opacity="1.000000" stroke="none" 
	d="
M663.052368,641.456299 
	C680.864746,641.462830 698.187561,641.261475 715.502319,641.547058 
	C727.458252,641.744263 731.733215,648.583435 727.010559,659.779297 
	C734.034973,661.217773 740.864868,663.770691 739.802063,672.476440 
	C738.555664,682.686829 729.704041,681.680725 722.496399,682.305054 
	C723.038086,685.013123 723.853394,687.408691 723.935852,689.829224 
	C724.149475,696.098267 720.168579,700.135559 713.962830,699.441528 
	C687.000793,696.426453 660.062500,693.197693 633.122131,689.991455 
	C631.154175,689.757202 629.217590,689.156067 627.302368,688.601257 
	C621.490601,686.917480 618.367920,683.473938 617.863098,678.304321 
	C617.333191,672.878113 618.912781,670.355835 625.259705,666.927307 
	C622.868042,665.490417 620.614563,664.227844 618.456055,662.819702 
	C614.488708,660.231750 612.353149,656.746155 613.481812,651.833679 
	C614.666016,646.679565 617.856384,643.571228 623.167786,643.281372 
	C636.292419,642.565125 649.428101,642.051331 663.052368,641.456299 
z"/>
<path fill="#1B0748" opacity="1.000000" stroke="none" 
	d="
M759.818176,347.536621 
	C746.535278,369.105835 738.234802,392.320892 731.994263,416.360657 
	C726.705017,436.735809 723.924072,457.470825 723.733032,478.512756 
	C723.715881,480.402069 725.213684,482.783386 726.725220,484.132782 
	C739.012390,495.102051 751.848022,505.482086 763.785522,516.811890 
	C780.413086,532.592773 793.997314,550.893555 805.719116,570.978271 
	C806.401733,572.094482 806.809265,572.997742 807.186462,573.913452 
	C809.045898,578.427551 807.825562,582.621277 804.040161,584.755249 
	C800.190918,586.925232 795.964233,585.949707 793.097900,581.975098 
	C786.772644,573.204285 780.862732,564.116150 774.226685,555.590881 
	C757.488342,534.087219 736.515808,517.051514 714.473511,501.450531 
	C705.152344,494.853210 701.639832,487.846863 702.542908,476.127930 
	C706.238892,428.164734 719.301392,383.351288 744.250732,342.125305 
	C745.267639,340.444977 746.479187,338.100616 748.027222,337.694672 
	C750.807129,336.965637 754.313293,336.573944 756.787354,337.676422 
	C760.575928,339.364746 761.072998,343.261902 759.818176,347.536621 
z"/>
<path fill="#1B0748" opacity="1.000000" stroke="none" 
	d="
M231.802979,569.680969 
	C243.895935,549.686707 257.316406,531.057922 274.232941,515.311890 
	C285.792847,504.551819 297.938263,494.403229 310.109222,484.328369 
	C313.601654,481.437469 315.246307,478.736328 315.107086,474.035858 
	C313.769592,428.876434 302.754517,386.389832 280.406860,346.618042 
	C278.619232,340.494507 279.904541,336.871796 284.148163,335.016998 
	C288.438721,333.141663 292.002258,334.591064 295.210175,339.871552 
	C313.917480,370.665253 325.950653,404.001434 331.849457,439.439484 
	C334.191498,453.509766 334.713654,467.878723 336.205200,482.096893 
	C336.831635,488.068268 334.366699,492.011108 329.661407,495.598450 
	C315.634308,506.292969 301.625610,517.048340 288.150574,528.420715 
	C271.882660,542.150146 258.716644,558.704224 247.097748,576.494080 
	C246.642853,577.190613 246.237625,577.920166 245.769470,578.607239 
	C242.394577,583.560059 238.204376,584.961121 233.933151,582.578186 
	C229.559418,580.138062 228.792801,575.755127 231.802979,569.680969 
z"/>
<path fill="#F4F6EF" opacity="1.000000" stroke="none" 
	d="
M449.376282,585.762634 
	C454.692719,594.186340 453.725037,600.976562 446.432159,607.844604 
	C439.248688,614.609619 430.415955,617.959290 420.892334,619.400330 
	C406.318848,621.605408 392.174377,620.037903 379.590637,611.844971 
	C367.749573,604.135620 367.432312,593.042175 378.245667,583.864258 
	C385.687683,577.547729 394.419586,574.003662 403.958069,572.525452 
	C415.929321,570.670227 427.629547,571.960938 438.502533,577.420288 
	C442.411713,579.383057 445.614288,582.753174 449.376282,585.762634 
z"/>
<path fill="#F4F6EF" opacity="1.000000" stroke="none" 
	d="
M641.404846,618.612732 
	C626.030762,621.595642 611.547424,620.705505 597.954407,613.064331 
	C597.229614,612.656921 596.475891,612.292603 595.785400,611.833313 
	C580.222473,601.481384 580.883667,586.890686 597.311523,578.001343 
	C615.702820,568.049500 642.178711,570.290588 658.172974,583.153076 
	C670.372803,592.964111 669.679504,605.125671 656.132935,612.827026 
	C651.712646,615.339966 646.598572,616.632568 641.404846,618.612732 
z"/>
<path fill="#FC615F" opacity="1.000000" stroke="none" 
	d="
M722.586060,717.794189 
	C728.378235,704.756042 740.104004,701.025818 752.045593,698.355957 
	C764.632507,695.541748 777.134399,696.397156 788.938293,702.434326 
	C803.307007,709.783142 804.875427,724.892700 791.785095,734.367249 
	C779.422302,743.315247 765.422791,746.280701 750.200073,744.406860 
	C742.246582,743.427856 734.894897,741.373169 728.431580,736.600952 
	C722.363037,732.120300 720.213135,725.359619 722.586060,717.794189 
z"/>
<path fill="#FC615F" opacity="1.000000" stroke="none" 
	d="
M232.297424,732.702515 
	C221.739990,720.191589 224.030045,708.884888 238.376953,701.894531 
	C241.332367,700.454590 244.531631,699.330505 247.742706,698.630859 
	C264.382507,695.005432 280.056519,697.386902 294.491028,706.697021 
	C295.599670,707.412048 296.653717,708.246887 297.612427,709.153687 
	C308.655396,719.597656 306.937988,732.979370 293.099762,739.356018 
	C271.836151,749.154297 251.514801,746.659119 232.297424,732.702515 
z"/>
<path fill="#E4EFF0" opacity="1.000000" stroke="none" 
	d="
M437.400574,228.481476 
	C427.924591,228.731766 418.710022,229.849716 409.805481,228.655701 
	C399.938934,227.332718 391.499664,222.539490 388.817780,211.537231 
	C387.163788,204.751907 389.783997,199.088074 393.718750,193.985641 
	C404.028687,180.615997 418.414734,174.247772 434.475098,171.099197 
	C444.029877,169.226028 453.663696,169.114532 463.062439,171.990570 
	C482.474365,177.930649 486.869995,194.952698 472.843872,209.628220 
	C463.228241,219.689026 451.231476,225.376633 437.400574,228.481476 
z"/>
<path fill="#1C094A" opacity="1.000000" stroke="none" 
	d="
M550.797363,808.867188 
	C552.887451,807.452576 554.665283,806.223328 556.429749,804.975159 
	C561.275391,801.547180 565.599976,801.684631 568.304749,805.362732 
	C571.109253,809.176453 570.075562,813.273438 565.360779,816.842346 
	C544.178650,832.876099 520.571594,837.701782 495.192810,830.218018 
	C484.667847,827.114319 474.795410,821.605896 464.898590,816.647461 
	C460.207153,814.297058 459.250183,809.345215 461.677826,805.680908 
	C464.112915,802.005371 468.625977,801.501770 473.095428,804.427917 
	C491.039246,816.175903 510.327057,822.240662 531.747375,816.885315 
	C538.238953,815.262390 544.248535,811.711670 550.797363,808.867188 
z"/>
</svg>