<svg version="1.1" id="Layer_1" xmlns="http://www.w3.org/2000/svg" xmlns:xlink="http://www.w3.org/1999/xlink" x="0px" y="0px"
	 width="100%" viewBox="0 0 1080 1080" enable-background="new 0 0 1080 1080" xml:space="preserve">
<path fill="#000000" opacity="1.000000" stroke="none" 
	d="
M606.000000,1081.000000 
	C404.023254,1081.000000 202.546509,1081.000000 1.034878,1081.000000 
	C1.034878,721.064819 1.034878,361.129578 1.034878,1.097191 
	C360.893646,1.097191 720.787354,1.097191 1080.840576,1.097191 
	C1080.840576,360.999939 1080.840576,720.999939 1080.840576,1081.000000 
	C922.795837,1081.000000 764.647888,1081.000000 606.000000,1081.000000 
M229.264297,447.755310 
	C229.163132,448.184906 229.061966,448.614471 228.415268,449.499420 
	C217.656815,477.319183 209.508835,505.858154 204.489426,535.287476 
	C199.089722,566.946533 197.312164,598.774658 200.326157,630.759644 
	C203.791916,667.539001 213.501709,702.572205 230.307938,735.613831 
	C231.901047,738.745972 232.163300,743.659912 230.922256,746.945496 
	C223.953949,765.394165 218.553391,784.250488 216.633881,803.843567 
	C215.249023,817.979126 215.429626,832.268127 214.794022,847.486328 
	C216.936234,860.960571 219.078445,874.434875 221.013138,888.675293 
	C221.977386,891.849854 222.834732,895.061584 223.922394,898.193298 
	C235.213425,930.703979 255.277359,955.206726 288.456879,966.969299 
	C300.309265,971.171082 312.771790,973.635925 324.919739,977.023010 
	C361.773560,987.298584 399.569031,990.775452 437.552399,990.555908 
	C468.627472,990.376343 499.775391,988.672852 530.736023,985.908691 
	C586.832642,980.900269 642.092651,970.585938 696.492981,955.934387 
	C738.152710,944.714355 778.931763,930.977356 816.792786,909.929810 
	C831.430908,901.792175 845.294373,892.245605 859.344299,883.085693 
	C860.988098,882.014038 862.009338,879.431885 862.576843,877.347839 
	C872.726746,840.072632 884.853943,803.450867 902.051575,768.828003 
	C907.654602,757.547852 909.464539,747.317200 904.519958,735.206787 
	C894.831238,703.003235 880.042236,673.510376 858.529236,647.464050 
	C856.454590,644.952209 854.976074,640.634705 855.474487,637.515503 
	C860.158997,608.197754 860.322876,578.898010 855.792603,549.608887 
	C854.357727,540.331909 851.848328,531.221130 849.855591,521.246521 
	C848.705933,516.566895 847.735229,511.834808 846.379028,507.215820 
	C831.612671,456.922272 806.882202,411.842865 774.510254,370.846100 
	C759.422180,351.738129 743.162537,333.715973 723.662598,318.872955 
	C721.090332,316.915039 719.325562,316.618317 716.973022,319.119415 
	C704.218506,332.678955 690.986633,345.810516 678.671997,359.754425 
	C671.697510,367.651703 666.166504,376.823883 659.366577,385.728790 
	C659.217712,386.152588 659.068909,386.576416 658.988647,386.986450 
	C658.988647,386.986450 658.956116,386.924530 658.342346,387.219940 
	C635.815063,422.469788 616.760193,459.110321 612.012207,501.584808 
	C611.422302,506.861938 607.276733,510.054443 601.966675,510.130188 
	C599.808960,510.160980 597.638428,510.002197 595.488770,509.782379 
	C570.240051,507.200958 545.012756,506.545563 519.893555,511.006805 
	C509.866486,512.787659 499.910492,514.968445 490.000519,516.993713 
	C490.000519,516.993713 490.025940,516.914978 489.253632,516.783813 
	C488.045502,517.169617 486.837372,517.555420 484.873016,517.833435 
	C468.221008,523.944946 451.540955,529.981384 434.929688,536.201721 
	C427.450226,539.002563 422.698090,536.985840 419.054291,529.971191 
	C414.319153,520.855591 409.737122,511.532623 403.863922,503.158264 
	C378.877655,467.531677 346.819031,439.266174 310.341644,415.951752 
	C299.337280,408.918365 287.487366,403.207916 275.650391,396.320801 
	C272.053650,394.636047 268.364288,393.120636 264.886658,391.218231 
	C261.514099,389.373260 259.213470,389.800934 257.246338,393.252594 
	C252.165848,402.167084 246.462402,410.757019 241.862732,419.906403 
	C237.303268,428.975830 233.788086,438.570251 229.924988,447.960388 
	C229.924988,447.960388 229.931793,447.847504 229.264297,447.755310 
M777.292053,951.874756 
	C749.907410,960.619202 722.848083,970.606995 695.076416,977.871948 
	C615.743958,998.625183 535.000183,1010.380798 452.924774,1011.917603 
	C419.920685,1012.535522 387.004639,1010.760803 354.405548,1005.121277 
	C344.468964,1003.402222 334.607361,1001.250000 324.044434,999.164490 
	C330.123962,1013.517883 341.067535,1021.518677 354.979248,1027.244019 
	C357.113434,1028.156982 359.211761,1029.167480 361.387299,1029.968018 
	C386.221619,1039.105835 412.199005,1041.688354 438.332092,1042.639038 
	C476.497009,1044.027466 514.448059,1040.852783 552.310608,1036.197998 
	C592.267029,1031.285889 631.942078,1024.759644 671.214111,1015.925659 
	C711.359619,1006.895142 750.955261,996.018982 788.119324,977.857666 
	C806.298279,968.973999 823.557129,958.631226 836.745850,942.769165 
	C842.984314,935.266174 847.292603,926.917786 847.872803,916.383240 
	C841.622986,920.119019 836.133484,923.935913 830.199341,926.846252 
	C812.910095,935.325500 795.442993,943.442139 777.292053,951.874756 
M1007.971069,806.173523 
	C1009.857422,799.461060 1012.041382,792.815796 1013.574463,786.023560 
	C1018.235474,765.374268 1022.369324,744.658630 1020.052551,723.255005 
	C1018.319458,707.244080 1011.395874,697.556702 998.802551,694.623779 
	C990.723694,692.742249 983.320740,695.117737 976.425598,699.248718 
	C964.322876,706.499756 955.085693,716.789124 947.083923,728.136719 
	C922.082336,763.592163 903.423096,802.179993 891.030334,843.758545 
	C888.147034,853.432190 885.759216,863.253479 882.540771,873.474304 
	C879.827820,889.181458 876.673584,904.829407 874.558044,920.616638 
	C873.161072,931.041138 874.075562,941.594116 877.866333,951.620239 
	C882.041321,962.662476 890.378479,968.995361 901.329163,968.154358 
	C906.962036,967.721741 912.817200,965.933472 917.895691,963.401367 
	C929.132935,957.798523 937.622437,948.728088 945.046570,938.796021 
	C969.746887,905.751648 988.249451,869.476379 1000.904053,830.227661 
	C1003.390198,822.516785 1005.448242,814.667786 1007.971069,806.173523 
M197.297134,474.217072 
	C197.936523,472.532562 198.654587,470.873230 199.203384,469.159698 
	C206.590424,446.095306 215.161682,423.460785 227.211868,402.432068 
	C233.344421,391.730225 240.906982,381.764679 248.570099,372.055908 
	C252.797287,366.700287 258.890472,365.497437 265.626740,368.836426 
	C272.882812,372.433075 280.445923,375.410156 288.528168,379.010773 
	C349.072937,410.856750 400.582214,452.619446 435.347076,512.897949 
	C485.430054,491.263000 537.643127,482.977631 591.901123,488.100861 
	C593.888489,479.870270 595.318481,471.893799 597.742493,464.231842 
	C618.802551,397.664795 657.511169,342.903564 709.831299,297.287262 
	C715.035400,292.749969 720.826416,292.851440 725.948425,296.128571 
	C735.000854,301.920441 744.186035,307.833588 752.080139,315.047943 
	C780.665039,341.171448 803.767212,371.822632 823.716797,404.888947 
	C842.626221,436.231171 857.635925,469.341034 867.612671,504.606873 
	C873.472961,525.321899 877.505249,546.387817 879.072327,567.932861 
	C880.511353,587.716980 880.837952,607.462097 877.858887,627.087280 
	C876.803772,634.038025 878.697205,639.018372 882.765747,644.643799 
	C890.721069,655.643066 898.338135,667.074158 904.486633,679.145874 
	C912.244324,694.377197 918.394348,710.427490 924.616455,724.698975 
	C933.009644,715.272400 941.867065,704.232910 951.886353,694.374084 
	C962.218201,684.207703 974.915894,677.830261 990.241211,676.647827 
	C991.835205,661.562622 994.136292,646.627808 994.850769,631.617554 
	C996.402039,599.025696 994.756226,566.525757 988.907593,534.364380 
	C979.524414,482.766968 962.177124,434.087708 935.153564,388.978455 
	C908.149475,343.901794 873.763794,305.388885 831.938049,273.679169 
	C800.126343,249.561447 765.915100,229.524170 727.853455,215.316574 
	C726.028442,214.526749 724.234253,213.654694 722.374023,212.959030 
	C660.034363,189.646454 595.563782,180.037903 529.132202,182.580032 
	C479.845825,184.466064 431.591949,192.366364 384.525177,207.049683 
	C304.475159,232.022736 233.934357,272.936035 176.523315,334.589752 
	C97.982147,418.935089 60.263962,519.021973 63.630493,634.384460 
	C64.767387,673.343018 71.136986,711.483826 83.194809,748.510559 
	C88.513901,764.844238 95.670250,780.579712 102.035362,797.254333 
	C103.637688,800.513000 105.230331,803.776428 106.843842,807.029541 
	C126.956902,847.581787 152.980377,883.745972 187.189804,913.599609 
	C196.883865,922.059387 207.704208,929.228455 218.194916,937.446716 
	C218.367432,937.373962 218.539963,937.301147 218.712479,937.228333 
	C218.658585,937.122742 218.590759,936.921936 218.553131,936.927429 
	C218.344513,936.958008 218.143234,937.038696 218.549698,936.537537 
	C214.033218,927.140808 208.751511,918.028076 205.139328,908.295715 
	C192.768585,874.965210 190.804214,840.509277 194.910919,805.412903 
	C197.226913,785.620117 201.515839,766.349365 208.282089,747.660706 
	C209.721542,743.684875 209.467621,740.618408 207.705963,736.982239 
	C188.813080,697.986023 179.656281,656.590759 178.206421,613.463562 
	C177.760330,600.194275 177.912460,586.802368 179.190353,573.602112 
	C181.037155,554.525330 183.607697,535.475281 186.918777,516.597900 
	C189.388641,502.516541 193.518845,488.726440 197.297134,474.217072 
z"/>
<path fill="#E49D5B" opacity="1.000000" stroke="none" 
	d="
M276.024780,396.891449 
	C287.487366,403.207916 299.337280,408.918365 310.341644,415.951752 
	C346.819031,439.266174 378.877655,467.531677 403.863922,503.158264 
	C409.737122,511.532623 414.319153,520.855591 419.054291,529.971191 
	C422.698090,536.985840 427.450226,539.002563 434.929688,536.201721 
	C451.540955,529.981384 468.221008,523.944946 485.649109,517.826782 
	C487.625458,517.518433 488.825714,517.216736 490.025940,516.914978 
	C490.025940,516.914978 490.000519,516.993713 490.419312,516.975098 
	C496.299072,516.583557 501.763885,516.259399 507.220306,515.829285 
	C532.488098,513.837708 557.651611,514.494385 582.690491,518.648560 
	C594.298218,520.574402 605.916321,522.437866 617.532043,524.315063 
	C621.274414,524.919739 623.601318,523.763550 623.970642,519.559082 
	C624.463562,513.947998 625.163208,508.352203 625.891663,502.765198 
	C630.403992,468.158966 639.500732,434.797516 653.044128,402.632416 
	C655.213501,397.480133 656.995178,392.164581 658.956116,386.924530 
	C658.956116,386.924530 658.988647,386.986450 659.273193,386.858337 
	C659.700256,386.294098 659.842773,385.857971 659.985352,385.421875 
	C666.166504,376.823883 671.697510,367.651703 678.671997,359.754425 
	C690.986633,345.810516 704.218506,332.678955 716.973022,319.119415 
	C719.325562,316.618317 721.090332,316.915039 723.662598,318.872955 
	C743.162537,333.715973 759.422180,351.738129 774.510254,370.846100 
	C806.882202,411.842865 831.612671,456.922272 846.379028,507.215820 
	C847.735229,511.834808 848.705933,516.566895 849.582520,521.917664 
	C849.229980,523.244019 849.014954,523.915344 849.090820,524.552002 
	C851.232544,542.525696 852.438599,560.453979 851.250366,578.644775 
	C849.493530,605.540527 844.051636,631.197998 830.700500,654.867981 
	C829.972717,656.158325 829.324768,658.250916 829.866089,659.384277 
	C836.316650,672.888000 840.452820,687.133850 841.303833,701.957520 
	C842.165466,716.967224 842.139465,732.104797 841.247925,747.111816 
	C840.633545,757.453186 837.883057,767.667725 835.890503,778.034241 
	C835.419495,778.260193 835.221191,778.464600 834.678711,778.790955 
	C823.221802,780.201599 812.219360,782.086060 801.140930,782.815613 
	C779.553589,784.237122 758.393677,780.155334 737.269226,776.498901 
	C701.507629,770.308960 666.815369,759.800781 631.897339,750.171448 
	C620.416199,747.005249 608.518372,745.350342 596.458008,742.943176 
	C593.296997,741.944336 590.553894,740.548828 587.670959,740.140686 
	C562.370850,736.559082 538.119690,740.062439 515.219177,751.608521 
	C512.035339,753.213745 509.296661,755.701965 505.961914,757.808105 
	C497.451782,762.369995 489.121796,766.570007 481.248932,771.499939 
	C451.786407,789.949341 422.770630,809.130859 393.001923,827.066162 
	C372.510071,839.412292 351.193939,850.368896 328.154968,857.628418 
	C302.714264,865.644653 277.087189,867.809570 250.937714,861.968750 
	C237.957703,859.069458 226.208664,853.305481 214.912018,846.488647 
	C215.429626,832.268127 215.249023,817.979126 216.633881,803.843567 
	C218.553391,784.250488 223.953949,765.394165 230.922256,746.945496 
	C232.163300,743.659912 231.901047,738.745972 230.307938,735.613831 
	C213.501709,702.572205 203.791916,667.539001 200.326157,630.759644 
	C197.312164,598.774658 199.089722,566.946533 204.489426,535.287476 
	C209.508835,505.858154 217.656815,477.319183 228.942490,449.159546 
	C229.623734,448.495605 229.777771,448.171570 229.931793,447.847504 
	C229.931793,447.847504 229.924988,447.960388 230.212357,447.887268 
	C234.295868,444.370483 238.487961,441.269348 241.816452,437.421173 
	C253.380981,424.051178 264.645905,410.422028 276.024780,396.891449 
M815.959106,582.270752 
	C829.523560,556.417053 825.684509,530.230835 818.095154,503.972931 
	C817.392578,503.471283 816.689941,502.969666 815.987366,502.468018 
	C813.432434,506.015656 810.877441,509.563324 807.668396,514.019165 
	C806.848633,510.471588 806.367249,508.591888 805.982300,506.692657 
	C800.087097,477.609375 790.146912,450.035980 775.114197,424.389862 
	C763.958923,405.358612 751.225891,387.531128 734.817810,371.769135 
	C735.170898,364.507355 730.660156,359.831909 724.941711,362.233887 
	C722.435120,363.286774 720.083374,366.273712 719.004700,368.928284 
	C700.119385,415.405029 694.550049,463.626160 700.374390,513.334229 
	C701.067078,519.245667 703.539062,523.301208 708.998474,525.622925 
	C710.827515,526.400818 712.527527,527.479309 714.296936,528.400391 
	C740.329468,541.951904 765.803955,556.358521 787.026245,577.070435 
	C792.979431,582.880493 798.347229,589.307312 804.483337,594.903259 
	C806.477966,596.722412 810.442261,598.046021 812.813110,597.323608 
	C815.219849,596.590332 817.779968,593.285889 818.390015,590.668640 
	C818.911682,588.430786 816.766907,585.571411 815.959106,582.270752 
M266.606506,447.287445 
	C243.701813,491.177795 235.935501,537.985229 239.705078,587.009155 
	C240.076111,591.834534 240.565628,596.650818 241.022324,601.717346 
	C236.902054,599.817322 233.368652,598.187866 229.427429,596.370422 
	C229.134018,597.953491 228.872940,598.723572 228.865417,599.496094 
	C228.684280,618.087646 231.802124,636.113892 240.661835,652.519409 
	C244.424454,659.486572 250.575195,665.164124 255.524017,672.047058 
	C253.188934,678.401001 254.506882,682.500671 259.498474,684.410400 
	C264.119537,686.178223 267.914307,683.990723 270.624573,678.035461 
	C272.551483,673.801575 274.458710,669.557434 276.470734,665.363953 
	C290.503571,636.115723 311.173126,611.817444 334.209412,589.499939 
	C342.067261,581.887329 344.808228,574.737122 342.208649,563.630371 
	C331.291321,516.986084 311.738861,474.784973 280.797729,438.045929 
	C276.959625,433.488647 273.037415,432.519531 269.115173,434.912231 
	C265.320007,437.227417 264.677094,441.024445 266.606506,447.287445 
M464.082794,719.495422 
	C461.937225,706.556274 455.523407,696.156738 445.115295,688.295776 
	C413.355255,664.308167 363.402710,681.530090 352.931885,720.021362 
	C346.204681,744.750854 357.711945,769.215942 381.013123,779.499451 
	C395.567383,785.922607 410.381653,785.965088 425.308319,780.844788 
	C451.298187,771.929504 468.140656,745.724609 464.082794,719.495422 
M692.487671,738.009705 
	C696.857788,737.024353 701.400696,736.508240 705.568542,734.973694 
	C725.146057,727.765259 738.318359,714.393616 741.573303,693.414856 
	C744.679016,673.397949 736.790100,657.163879 720.996887,644.889038 
	C700.768250,629.166748 671.129944,628.515625 649.930420,642.982178 
	C624.721619,660.184753 619.451904,693.519592 638.763428,716.866150 
	C652.378845,733.326477 670.445190,739.861877 692.487671,738.009705 
M394.604462,622.097290 
	C393.007935,624.005798 391.216492,625.784851 389.848511,627.845154 
	C383.736847,637.049744 385.962646,645.958984 395.683105,651.263062 
	C397.709900,652.369019 399.894836,653.306152 402.118408,653.911194 
	C417.675964,658.143982 432.930847,657.054321 447.072937,649.326782 
	C453.017731,646.078430 458.769135,641.467224 462.909546,636.152100 
	C469.860168,627.229431 466.986267,617.312744 456.899780,612.086975 
	C453.406036,610.276917 449.550964,608.863159 445.696320,608.101868 
	C426.693604,604.348694 409.831177,609.062012 394.604462,622.097290 
M594.841858,602.280457 
	C595.449219,609.451050 600.097534,613.765747 605.989807,616.489014 
	C627.628296,626.489807 648.200378,623.320129 667.115295,609.752258 
	C679.784546,600.664490 678.317444,587.228455 664.410522,580.108765 
	C644.332153,569.829468 624.772034,572.117188 606.212280,583.827454 
	C600.081238,587.695801 594.547729,592.943237 594.841858,602.280457 
M291.152557,795.466797 
	C288.248566,797.085815 285.165527,798.452820 282.471130,800.366821 
	C269.707428,809.433777 269.554077,823.443909 282.015564,831.361633 
	C298.177338,841.630615 327.826569,839.963440 342.500214,827.960632 
	C351.428497,820.657471 353.577026,812.247925 347.832367,804.048767 
	C345.648651,800.932007 342.197693,798.304993 338.768219,796.527649 
	C323.437805,788.582947 307.669525,789.936523 291.152557,795.466797 
M796.613892,711.992432 
	C784.030212,714.026367 772.612183,718.398621 763.550171,727.865173 
	C758.644836,732.989441 755.613464,738.735596 757.528381,745.862122 
	C759.543396,753.361206 765.380676,757.006531 772.459351,759.085510 
	C786.686279,763.263794 800.197815,760.310120 813.060181,754.275330 
	C822.032959,750.065369 829.879822,744.190247 833.209595,733.981628 
	C834.701904,729.406555 834.336792,724.956299 831.049866,721.888733 
	C827.274292,718.365051 822.833740,714.567383 818.054138,713.345886 
	C811.513977,711.674561 804.381958,712.319092 796.613892,711.992432 
z"/>
<path fill="#38A1F4" opacity="1.000000" stroke="none" 
	d="
M728.157471,215.986359 
	C765.915100,229.524170 800.126343,249.561447 831.938049,273.679169 
	C873.763794,305.388885 908.149475,343.901794 935.153564,388.978455 
	C962.177124,434.087708 979.524414,482.766968 988.907593,534.364380 
	C994.756226,566.525757 996.402039,599.025696 994.850769,631.617554 
	C994.136292,646.627808 991.835205,661.562622 990.241211,676.647827 
	C974.915894,677.830261 962.218201,684.207703 951.886353,694.374084 
	C941.867065,704.232910 933.009644,715.272400 924.616455,724.698975 
	C918.394348,710.427490 912.244324,694.377197 904.486633,679.145874 
	C898.338135,667.074158 890.721069,655.643066 882.765747,644.643799 
	C878.697205,639.018372 876.803772,634.038025 877.858887,627.087280 
	C880.837952,607.462097 880.511353,587.716980 879.072327,567.932861 
	C877.505249,546.387817 873.472961,525.321899 867.612671,504.606873 
	C857.635925,469.341034 842.626221,436.231171 823.716797,404.888947 
	C803.767212,371.822632 780.665039,341.171448 752.080139,315.047943 
	C744.186035,307.833588 735.000854,301.920441 725.948425,296.128571 
	C720.826416,292.851440 715.035400,292.749969 709.831299,297.287262 
	C657.511169,342.903564 618.802551,397.664795 597.742493,464.231842 
	C595.318481,471.893799 593.888489,479.870270 591.901123,488.100861 
	C537.643127,482.977631 485.430054,491.263000 435.347076,512.897949 
	C400.582214,452.619446 349.072937,410.856750 288.363281,378.542847 
	C292.510742,369.838226 297.232269,361.786041 301.047119,353.325043 
	C308.202881,337.454193 313.078430,321.027008 312.051636,303.234619 
	C311.245758,289.269501 303.196106,279.019653 289.542053,275.768707 
	C287.282532,275.230713 284.955963,274.974243 282.116119,274.496033 
	C283.532288,273.552673 284.330017,272.962250 285.181061,272.462738 
	C366.323822,224.839767 453.844513,198.223343 547.861877,194.269913 
	C573.062805,193.210220 598.461914,194.505508 623.657349,196.301407 
	C651.789185,198.306610 679.489258,203.818130 706.850769,210.791870 
	C713.934143,212.597244 721.054260,214.258759 728.157471,215.986359 
M422.581573,294.094696 
	C426.916931,288.886749 432.082611,284.157867 435.419495,278.373871 
	C443.007843,265.220612 437.383972,252.610931 422.769806,248.506668 
	C420.072998,247.749283 417.226471,247.159760 414.443054,247.133698 
	C392.382690,246.927155 373.990082,255.338516 359.260437,271.565033 
	C353.694855,277.696198 349.382874,284.972748 350.538849,293.621063 
	C352.278442,306.635559 364.193695,311.698029 376.238129,311.556641 
	C393.334991,311.355927 408.795563,305.671295 422.581573,294.094696 
z"/>
<path fill="#F4F7F0" opacity="1.000000" stroke="none" 
	d="
M596.811035,743.004395 
	C608.518372,745.350342 620.416199,747.005249 631.897339,750.171448 
	C666.815369,759.800781 701.507629,770.308960 737.269226,776.498901 
	C758.393677,780.155334 779.553589,784.237122 801.140930,782.815613 
	C812.219360,782.086060 823.221802,780.201599 834.673889,779.215759 
	C834.983093,780.417786 834.988464,781.276245 834.754822,782.063782 
	C821.746765,825.897949 797.257202,861.919434 761.088318,889.912292 
	C724.745850,918.039612 682.959656,933.983826 638.421814,942.807678 
	C613.538025,947.737671 588.275330,950.965759 563.066223,953.980896 
	C540.646484,956.662354 518.095581,959.035034 495.548676,959.691895 
	C455.133484,960.869141 414.698242,960.983704 374.461365,955.184265 
	C344.892517,950.922424 315.897430,944.696655 288.149261,933.480652 
	C265.393280,924.282654 244.624954,911.907532 227.523712,893.960022 
	C225.516571,891.853577 223.326126,889.921875 221.220657,887.909119 
	C219.078445,874.434875 216.936234,860.960571 214.853027,846.987488 
	C226.208664,853.305481 237.957703,859.069458 250.937714,861.968750 
	C277.087189,867.809570 302.714264,865.644653 328.154968,857.628418 
	C351.193939,850.368896 372.510071,839.412292 393.001923,827.066162 
	C422.770630,809.130859 451.786407,789.949341 481.248932,771.499939 
	C489.121796,766.570007 497.451782,762.369995 505.816406,758.210205 
	C506.754456,760.724731 506.935272,763.268250 508.241394,764.924133 
	C511.630096,769.220276 515.136841,773.568604 519.278442,777.095398 
	C527.948547,784.478516 537.057068,791.346802 546.261230,798.645020 
	C540.736023,810.230957 530.789978,816.779114 518.349915,820.061890 
	C508.528046,822.653748 499.180176,820.691162 490.259216,816.411804 
	C486.683411,814.696533 483.389771,812.389587 479.982269,810.327881 
	C476.159698,808.015015 472.178467,808.552429 469.706818,811.746216 
	C467.212463,814.969421 467.562012,819.035217 471.176178,821.901733 
	C479.788910,828.732544 489.607605,833.119507 500.454376,834.936951 
	C503.712677,835.482849 505.404633,836.234131 506.284698,840.072083 
	C509.953766,856.072876 519.086060,868.140808 535.224426,872.753174 
	C558.647644,879.447510 581.204590,875.616455 601.934631,863.260559 
	C614.546387,855.743469 619.924683,843.625549 619.010742,828.912842 
	C618.796631,825.466492 618.253540,822.040588 617.850403,818.505554 
	C630.893616,813.690735 641.204163,805.599060 649.217285,794.564514 
	C652.870728,789.533508 652.640686,785.606140 648.696594,782.856873 
	C644.953186,780.247375 641.436035,781.527344 637.520325,785.633240 
	C632.506714,790.890198 627.488403,796.463074 621.486084,800.394470 
	C605.840942,810.641724 583.102051,807.147583 571.398987,793.441589 
	C572.251770,792.448975 573.133728,791.461853 573.972717,790.439453 
	C583.316101,779.053650 591.276367,766.793823 596.342285,752.913208 
	C597.424377,749.948181 596.702026,746.324585 596.811035,743.004395 
z"/>
<path fill="#38A1F4" opacity="1.000000" stroke="none" 
	d="
M218.008026,936.989441 
	C207.704208,929.228455 196.883865,922.059387 187.189804,913.599609 
	C152.980377,883.745972 126.956902,847.581787 106.843842,807.029541 
	C105.230331,803.776428 103.637688,800.513000 102.046341,796.471497 
	C101.835785,794.383301 101.702156,793.055786 101.380013,791.775696 
	C90.320732,747.833923 83.910469,703.176392 82.157219,657.948059 
	C80.925407,626.171326 82.308754,594.433594 86.792000,562.850159 
	C91.027550,533.011719 97.868515,503.868225 107.993721,475.492188 
	C108.427963,474.275177 109.135674,473.155762 110.234177,470.950684 
	C113.907196,486.508209 123.165642,494.568604 137.522308,495.262054 
	C144.974487,495.621979 153.047852,494.665283 159.966385,492.018372 
	C172.623199,487.176147 184.631088,480.637665 196.909622,474.806641 
	C193.518845,488.726440 189.388641,502.516541 186.918777,516.597900 
	C183.607697,535.475281 181.037155,554.525330 179.190353,573.602112 
	C177.912460,586.802368 177.760330,600.194275 178.206421,613.463562 
	C179.656281,656.590759 188.813080,697.986023 207.705963,736.982239 
	C209.467621,740.618408 209.721542,743.684875 208.282089,747.660706 
	C201.515839,766.349365 197.226913,785.620117 194.910919,805.412903 
	C190.804214,840.509277 192.768585,874.965210 205.139328,908.295715 
	C208.751511,918.028076 214.033218,927.140808 218.260071,936.790649 
	C217.970428,937.043762 218.008041,936.989441 218.008026,936.989441 
z"/>
<path fill="#E3EFEF" opacity="1.000000" stroke="none" 
	d="
M197.103363,474.511841 
	C184.631088,480.637665 172.623199,487.176147 159.966385,492.018372 
	C153.047852,494.665283 144.974487,495.621979 137.522308,495.262054 
	C123.165642,494.568604 113.907196,486.508209 110.234177,470.950684 
	C109.135674,473.155762 108.427963,474.275177 107.993721,475.492188 
	C97.868515,503.868225 91.027550,533.011719 86.792000,562.850159 
	C82.308754,594.433594 80.925407,626.171326 82.157219,657.948059 
	C83.910469,703.176392 90.320732,747.833923 101.380013,791.775696 
	C101.702156,793.055786 101.835785,794.383301 102.024902,796.137695 
	C95.670250,780.579712 88.513901,764.844238 83.194809,748.510559 
	C71.136986,711.483826 64.767387,673.343018 63.630493,634.384460 
	C60.263962,519.021973 97.982147,418.935089 176.523315,334.589752 
	C233.934357,272.936035 304.475159,232.022736 384.525177,207.049683 
	C431.591949,192.366364 479.845825,184.466064 529.132202,182.580032 
	C595.563782,180.037903 660.034363,189.646454 722.374023,212.959030 
	C724.234253,213.654694 726.028442,214.526749 728.005493,215.651459 
	C721.054260,214.258759 713.934143,212.597244 706.850769,210.791870 
	C679.489258,203.818130 651.789185,198.306610 623.657349,196.301407 
	C598.461914,194.505508 573.062805,193.210220 547.861877,194.269913 
	C453.844513,198.223343 366.323822,224.839767 285.181061,272.462738 
	C284.330017,272.962250 283.532288,273.552673 282.116119,274.496033 
	C284.955963,274.974243 287.282532,275.230713 289.542053,275.768707 
	C303.196106,279.019653 311.245758,289.269501 312.051636,303.234619 
	C313.078430,321.027008 308.202881,337.454193 301.047119,353.325043 
	C297.232269,361.786041 292.510742,369.838226 288.036743,378.366272 
	C280.445923,375.410156 272.882812,372.433075 265.626740,368.836426 
	C258.890472,365.497437 252.797287,366.700287 248.570099,372.055908 
	C240.906982,381.764679 233.344421,391.730225 227.211868,402.432068 
	C215.161682,423.460785 206.590424,446.095306 199.203384,469.159698 
	C198.654587,470.873230 197.936523,472.532562 197.103363,474.511841 
z"/>
<path fill="#AAACA7" opacity="1.000000" stroke="none" 
	d="
M221.116898,888.292236 
	C223.326126,889.921875 225.516571,891.853577 227.523712,893.960022 
	C244.624954,911.907532 265.393280,924.282654 288.149261,933.480652 
	C315.897430,944.696655 344.892517,950.922424 374.461365,955.184265 
	C414.698242,960.983704 455.133484,960.869141 495.548676,959.691895 
	C518.095581,959.035034 540.646484,956.662354 563.066223,953.980896 
	C588.275330,950.965759 613.538025,947.737671 638.421814,942.807678 
	C682.959656,933.983826 724.745850,918.039612 761.088318,889.912292 
	C797.257202,861.919434 821.746765,825.897949 834.754822,782.063782 
	C834.988464,781.276245 834.983093,780.417786 835.094055,779.167603 
	C835.221191,778.464600 835.419495,778.260193 836.278564,778.055908 
	C861.807678,772.271729 882.778870,759.857483 899.790894,740.736145 
	C901.301636,739.038086 902.987671,737.495972 904.592285,735.881348 
	C909.464539,747.317200 907.654602,757.547852 902.051575,768.828003 
	C884.853943,803.450867 872.726746,840.072632 862.576843,877.347839 
	C862.009338,879.431885 860.988098,882.014038 859.344299,883.085693 
	C845.294373,892.245605 831.430908,901.792175 816.792786,909.929810 
	C778.931763,930.977356 738.152710,944.714355 696.492981,955.934387 
	C642.092651,970.585938 586.832642,980.900269 530.736023,985.908691 
	C499.775391,988.672852 468.627472,990.376343 437.552399,990.555908 
	C399.569031,990.775452 361.773560,987.298584 324.919739,977.023010 
	C312.771790,973.635925 300.309265,971.171082 288.456879,966.969299 
	C255.277359,955.206726 235.213425,930.703979 223.922394,898.193298 
	C222.834732,895.061584 221.977386,891.849854 221.116898,888.292236 
z"/>
<path fill="#F3F6EF" opacity="1.000000" stroke="none" 
	d="
M883.143433,873.006897 
	C885.759216,863.253479 888.147034,853.432190 891.030334,843.758545 
	C903.423096,802.179993 922.082336,763.592163 947.083923,728.136719 
	C955.085693,716.789124 964.322876,706.499756 976.425598,699.248718 
	C983.320740,695.117737 990.723694,692.742249 998.802551,694.623779 
	C1011.395874,697.556702 1018.319458,707.244080 1020.052551,723.255005 
	C1022.369324,744.658630 1018.235474,765.374268 1013.574463,786.023560 
	C1012.041382,792.815796 1009.857422,799.461060 1007.500366,806.545166 
	C1005.359192,808.958740 1003.600342,810.935303 1002.032166,813.052979 
	C987.018311,833.327332 970.813354,852.439392 949.209961,866.116455 
	C933.283447,876.199402 916.212891,881.942749 897.121094,877.868164 
	C892.334045,876.846497 887.795959,874.658752 883.143433,873.006897 
z"/>
<path fill="#38A0F2" opacity="1.000000" stroke="none" 
	d="
M354.560364,1026.722290 
	C341.067535,1021.518677 330.123962,1013.517883 324.044434,999.164490 
	C334.607361,1001.250000 344.468964,1003.402222 354.405548,1005.121277 
	C387.004639,1010.760803 419.920685,1012.535522 452.924774,1011.917603 
	C535.000183,1010.380798 615.743958,998.625183 695.076416,977.871948 
	C722.848083,970.606995 749.907410,960.619202 777.539062,952.117249 
	C769.755615,959.290344 762.328918,967.120422 753.585876,972.989380 
	C722.724670,993.705261 687.686279,1004.418823 651.980835,1012.810120 
	C616.895813,1021.055664 581.304993,1026.673706 545.299988,1029.054810 
	C516.797974,1030.939697 488.278503,1032.946167 459.735321,1033.688232 
	C440.494019,1034.188232 421.188568,1032.772095 401.930573,1031.830200 
	C393.329803,1031.409668 384.774536,1030.052734 376.199493,1029.112671 
	C368.985779,1028.321899 361.773376,1027.519531 354.560364,1026.722290 
z"/>
<path fill="#AAACA7" opacity="1.000000" stroke="none" 
	d="
M882.842102,873.240601 
	C887.795959,874.658752 892.334045,876.846497 897.121094,877.868164 
	C916.212891,881.942749 933.283447,876.199402 949.209961,866.116455 
	C970.813354,852.439392 987.018311,833.327332 1002.032166,813.052979 
	C1003.600342,810.935303 1005.359192,808.958740 1007.366699,806.899658 
	C1005.448242,814.667786 1003.390198,822.516785 1000.904053,830.227661 
	C988.249451,869.476379 969.746887,905.751648 945.046570,938.796021 
	C937.622437,948.728088 929.132935,957.798523 917.895691,963.401367 
	C912.817200,965.933472 906.962036,967.721741 901.329163,968.154358 
	C890.378479,968.995361 882.041321,962.662476 877.866333,951.620239 
	C874.075562,941.594116 873.161072,931.041138 874.558044,920.616638 
	C876.673584,904.829407 879.827820,889.181458 882.842102,873.240601 
z"/>
<path fill="#A06E40" opacity="1.000000" stroke="none" 
	d="
M904.556152,735.544067 
	C902.987671,737.495972 901.301636,739.038086 899.790894,740.736145 
	C882.778870,759.857483 861.807678,772.271729 836.475281,777.960571 
	C837.883057,767.667725 840.633545,757.453186 841.247925,747.111816 
	C842.139465,732.104797 842.165466,716.967224 841.303833,701.957520 
	C840.452820,687.133850 836.316650,672.888000 829.866089,659.384277 
	C829.324768,658.250916 829.972717,656.158325 830.700500,654.867981 
	C844.051636,631.197998 849.493530,605.540527 851.250366,578.644775 
	C852.438599,560.453979 851.232544,542.525696 849.090820,524.552002 
	C849.014954,523.915344 849.229980,523.244019 849.570068,522.311584 
	C851.848328,531.221130 854.357727,540.331909 855.792603,549.608887 
	C860.322876,578.898010 860.158997,608.197754 855.474487,637.515503 
	C854.976074,640.634705 856.454590,644.952209 858.529236,647.464050 
	C880.042236,673.510376 894.831238,703.003235 904.556152,735.544067 
z"/>
<path fill="#226091" opacity="1.000000" stroke="none" 
	d="
M354.769806,1026.983154 
	C361.773376,1027.519531 368.985779,1028.321899 376.199493,1029.112671 
	C384.774536,1030.052734 393.329803,1031.409668 401.930573,1031.830200 
	C421.188568,1032.772095 440.494019,1034.188232 459.735321,1033.688232 
	C488.278503,1032.946167 516.797974,1030.939697 545.299988,1029.054810 
	C581.304993,1026.673706 616.895813,1021.055664 651.980835,1012.810120 
	C687.686279,1004.418823 722.724670,993.705261 753.585876,972.989380 
	C762.328918,967.120422 769.755615,959.290344 777.915771,952.030334 
	C795.442993,943.442139 812.910095,935.325500 830.199341,926.846252 
	C836.133484,923.935913 841.622986,920.119019 847.872803,916.383240 
	C847.292603,926.917786 842.984314,935.266174 836.745850,942.769165 
	C823.557129,958.631226 806.298279,968.973999 788.119324,977.857666 
	C750.955261,996.018982 711.359619,1006.895142 671.214111,1015.925659 
	C631.942078,1024.759644 592.267029,1031.285889 552.310608,1036.197998 
	C514.448059,1040.852783 476.497009,1044.027466 438.332092,1042.639038 
	C412.199005,1041.688354 386.221619,1039.105835 361.387299,1029.968018 
	C359.211761,1029.167480 357.113434,1028.156982 354.769806,1026.983154 
z"/>
<path fill="#EDD9BF" opacity="1.000000" stroke="none" 
	d="
M658.649231,387.072235 
	C656.995178,392.164581 655.213501,397.480133 653.044128,402.632416 
	C639.500732,434.797516 630.403992,468.158966 625.891663,502.765198 
	C625.163208,508.352203 624.463562,513.947998 623.970642,519.559082 
	C623.601318,523.763550 621.274414,524.919739 617.532043,524.315063 
	C605.916321,522.437866 594.298218,520.574402 582.690491,518.648560 
	C557.651611,514.494385 532.488098,513.837708 507.220306,515.829285 
	C501.763885,516.259399 496.299072,516.583557 490.380127,516.961792 
	C499.910492,514.968445 509.866486,512.787659 519.893555,511.006805 
	C545.012756,506.545563 570.240051,507.200958 595.488770,509.782379 
	C597.638428,510.002197 599.808960,510.160980 601.966675,510.130188 
	C607.276733,510.054443 611.422302,506.861938 612.012207,501.584808 
	C616.760193,459.110321 635.815063,422.469788 658.649231,387.072235 
z"/>
<path fill="#EDD9C0" opacity="1.000000" stroke="none" 
	d="
M275.837585,396.606140 
	C264.645905,410.422028 253.380981,424.051178 241.816452,437.421173 
	C238.487961,441.269348 234.295868,444.370483 230.157318,447.874268 
	C233.788086,438.570251 237.303268,428.975830 241.862732,419.906403 
	C246.462402,410.757019 252.165848,402.167084 257.246338,393.252594 
	C259.213470,389.800934 261.514099,389.373260 264.886658,391.218231 
	C268.364288,393.120636 272.053650,394.636047 275.837585,396.606140 
z"/>
<path fill="#EDD9BF" opacity="1.000000" stroke="none" 
	d="
M489.639771,516.849365 
	C488.825714,517.216736 487.625458,517.518433 486.027222,517.880737 
	C486.837372,517.555420 488.045502,517.169617 489.639771,516.849365 
z"/>
<path fill="#EDD9BF" opacity="1.000000" stroke="none" 
	d="
M659.675903,385.575317 
	C659.842773,385.857971 659.700256,386.294098 659.238892,386.865234 
	C659.068909,386.576416 659.217712,386.152588 659.675903,385.575317 
z"/>
<path fill="#38A1F4" opacity="1.000000" stroke="none" 
	d="
M217.954926,937.072998 
	C218.143234,937.038696 218.344513,936.958008 218.553131,936.927429 
	C218.590759,936.921936 218.658585,937.122742 218.712494,937.228333 
	C218.539963,937.301147 218.367432,937.373962 218.101471,937.218079 
	C218.008041,936.989441 217.970428,937.043762 217.954926,937.072998 
z"/>
<path fill="#EDD9C0" opacity="1.000000" stroke="none" 
	d="
M229.598053,447.801392 
	C229.777771,448.171570 229.623734,448.495605 229.215256,448.931885 
	C229.061966,448.614471 229.163132,448.184906 229.598053,447.801392 
z"/>
<path fill="#F3F6EF" opacity="1.000000" stroke="none" 
	d="
M255.640594,671.427734 
	C250.575195,665.164124 244.424454,659.486572 240.661835,652.519409 
	C231.802124,636.113892 228.684280,618.087646 228.865417,599.496094 
	C228.872940,598.723572 229.134018,597.953491 229.427429,596.370422 
	C233.368652,598.187866 236.902054,599.817322 241.022324,601.717346 
	C240.565628,596.650818 240.076111,591.834534 239.705078,587.009155 
	C235.935501,537.985229 243.701813,491.177795 267.161774,447.193542 
	C295.226593,481.913086 312.613708,521.289368 321.240143,564.735229 
	C322.283875,569.991943 321.116425,573.309021 317.594299,577.044617 
	C291.390717,604.836121 269.196655,635.311279 255.640594,671.427734 
z"/>
<path fill="#F3F6EF" opacity="1.000000" stroke="none" 
	d="
M734.840820,372.552399 
	C751.225891,387.531128 763.958923,405.358612 775.114197,424.389862 
	C790.146912,450.035980 800.087097,477.609375 805.982300,506.692657 
	C806.367249,508.591888 806.848633,510.471588 807.668396,514.019165 
	C810.877441,509.563324 813.432434,506.015656 815.987366,502.468018 
	C816.689941,502.969666 817.392578,503.471283 818.095154,503.972931 
	C825.684509,530.230835 829.523560,556.417053 815.588379,582.499878 
	C809.660339,576.533691 804.284790,570.163269 798.513367,564.174438 
	C777.379395,542.244019 752.065674,525.988403 725.667725,511.310883 
	C721.833679,509.179169 720.424988,506.613647 719.903870,502.439392 
	C716.372131,474.147369 716.546204,445.888000 722.217773,417.971954 
	C725.338501,402.611267 730.564148,387.678253 734.840820,372.552399 
z"/>
<path fill="#030202" opacity="1.000000" stroke="none" 
	d="
M596.458008,742.943176 
	C596.702026,746.324585 597.424377,749.948181 596.342285,752.913208 
	C591.276367,766.793823 583.316101,779.053650 573.972717,790.439453 
	C573.133728,791.461853 572.251770,792.448975 571.398987,793.441589 
	C583.102051,807.147583 605.840942,810.641724 621.486084,800.394470 
	C627.488403,796.463074 632.506714,790.890198 637.520325,785.633240 
	C641.436035,781.527344 644.953186,780.247375 648.696594,782.856873 
	C652.640686,785.606140 652.870728,789.533508 649.217285,794.564514 
	C641.204163,805.599060 630.893616,813.690735 617.850403,818.505554 
	C618.253540,822.040588 618.796631,825.466492 619.010742,828.912842 
	C619.924683,843.625549 614.546387,855.743469 601.934631,863.260559 
	C581.204590,875.616455 558.647644,879.447510 535.224426,872.753174 
	C519.086060,868.140808 509.953766,856.072876 506.284698,840.072083 
	C505.404633,836.234131 503.712677,835.482849 500.454376,834.936951 
	C489.607605,833.119507 479.788910,828.732544 471.176178,821.901733 
	C467.562012,819.035217 467.212463,814.969421 469.706818,811.746216 
	C472.178467,808.552429 476.159698,808.015015 479.982269,810.327881 
	C483.389771,812.389587 486.683411,814.696533 490.259216,816.411804 
	C499.180176,820.691162 508.528046,822.653748 518.349915,820.061890 
	C530.789978,816.779114 540.736023,810.230957 546.261230,798.645020 
	C537.057068,791.346802 527.948547,784.478516 519.278442,777.095398 
	C515.136841,773.568604 511.630096,769.220276 508.241394,764.924133 
	C506.935272,763.268250 506.754456,760.724731 506.206421,758.183533 
	C509.296661,755.701965 512.035339,753.213745 515.219177,751.608521 
	C538.119690,740.062439 562.370850,736.559082 587.670959,740.140686 
	C590.553894,740.548828 593.296997,741.944336 596.458008,742.943176 
M546.074524,841.555115 
	C541.184631,846.690918 536.294800,851.826660 530.704468,857.698120 
	C534.210693,859.599731 536.626526,861.697144 539.345337,862.220520 
	C544.994995,863.308044 550.853394,864.351196 556.540222,864.004517 
	C571.784241,863.075134 586.568481,860.040405 598.840881,850.004517 
	C607.565857,842.869690 610.819092,831.150818 607.491211,821.552063 
	C600.139099,820.686646 593.096069,819.741333 586.025269,819.103516 
	C584.162537,818.935486 581.904602,819.206482 580.354492,820.145081 
	C569.030334,827.001587 557.840393,834.079590 546.074524,841.555115 
z"/>
<path fill="#010101" opacity="1.000000" stroke="none" 
	d="
M464.150665,719.922974 
	C468.140656,745.724609 451.298187,771.929504 425.308319,780.844788 
	C410.381653,785.965088 395.567383,785.922607 381.013123,779.499451 
	C357.711945,769.215942 346.204681,744.750854 352.931885,720.021362 
	C363.402710,681.530090 413.355255,664.308167 445.115295,688.295776 
	C455.523407,696.156738 461.937225,706.556274 464.150665,719.922974 
M373.743805,714.648315 
	C375.421783,716.080078 376.903870,718.351929 378.811920,718.796753 
	C386.687012,720.632690 397.681274,712.944824 399.250580,704.946411 
	C400.161621,700.303101 398.050598,697.312012 393.341095,696.401123 
	C386.415009,695.061646 371.951050,703.334534 373.743805,714.648315 
z"/>
<path fill="#010101" opacity="1.000000" stroke="none" 
	d="
M692.053833,738.038330 
	C670.445190,739.861877 652.378845,733.326477 638.763428,716.866150 
	C619.451904,693.519592 624.721619,660.184753 649.930420,642.982178 
	C671.129944,628.515625 700.768250,629.166748 720.996887,644.889038 
	C736.790100,657.163879 744.679016,673.397949 741.573303,693.414856 
	C738.318359,714.393616 725.146057,727.765259 705.568542,734.973694 
	C701.400696,736.508240 696.857788,737.024353 692.053833,738.038330 
M657.500366,651.955200 
	C655.783508,653.970642 653.321289,655.737549 652.544678,658.066528 
	C651.641113,660.776306 651.076233,664.784729 652.463379,666.741638 
	C653.870544,668.726807 657.972900,669.983521 660.658020,669.650391 
	C667.591980,668.790100 673.296936,665.093628 675.923706,658.364807 
	C676.873413,655.932068 676.936768,651.951843 675.526855,650.134460 
	C674.092102,648.285095 670.230774,647.301941 667.639282,647.621399 
	C664.338989,648.028137 661.246948,650.124634 657.500366,651.955200 
z"/>
<path fill="#040302" opacity="1.000000" stroke="none" 
	d="
M734.829346,372.160767 
	C730.564148,387.678253 725.338501,402.611267 722.217773,417.971954 
	C716.546204,445.888000 716.372131,474.147369 719.903870,502.439392 
	C720.424988,506.613647 721.833679,509.179169 725.667725,511.310883 
	C752.065674,525.988403 777.379395,542.244019 798.513367,564.174438 
	C804.284790,570.163269 809.660339,576.533691 815.509521,582.858032 
	C816.766907,585.571411 818.911682,588.430786 818.390015,590.668640 
	C817.779968,593.285889 815.219849,596.590332 812.813110,597.323608 
	C810.442261,598.046021 806.477966,596.722412 804.483337,594.903259 
	C798.347229,589.307312 792.979431,582.880493 787.026245,577.070435 
	C765.803955,556.358521 740.329468,541.951904 714.296936,528.400391 
	C712.527527,527.479309 710.827515,526.400818 708.998474,525.622925 
	C703.539062,523.301208 701.067078,519.245667 700.374390,513.334229 
	C694.550049,463.626160 700.119385,415.405029 719.004700,368.928284 
	C720.083374,366.273712 722.435120,363.286774 724.941711,362.233887 
	C730.660156,359.831909 735.170898,364.507355 734.829346,372.160767 
z"/>
<path fill="#030302" opacity="1.000000" stroke="none" 
	d="
M255.582306,671.737427 
	C269.196655,635.311279 291.390717,604.836121 317.594299,577.044617 
	C321.116425,573.309021 322.283875,569.991943 321.240143,564.735229 
	C312.613708,521.289368 295.226593,481.913086 267.411621,446.938477 
	C264.677094,441.024445 265.320007,437.227417 269.115173,434.912231 
	C273.037415,432.519531 276.959625,433.488647 280.797729,438.045929 
	C311.738861,474.784973 331.291321,516.986084 342.208649,563.630371 
	C344.808228,574.737122 342.067261,581.887329 334.209412,589.499939 
	C311.173126,611.817444 290.503571,636.115723 276.470734,665.363953 
	C274.458710,669.557434 272.551483,673.801575 270.624573,678.035461 
	C267.914307,683.990723 264.119537,686.178223 259.498474,684.410400 
	C254.506882,682.500671 253.188934,678.401001 255.582306,671.737427 
z"/>
<path fill="#F4F6EF" opacity="1.000000" stroke="none" 
	d="
M394.857483,621.843689 
	C409.831177,609.062012 426.693604,604.348694 445.696320,608.101868 
	C449.550964,608.863159 453.406036,610.276917 456.899780,612.086975 
	C466.986267,617.312744 469.860168,627.229431 462.909546,636.152100 
	C458.769135,641.467224 453.017731,646.078430 447.072937,649.326782 
	C432.930847,657.054321 417.675964,658.143982 402.118408,653.911194 
	C399.894836,653.306152 397.709900,652.369019 395.683105,651.263062 
	C385.962646,645.958984 383.736847,637.049744 389.848511,627.845154 
	C391.216492,625.784851 393.007935,624.005798 394.857483,621.843689 
z"/>
<path fill="#F4F6EF" opacity="1.000000" stroke="none" 
	d="
M594.817017,601.852539 
	C594.547729,592.943237 600.081238,587.695801 606.212280,583.827454 
	C624.772034,572.117188 644.332153,569.829468 664.410522,580.108765 
	C678.317444,587.228455 679.784546,600.664490 667.115295,609.752258 
	C648.200378,623.320129 627.628296,626.489807 605.989807,616.489014 
	C600.097534,613.765747 595.449219,609.451050 594.817017,601.852539 
z"/>
<path fill="#FC615F" opacity="1.000000" stroke="none" 
	d="
M291.509613,795.318359 
	C307.669525,789.936523 323.437805,788.582947 338.768219,796.527649 
	C342.197693,798.304993 345.648651,800.932007 347.832367,804.048767 
	C353.577026,812.247925 351.428497,820.657471 342.500214,827.960632 
	C327.826569,839.963440 298.177338,841.630615 282.015564,831.361633 
	C269.554077,823.443909 269.707428,809.433777 282.471130,800.366821 
	C285.165527,798.452820 288.248566,797.085815 291.509613,795.318359 
z"/>
<path fill="#FC615F" opacity="1.000000" stroke="none" 
	d="
M797.058777,711.981689 
	C804.381958,712.319092 811.513977,711.674561 818.054138,713.345886 
	C822.833740,714.567383 827.274292,718.365051 831.049866,721.888733 
	C834.336792,724.956299 834.701904,729.406555 833.209595,733.981628 
	C829.879822,744.190247 822.032959,750.065369 813.060181,754.275330 
	C800.197815,760.310120 786.686279,763.263794 772.459351,759.085510 
	C765.380676,757.006531 759.543396,753.361206 757.528381,745.862122 
	C755.613464,738.735596 758.644836,732.989441 763.550171,727.865173 
	C772.612183,718.398621 784.030212,714.026367 797.058777,711.981689 
z"/>
<path fill="#E4EFF0" opacity="1.000000" stroke="none" 
	d="
M422.311035,294.324646 
	C408.795563,305.671295 393.334991,311.355927 376.238129,311.556641 
	C364.193695,311.698029 352.278442,306.635559 350.538849,293.621063 
	C349.382874,284.972748 353.694855,277.696198 359.260437,271.565033 
	C373.990082,255.338516 392.382690,246.927155 414.443054,247.133698 
	C417.226471,247.159760 420.072998,247.749283 422.769806,248.506668 
	C437.383972,252.610931 443.007843,265.220612 435.419495,278.373871 
	C432.082611,284.157867 426.916931,288.886749 422.311035,294.324646 
z"/>
<path fill="#FA605E" opacity="1.000000" stroke="none" 
	d="
M546.341309,841.321411 
	C557.840393,834.079590 569.030334,827.001587 580.354492,820.145081 
	C581.904602,819.206482 584.162537,818.935486 586.025269,819.103516 
	C593.096069,819.741333 600.139099,820.686646 607.491211,821.552063 
	C610.819092,831.150818 607.565857,842.869690 598.840881,850.004517 
	C586.568481,860.040405 571.784241,863.075134 556.540222,864.004517 
	C550.853394,864.351196 544.994995,863.308044 539.345337,862.220520 
	C536.626526,861.697144 534.210693,859.599731 530.704468,857.698120 
	C536.294800,851.826660 541.184631,846.690918 546.341309,841.321411 
z"/>
<path fill="#EEF1EA" opacity="1.000000" stroke="none" 
	d="
M373.595764,714.286804 
	C371.951050,703.334534 386.415009,695.061646 393.341095,696.401123 
	C398.050598,697.312012 400.161621,700.303101 399.250580,704.946411 
	C397.681274,712.944824 386.687012,720.632690 378.811920,718.796753 
	C376.903870,718.351929 375.421783,716.080078 373.595764,714.286804 
z"/>
<path fill="#EFF2EC" opacity="1.000000" stroke="none" 
	d="
M657.782715,651.723999 
	C661.246948,650.124634 664.338989,648.028137 667.639282,647.621399 
	C670.230774,647.301941 674.092102,648.285095 675.526855,650.134460 
	C676.936768,651.951843 676.873413,655.932068 675.923706,658.364807 
	C673.296936,665.093628 667.591980,668.790100 660.658020,669.650391 
	C657.972900,669.983521 653.870544,668.726807 652.463379,666.741638 
	C651.076233,664.784729 651.641113,660.776306 652.544678,658.066528 
	C653.321289,655.737549 655.783508,653.970642 657.782715,651.723999 
z"/>
</svg>