<svg version="1.1" id="Layer_1" xmlns="http://www.w3.org/2000/svg" xmlns:xlink="http://www.w3.org/1999/xlink" x="0px" y="0px"
	 width="100%" viewBox="0 0 1080 1080" enable-background="new 0 0 1080 1080" xml:space="preserve">
<path fill="#000000" opacity="1.000000" stroke="none" 
	d="
M603.000000,1081.000000 
	C402.023132,1081.000000 201.546280,1081.000000 1.034705,1081.000000 
	C1.034705,721.064697 1.034705,361.129364 1.034705,1.097018 
	C360.893768,1.097018 720.787598,1.097018 1080.840698,1.097018 
	C1080.840698,360.999939 1080.840698,720.999939 1080.840698,1081.000000 
	C921.795593,1081.000000 762.647766,1081.000000 603.000000,1081.000000 
M96.517708,484.961609 
	C88.624550,517.180481 85.728424,550.031494 85.209030,583.049622 
	C84.980453,597.580566 86.429260,612.212830 88.134315,626.679138 
	C90.011780,642.608093 92.313148,658.562744 95.748741,674.216797 
	C103.312416,708.679932 115.893456,741.330994 133.485214,771.996460 
	C145.518738,792.972961 159.697617,812.352600 176.387756,829.856201 
	C192.646210,846.907166 210.943619,861.521729 231.295624,873.306030 
	C237.281128,876.771790 239.509750,879.690552 239.384232,887.106018 
	C239.115753,902.968506 246.170380,916.608459 256.814026,928.305603 
	C269.308044,942.036438 284.593689,952.022156 300.933044,960.384583 
	C327.690948,974.079102 356.027924,983.737610 385.129517,990.861816 
	C409.588745,996.849609 434.303009,1001.859619 459.023773,1006.691589 
	C474.449066,1009.706604 490.059265,1011.870178 505.653809,1013.898132 
	C521.575500,1015.968628 537.562256,1017.591980 553.552124,1019.069275 
	C570.044128,1020.592834 586.561157,1022.559875 603.090393,1022.811279 
	C633.638855,1023.275940 664.224731,1023.971130 694.630920,1019.126892 
	C716.084229,1015.708984 737.094360,1011.098572 756.368469,1000.756714 
	C774.375366,991.094727 787.965698,977.586548 791.603943,956.445679 
	C792.208191,952.934814 793.615295,951.597168 797.065430,950.701477 
	C826.000000,943.189270 852.691833,930.545593 877.285156,913.726074 
	C900.539368,897.822388 921.197815,878.962158 939.372131,857.300293 
	C955.994568,837.488220 970.455078,816.263000 982.639343,793.541870 
	C999.368164,762.345764 1011.599304,729.391052 1019.885559,694.940979 
	C1026.653076,666.804749 1030.618042,638.260559 1031.833618,609.425842 
	C1032.883057,584.529297 1031.538086,559.662964 1028.158325,534.887695 
	C1024.874390,510.815613 1019.758240,487.205383 1012.482666,464.068054 
	C1002.823059,433.349487 989.550354,404.231628 973.238892,376.459808 
	C957.616638,349.861328 939.160400,325.357208 918.177185,302.851044 
	C897.520569,280.695129 874.729431,260.885986 849.994263,243.271088 
	C818.696594,220.982803 785.295654,202.603821 749.761963,188.133011 
	C722.026489,176.837967 693.473572,168.112411 664.229614,161.496368 
	C629.513306,153.642319 594.325867,149.491180 558.867737,148.238007 
	C540.158813,147.576797 521.311096,148.642929 502.624664,150.151352 
	C483.506836,151.694611 464.347809,153.847015 445.492554,157.295349 
	C403.294312,165.012772 362.630768,178.081009 324.396179,197.579758 
	C304.624420,207.662888 285.790924,219.682465 266.997894,231.561813 
	C247.013901,244.194000 229.353912,259.920502 212.427734,276.316040 
	C202.314392,286.112396 193.164627,296.937286 183.935898,307.606232 
	C162.960266,331.855408 145.660797,358.641724 131.528702,387.333282 
	C123.541077,403.550110 116.421722,420.294678 110.302589,437.302063 
	C104.810417,452.567017 101.220863,468.516449 96.517708,484.961609 
M163.925659,125.163193 
	C164.075485,121.190727 164.242630,117.218819 164.371353,113.245674 
	C164.597092,106.278923 165.512375,99.242348 164.845947,92.360222 
	C163.819077,81.755974 154.547363,72.411118 138.582489,73.946709 
	C128.915466,74.876526 119.628227,85.068115 120.105850,95.844780 
	C120.643867,107.984184 122.026299,120.085114 122.985336,132.207214 
	C124.022987,145.322906 124.991570,158.444046 125.998238,171.562195 
	C126.992195,184.514618 128.054520,197.462097 128.980316,210.419373 
	C130.048203,225.365234 131.022705,240.317932 131.991150,255.270676 
	C132.445602,262.287598 136.607025,266.927551 142.654037,266.999939 
	C149.191162,267.078156 153.464508,262.690765 154.005829,255.462723 
	C154.975983,242.508591 156.010376,229.559296 156.991440,216.605957 
	C158.010162,203.155396 159.060562,189.706741 159.979019,176.249207 
	C160.742218,165.066727 161.281219,153.869049 162.024200,142.685059 
	C162.394150,137.116272 162.998871,131.563065 163.925659,125.163193 
M101.074593,221.204453 
	C99.283493,207.928452 97.586830,194.638824 95.673660,181.380432 
	C93.904228,169.118225 91.150543,156.946823 90.212013,144.630142 
	C89.242416,131.905838 80.492737,119.563141 64.512245,120.862915 
	C52.616829,121.830437 40.933521,134.605667 44.545937,147.944687 
	C48.440285,162.324738 53.000950,176.526382 57.371395,190.775055 
	C67.540016,223.927139 77.750687,257.066376 87.993416,290.195648 
	C89.520706,295.135529 90.948326,300.160034 93.085251,304.842743 
	C95.276024,309.643433 100.867027,311.456787 105.762375,309.712891 
	C109.714195,308.305145 113.466339,302.267975 112.848381,298.443451 
	C111.212570,288.319214 109.522514,278.202332 108.030754,268.056549 
	C105.775185,252.715927 103.669434,237.353287 101.074593,221.204453 
M159.705780,293.224884 
	C156.694244,284.761566 148.471191,279.019684 140.778122,280.008331 
	C131.592041,281.188904 124.108208,291.502716 126.117325,300.213013 
	C128.449173,310.322418 138.467422,316.341125 148.021408,313.509827 
	C155.407654,311.320892 160.847488,304.198700 159.705780,293.224884 
M98.471146,328.021332 
	C92.918320,334.066132 92.452293,342.352539 97.256424,349.620087 
	C100.682762,354.803345 109.533577,357.516205 116.205185,355.298431 
	C124.370193,352.584229 126.564438,348.296112 127.883827,340.682892 
	C128.960037,334.472870 123.842628,326.280853 118.252823,323.728394 
	C111.691872,320.732513 104.529152,322.295990 98.471146,328.021332 
z"/>
<path fill="#190548" opacity="1.000000" stroke="none" 
	d="
M96.654846,484.562775 
	C101.220863,468.516449 104.810417,452.567017 110.302589,437.302063 
	C116.421722,420.294678 123.541077,403.550110 131.528702,387.333282 
	C145.660797,358.641724 162.960266,331.855408 183.935898,307.606232 
	C193.164627,296.937286 202.314392,286.112396 212.427734,276.316040 
	C229.353912,259.920502 247.013901,244.194000 266.997894,231.561813 
	C285.790924,219.682465 304.624420,207.662888 324.396179,197.579758 
	C362.630768,178.081009 403.294312,165.012772 445.492554,157.295349 
	C464.347809,153.847015 483.506836,151.694611 502.624664,150.151352 
	C521.311096,148.642929 540.158813,147.576797 558.867737,148.238007 
	C594.325867,149.491180 629.513306,153.642319 664.229614,161.496368 
	C693.473572,168.112411 722.026489,176.837967 749.761963,188.133011 
	C785.295654,202.603821 818.696594,220.982803 849.994263,243.271088 
	C874.729431,260.885986 897.520569,280.695129 918.177185,302.851044 
	C939.160400,325.357208 957.616638,349.861328 973.238892,376.459808 
	C989.550354,404.231628 1002.823059,433.349487 1012.482666,464.068054 
	C1019.758240,487.205383 1024.874390,510.815613 1028.158325,534.887695 
	C1031.538086,559.662964 1032.883057,584.529297 1031.833618,609.425842 
	C1030.618042,638.260559 1026.653076,666.804749 1019.885559,694.940979 
	C1011.599304,729.391052 999.368164,762.345764 982.639343,793.541870 
	C970.455078,816.263000 955.994568,837.488220 939.372131,857.300293 
	C921.197815,878.962158 900.539368,897.822388 877.285156,913.726074 
	C852.691833,930.545593 826.000000,943.189270 797.065430,950.701477 
	C793.615295,951.597168 792.208191,952.934814 791.603943,956.445679 
	C787.965698,977.586548 774.375366,991.094727 756.368469,1000.756714 
	C737.094360,1011.098572 716.084229,1015.708984 694.630920,1019.126892 
	C664.224731,1023.971130 633.638855,1023.275940 603.090393,1022.811279 
	C586.561157,1022.559875 570.044128,1020.592834 553.552124,1019.069275 
	C537.562256,1017.591980 521.575500,1015.968628 505.653809,1013.898132 
	C490.059265,1011.870178 474.449066,1009.706604 459.023773,1006.691589 
	C434.303009,1001.859619 409.588745,996.849609 385.129517,990.861816 
	C356.027924,983.737610 327.690948,974.079102 300.933044,960.384583 
	C284.593689,952.022156 269.308044,942.036438 256.814026,928.305603 
	C246.170380,916.608459 239.115753,902.968506 239.384232,887.106018 
	C239.509750,879.690552 237.281128,876.771790 231.295624,873.306030 
	C210.943619,861.521729 192.646210,846.907166 176.387756,829.856201 
	C159.697617,812.352600 145.518738,792.972961 133.485214,771.996460 
	C115.893456,741.330994 103.312416,708.679932 95.748741,674.216797 
	C92.313148,658.562744 90.011780,642.608093 88.134315,626.679138 
	C86.429260,612.212830 84.980453,597.580566 85.209030,583.049622 
	C85.728424,550.031494 88.624550,517.180481 96.654846,484.562775 
M744.008118,412.003174 
	C744.008118,412.003174 743.999817,411.921753 743.415833,412.015778 
	C743.245178,412.335724 743.074463,412.655670 742.974792,412.971680 
	C742.974792,412.971680 742.948608,412.905518 742.258179,412.949799 
	C731.568298,422.953674 720.408630,432.507324 710.293030,443.061554 
	C692.831848,461.279724 677.457642,481.086243 667.792908,504.777863 
	C665.083252,511.420380 659.996155,513.273987 653.123169,510.671448 
	C643.184448,506.908020 633.361694,502.803833 623.300415,499.404755 
	C598.546265,491.041901 572.966736,487.118561 546.159729,485.801941 
	C544.677795,485.651398 543.181824,485.287231 541.716003,485.383057 
	C525.781738,486.424469 509.835144,487.340271 493.928192,488.711151 
	C485.307190,489.454102 481.231628,486.431946 479.794342,478.036102 
	C478.338593,469.532593 476.783630,460.965057 474.247559,452.741516 
	C463.121429,416.664185 444.574219,384.414917 421.178680,355.085938 
	C409.816193,340.841766 396.542694,328.121979 383.877014,314.124969 
	C379.816956,310.540222 375.756866,306.955475 371.295868,303.016724 
	C365.437683,308.149872 359.544067,312.548187 354.583954,317.824158 
	C345.080933,327.932343 336.108276,338.539154 326.974640,348.977844 
	C326.974640,348.977844 326.983368,348.907715 326.368927,349.011261 
	C326.152649,349.361145 325.936371,349.711029 325.156647,350.366852 
	C295.352234,388.396637 272.142059,430.005432 257.343048,476.104950 
	C243.141891,520.342102 238.314224,565.469604 246.196793,611.479065 
	C247.634201,619.868958 245.685410,625.859619 240.643127,632.436584 
	C221.702560,657.142151 208.751862,684.862183 200.958191,715.837219 
	C199.164490,728.833862 197.370789,741.830444 195.169006,755.704956 
	C195.406418,762.010132 195.338593,768.344238 195.933411,774.615540 
	C198.683121,803.606628 210.168030,828.377869 233.755646,846.016235 
	C247.138458,856.023621 261.787445,864.410400 276.224457,872.919189 
	C300.654205,887.317749 326.844635,897.883911 353.639893,906.970825 
	C363.496552,910.313477 373.466705,913.321533 382.730316,916.273621 
	C383.612335,905.916748 384.451172,896.067261 385.747345,885.610168 
	C386.688934,881.910095 387.526978,878.180054 388.588684,874.514709 
	C396.531006,847.095825 408.673309,821.444641 422.073242,796.385681 
	C429.980408,781.598572 438.547363,767.157898 447.055542,752.701477 
	C450.684174,746.536011 455.688599,746.408386 460.288544,751.773499 
	C462.452057,754.296936 464.608826,756.858337 467.029358,759.124023 
	C484.327362,775.315369 510.610657,774.920837 524.986023,758.228455 
	C513.624573,744.930420 503.166382,731.033020 497.973938,713.235962 
	C498.177582,708.162170 502.431824,707.784912 505.781128,707.130127 
	C521.445129,704.068054 537.287659,703.377930 552.783386,707.454468 
	C562.989014,710.139343 572.830261,714.306763 582.674927,718.212952 
	C586.126099,719.582214 588.992126,722.206543 586.485046,727.239136 
	C576.881897,741.626648 563.434753,751.878601 549.364136,761.445984 
	C552.241150,768.130371 556.817932,773.081543 562.795349,776.685852 
	C580.411804,787.308716 597.033447,784.308350 613.026306,772.873047 
	C619.158386,768.488403 624.282227,770.412170 625.903564,777.791687 
	C636.338989,825.288147 644.852539,873.014282 642.273987,922.677917 
	C640.564697,932.430847 638.855408,942.183777 637.135193,951.998779 
	C636.888245,951.952148 637.373718,952.120483 637.860657,952.124878 
	C674.549377,952.458252 711.063171,950.406494 746.898804,942.044128 
	C763.523132,938.164734 779.880737,933.087708 796.254944,928.204041 
	C820.527954,920.964539 839.591125,906.591492 852.732971,884.902283 
	C867.447754,860.617065 872.868652,833.810120 873.134583,804.843506 
	C873.571533,772.648926 867.896545,741.601685 855.433838,711.880188 
	C853.459656,707.172302 853.746277,702.994507 855.958618,698.505859 
	C866.016541,678.099121 873.433228,656.722778 877.342712,634.328979 
	C879.792786,620.294983 880.844666,606.016907 882.705017,590.946777 
	C882.841064,587.289307 883.041321,583.632935 883.103638,579.974182 
	C884.083313,522.480896 871.681946,467.714508 848.224426,415.506805 
	C840.843506,399.079529 830.915588,383.794373 822.097595,368.017700 
	C820.799072,365.694458 819.316956,364.372955 816.098511,365.878021 
	C790.525208,377.837280 766.832031,392.727722 744.555542,411.030304 
	C744.345947,411.357666 744.136353,411.685028 744.008118,412.003174 
M282.271454,923.562317 
	C287.667175,927.441284 292.822876,931.719543 298.499298,935.131531 
	C326.019043,951.672913 356.141357,961.776489 386.946869,969.983887 
	C432.045929,981.999512 477.903290,990.212341 524.287903,994.964966 
	C558.019592,998.421143 591.878052,1001.170898 625.748535,1002.539124 
	C645.607422,1003.341370 665.663513,1001.481262 685.515320,999.599915 
	C704.258850,997.823547 722.693359,993.765137 739.972900,985.808716 
	C750.370056,981.021423 759.928772,975.006042 766.298035,965.076416 
	C767.546204,963.130432 768.330505,960.886963 769.759949,957.870911 
	C767.327271,958.376038 766.231323,958.594177 765.139587,958.831726 
	C753.929504,961.271057 742.786438,964.097412 731.492371,966.050842 
	C719.385498,968.144897 707.136658,969.418518 694.035950,970.919250 
	C680.401062,971.559143 666.747375,972.994995 653.135071,972.674927 
	C623.855164,971.986389 594.534851,971.209106 565.342346,968.998230 
	C507.819031,964.641724 451.000000,955.389587 395.145874,940.819824 
	C348.797363,928.729675 303.701752,913.272461 262.248352,888.628235 
	C261.731628,888.321106 261.081940,888.237610 259.891846,887.857056 
	C262.007355,903.350891 270.074738,914.371582 282.271454,923.562317 
M852.073975,270.957520 
	C852.073975,270.957520 852.096191,270.895142 851.981750,270.224548 
	C828.602661,251.884750 803.478271,236.292007 776.916321,223.045883 
	C709.684570,189.518234 638.224060,172.503082 563.386230,169.278473 
	C513.538391,167.130646 464.346710,172.063721 416.093567,185.038925 
	C339.409149,205.659225 272.583008,243.286896 217.404709,300.834717 
	C184.594604,335.053833 158.801041,374.006409 140.209351,417.560028 
	C115.559944,475.304718 103.957657,535.627747 106.743240,598.465271 
	C107.359001,612.355957 109.437119,626.181763 110.660255,640.878723 
	C118.037712,697.349792 152.762238,778.308716 179.244003,800.381348 
	C179.016525,798.832336 178.800430,797.539551 178.639954,796.239929 
	C177.179688,784.414185 174.821594,772.612305 174.493591,760.754578 
	C174.029785,743.986755 176.547882,727.379333 180.695419,711.061340 
	C189.096649,678.007751 203.352859,647.756531 223.634995,620.323975 
	C224.798965,618.749695 225.972061,616.384827 225.669983,614.643005 
	C220.800491,586.564880 220.748642,558.376831 224.261688,530.231812 
	C227.426361,504.877991 233.822464,480.228760 242.571426,456.185822 
	C254.332657,423.864929 270.322479,393.724518 289.506744,364.501495 
	C303.802216,344.065094 318.784576,324.192474 336.637360,306.649384 
	C345.410645,298.028290 354.189423,289.437561 365.403717,283.912689 
	C371.454498,280.931671 376.988403,280.882416 382.351929,285.783691 
	C388.206970,291.134033 394.473969,296.033569 400.931335,301.716064 
	C448.107574,348.291565 484.266724,401.465851 499.735199,467.170197 
	C552.503784,461.037323 603.337097,468.171631 652.396057,488.127686 
	C654.600891,484.004486 656.531311,480.155579 658.683716,476.435089 
	C660.928406,472.555237 663.206360,468.672180 665.779480,465.008026 
	C703.445862,411.371948 753.133423,372.422852 812.318115,345.033905 
	C820.992493,341.019684 825.904053,341.210999 833.248840,350.000336 
	C841.188538,359.501617 848.469238,369.849335 854.320190,380.749573 
	C881.148071,430.729767 896.450195,484.232300 902.110413,540.656067 
	C904.797913,567.446350 904.340271,594.112732 900.699585,620.682007 
	C896.880493,648.552612 889.249023,675.429810 877.622009,701.141785 
	C876.470703,703.687683 876.147217,707.439026 877.122498,709.986572 
	C886.629395,734.818542 892.112610,760.537415 893.630188,786.982361 
	C895.595886,821.236450 891.414978,854.558533 875.829773,885.737488 
	C875.414673,886.567810 875.187988,887.492310 874.829773,888.494934 
	C875.510071,888.494934 875.874634,888.609863 876.068054,888.476562 
	C877.439148,887.531494 878.805420,886.574402 880.117676,885.549988 
	C899.778564,870.200317 917.269104,852.650391 932.421814,832.867615 
	C983.665222,765.966187 1007.185303,689.332275 1010.797119,606.038513 
	C1011.557922,588.493896 1010.087585,570.819946 1009.069336,553.238953 
	C1007.762878,530.682495 1003.519348,508.532288 997.520752,486.797882 
	C973.336609,399.172882 925.308655,327.480469 852.983887,271.483124 
	C852.699829,271.297150 852.415833,271.111176 852.073975,270.957520 
M417.255981,925.193848 
	C427.777863,927.634949 438.199493,930.705688 448.840271,932.399902 
	C481.516327,937.602539 514.202576,942.873230 547.030701,946.940613 
	C567.638794,949.494019 588.513123,949.872437 609.259216,951.351440 
	C617.023743,951.904968 618.287781,951.583862 619.689087,943.923096 
	C621.421082,934.454468 623.074951,924.848694 623.342285,915.262634 
	C623.786926,899.316956 623.078918,883.340027 622.903503,867.375732 
	C622.847107,862.241882 620.330505,860.176514 615.242859,860.108337 
	C608.592468,860.019348 601.940796,858.955994 595.304199,859.081421 
	C570.023376,859.558899 544.684937,859.450317 519.486572,861.234497 
	C484.795013,863.690918 451.084839,871.222046 419.152985,885.580200 
	C404.556335,892.143616 404.448639,892.255249 404.074768,908.416504 
	C403.781464,921.093872 404.357513,921.866638 417.255981,925.193848 
z"/>
<path fill="#FC615F" opacity="1.000000" stroke="none" 
	d="
M163.711533,125.583000 
	C162.998871,131.563065 162.394150,137.116272 162.024200,142.685059 
	C161.281219,153.869049 160.742218,165.066727 159.979019,176.249207 
	C159.060562,189.706741 158.010162,203.155396 156.991440,216.605957 
	C156.010376,229.559296 154.975983,242.508591 154.005829,255.462723 
	C153.464508,262.690765 149.191162,267.078156 142.654037,266.999939 
	C136.607025,266.927551 132.445602,262.287598 131.991150,255.270676 
	C131.022705,240.317932 130.048203,225.365234 128.980316,210.419373 
	C128.054520,197.462097 126.992195,184.514618 125.998238,171.562195 
	C124.991570,158.444046 124.022987,145.322906 122.985336,132.207214 
	C122.026299,120.085114 120.643867,107.984184 120.105850,95.844780 
	C119.628227,85.068115 128.915466,74.876526 138.582489,73.946709 
	C154.547363,72.411118 163.819077,81.755974 164.845947,92.360222 
	C165.512375,99.242348 164.597092,106.278923 164.371353,113.245674 
	C164.242630,117.218819 164.075485,121.190727 163.711533,125.583000 
z"/>
<path fill="#FC615F" opacity="1.000000" stroke="none" 
	d="
M101.287308,221.602234 
	C103.669434,237.353287 105.775185,252.715927 108.030754,268.056549 
	C109.522514,278.202332 111.212570,288.319214 112.848381,298.443451 
	C113.466339,302.267975 109.714195,308.305145 105.762375,309.712891 
	C100.867027,311.456787 95.276024,309.643433 93.085251,304.842743 
	C90.948326,300.160034 89.520706,295.135529 87.993416,290.195648 
	C77.750687,257.066376 67.540016,223.927139 57.371395,190.775055 
	C53.000950,176.526382 48.440285,162.324738 44.545937,147.944687 
	C40.933521,134.605667 52.616829,121.830437 64.512245,120.862915 
	C80.492737,119.563141 89.242416,131.905838 90.212013,144.630142 
	C91.150543,156.946823 93.904228,169.118225 95.673660,181.380432 
	C97.586830,194.638824 99.283493,207.928452 101.287308,221.602234 
z"/>
<path fill="#FC615F" opacity="1.000000" stroke="none" 
	d="
M159.831848,293.629089 
	C160.847488,304.198700 155.407654,311.320892 148.021408,313.509827 
	C138.467422,316.341125 128.449173,310.322418 126.117325,300.213013 
	C124.108208,291.502716 131.592041,281.188904 140.778122,280.008331 
	C148.471191,279.019684 156.694244,284.761566 159.831848,293.629089 
z"/>
<path fill="#FC615F" opacity="1.000000" stroke="none" 
	d="
M98.737686,327.757629 
	C104.529152,322.295990 111.691872,320.732513 118.252823,323.728394 
	C123.842628,326.280853 128.960037,334.472870 127.883827,340.682892 
	C126.564438,348.296112 124.370193,352.584229 116.205185,355.298431 
	C109.533577,357.516205 100.682762,354.803345 97.256424,349.620087 
	C92.452293,342.352539 92.918320,334.066132 98.737686,327.757629 
z"/>
<path fill="#E49D5B" opacity="1.000000" stroke="none" 
	d="
M384.134308,314.712097 
	C396.542694,328.121979 409.816193,340.841766 421.178680,355.085938 
	C444.574219,384.414917 463.121429,416.664185 474.247559,452.741516 
	C476.783630,460.965057 478.338593,469.532593 479.794342,478.036102 
	C481.231628,486.431946 485.307190,489.454102 493.928192,488.711151 
	C509.835144,487.340271 525.781738,486.424469 541.716003,485.383057 
	C543.181824,485.287231 544.677795,485.651398 546.857910,486.151031 
	C571.611267,490.377136 595.163330,496.230011 617.494141,506.076019 
	C632.704407,512.782410 647.474060,520.484253 662.487000,527.643860 
	C670.352722,531.394958 670.882446,530.996643 674.137207,523.230591 
	C689.230225,487.218231 709.077332,454.076416 734.196411,424.127869 
	C737.243042,420.495483 740.037292,416.651428 742.948608,412.905518 
	C742.948608,412.905518 742.974792,412.971680 743.205994,412.903564 
	C743.624756,412.530914 743.812256,412.226318 743.999817,411.921753 
	C743.999817,411.921753 744.008118,412.003174 744.229248,411.866577 
	C744.660583,411.392639 744.870850,411.055267 745.081055,410.717896 
	C766.832031,392.727722 790.525208,377.837280 816.098511,365.878021 
	C819.316956,364.372955 820.799072,365.694458 822.097595,368.017700 
	C830.915588,383.794373 840.843506,399.079529 848.224426,415.506805 
	C871.681946,467.714508 884.083313,522.480896 883.103638,579.974182 
	C883.041321,583.632935 882.841064,587.289307 882.294189,591.557495 
	C880.588318,597.968567 879.279053,603.765808 878.000793,609.569885 
	C873.259399,631.098938 866.260559,651.782043 855.985474,671.381348 
	C848.411133,685.829163 838.534119,698.422974 827.356812,710.149963 
	C826.234131,711.327942 825.293579,713.265198 825.306641,714.841431 
	C825.372070,722.755249 826.131287,730.671875 826.001892,738.577026 
	C825.707336,756.575195 821.338257,773.844910 814.649414,790.388977 
	C809.740540,802.530701 803.496033,814.132446 797.582642,826.039307 
	C797.145569,826.158447 796.972717,826.213135 796.372864,826.190796 
	C775.528320,824.505981 756.045593,819.155579 737.292297,811.120789 
	C699.561340,794.955139 664.542114,773.919434 630.125183,751.717712 
	C616.194885,742.731506 601.416809,735.059387 587.024536,726.789368 
	C588.992126,722.206543 586.126099,719.582214 582.674927,718.212952 
	C572.830261,714.306763 562.989014,710.139343 552.783386,707.454468 
	C537.287659,703.377930 521.445129,704.068054 505.781128,707.130127 
	C502.431824,707.784912 498.177582,708.162170 497.518738,713.649048 
	C491.206146,715.281860 485.250397,716.154297 479.507935,717.780090 
	C450.705078,725.934814 422.116302,734.897278 393.148682,742.404480 
	C361.583374,750.584839 329.739960,757.918640 296.754120,757.118103 
	C259.169769,756.205933 226.235580,744.604431 201.210480,715.085754 
	C208.751862,684.862183 221.702560,657.142151 240.643127,632.436584 
	C245.685410,625.859619 247.634201,619.868958 246.196793,611.479065 
	C238.314224,565.469604 243.141891,520.342102 257.343048,476.104950 
	C272.142059,430.005432 295.352234,388.396637 325.718201,350.089172 
	C326.514282,349.510254 326.748810,349.208984 326.983368,348.907715 
	C326.983368,348.907715 326.974640,348.977844 327.320679,349.052002 
	C329.351868,348.454010 331.081360,347.874786 332.715393,347.095367 
	C351.121979,338.315765 367.829468,326.832428 384.134308,314.712097 
M846.011902,571.006897 
	C846.011902,571.006897 846.051086,571.046936 845.757446,570.149780 
	C845.802734,568.820190 845.783081,567.484802 845.902954,566.161926 
	C848.688904,535.415283 846.870667,505.006622 838.976013,475.087860 
	C833.956055,456.063446 827.500732,437.580292 817.438416,420.024872 
	C819.847534,415.899353 819.095459,412.291962 815.325745,409.529358 
	C811.777283,406.928894 808.015503,407.849457 804.405090,411.884064 
	C803.295227,413.124268 802.211304,414.393463 801.195374,415.710999 
	C772.180847,453.339233 753.929871,495.648865 745.813599,542.436096 
	C744.879395,547.821899 746.232056,551.713623 750.089905,555.354492 
	C755.901672,560.839355 761.427368,566.626648 767.091309,572.268677 
	C787.294983,592.394653 804.370850,614.780334 816.591370,640.683167 
	C817.796875,643.238464 818.841370,645.921387 820.409912,648.241272 
	C822.582764,651.455078 825.793701,652.734192 829.556824,651.171387 
	C833.391663,649.578918 835.139709,646.599792 834.428467,642.402954 
	C834.234619,641.259277 833.829163,640.151550 833.874268,638.408691 
	C853.659302,618.041992 857.426636,592.478943 858.052368,564.315857 
	C853.339355,566.910400 849.657654,568.937195 846.011902,571.006897 
M361.324097,359.061646 
	C324.131348,397.210754 303.254150,443.417755 294.240143,495.544617 
	C290.989746,492.551392 287.941498,489.744324 284.341675,486.429321 
	C278.966766,503.583923 276.656769,519.924683 278.543671,536.701233 
	C279.647522,546.515808 282.008453,555.996704 287.656281,564.877380 
	C282.594666,569.837402 285.206787,576.876526 290.743958,578.495728 
	C294.958466,579.728149 297.682953,577.489746 300.183533,574.530334 
	C311.506531,561.129700 323.586182,548.340393 338.188446,538.603394 
	C355.464905,527.083191 373.458954,516.631592 391.252136,505.899475 
	C395.505249,503.334167 397.916534,500.068542 398.015503,495.098206 
	C398.336578,478.978363 399.593750,462.814972 398.821075,446.748657 
	C397.282715,414.760468 390.045197,383.912933 377.110321,354.510284 
	C374.660461,348.941559 371.150543,346.832916 366.842316,348.183289 
	C362.772064,349.459076 361.122620,353.010406 361.324097,359.061646 
M439.690277,628.809265 
	C427.230896,616.955444 412.271393,612.691589 395.546753,615.217957 
	C370.492249,619.002625 352.442505,641.654846 353.038605,667.863464 
	C353.597900,692.454773 373.338409,714.014893 398.019989,716.991150 
	C419.457428,719.576172 440.972534,707.934265 450.400665,688.647522 
	C460.180389,668.641479 456.144440,645.076172 439.690277,628.809265 
M740.914673,698.801575 
	C739.185791,682.467041 731.804565,669.387634 718.152344,660.148804 
	C686.180420,638.512268 642.537598,659.244202 638.779602,697.777344 
	C635.250427,733.964294 668.539612,761.817017 703.548950,752.294250 
	C725.063416,746.442139 742.684753,725.109741 740.914673,698.801575 
M449.371002,600.111511 
	C469.204926,598.713806 485.127716,589.626770 498.184937,575.074585 
	C499.809967,573.263428 501.017975,570.944824 501.946533,568.668518 
	C504.205597,563.130493 502.861847,558.970886 497.758362,555.850525 
	C495.672577,554.575317 493.274109,553.624268 490.891510,553.051758 
	C474.081604,549.012390 457.481781,550.944946 441.213623,555.770752 
	C433.203094,558.146973 426.006073,562.420898 420.433960,569.000061 
	C412.182648,578.742676 414.396149,589.992920 425.652191,595.996460 
	C432.844574,599.832703 440.522095,600.421692 449.371002,600.111511 
M657.966064,575.426880 
	C650.674011,573.951599 643.432068,571.650513 636.077576,571.204346 
	C626.275269,570.609741 621.433472,576.867371 623.939026,586.296631 
	C628.287842,602.662476 638.879700,614.648132 652.439209,624.119446 
	C661.483093,630.436707 671.628174,634.151428 682.798462,633.942444 
	C696.309814,633.689636 703.442322,623.641052 699.200684,610.820984 
	C697.969360,607.099182 696.003113,603.479309 693.730042,600.268372 
	C685.007996,587.947388 672.241150,581.241028 657.966064,575.426880 
z"/>
<path fill="#38A1F4" opacity="1.000000" stroke="none" 
	d="
M853.198730,272.014343 
	C925.308655,327.480469 973.336609,399.172882 997.520752,486.797882 
	C1003.519348,508.532288 1007.762878,530.682495 1009.069336,553.238953 
	C1010.087585,570.819946 1011.557922,588.493896 1010.797119,606.038513 
	C1007.185303,689.332275 983.665222,765.966187 932.421814,832.867615 
	C917.269104,852.650391 899.778564,870.200317 880.117676,885.549988 
	C878.805420,886.574402 877.439148,887.531494 876.068054,888.476562 
	C875.874634,888.609863 875.510071,888.494934 874.829773,888.494934 
	C875.187988,887.492310 875.414673,886.567810 875.829773,885.737488 
	C891.414978,854.558533 895.595886,821.236450 893.630188,786.982361 
	C892.112610,760.537415 886.629395,734.818542 877.122498,709.986572 
	C876.147217,707.439026 876.470703,703.687683 877.622009,701.141785 
	C889.249023,675.429810 896.880493,648.552612 900.699585,620.682007 
	C904.340271,594.112732 904.797913,567.446350 902.110413,540.656067 
	C896.450195,484.232300 881.148071,430.729767 854.320190,380.749573 
	C848.469238,369.849335 841.188538,359.501617 833.248840,350.000336 
	C825.904053,341.210999 820.992493,341.019684 812.318115,345.033905 
	C753.133423,372.422852 703.445862,411.371948 665.779480,465.008026 
	C663.206360,468.672180 660.928406,472.555237 658.683716,476.435089 
	C656.531311,480.155579 654.600891,484.004486 652.396057,488.127686 
	C603.337097,468.171631 552.503784,461.037323 499.735199,467.170197 
	C484.266724,401.465851 448.107574,348.291565 400.958923,301.128662 
	C405.477448,296.080750 410.155853,291.791809 414.424225,287.127625 
	C427.097076,273.279480 438.449829,258.554779 443.371979,239.951309 
	C447.849670,223.027679 442.435608,211.435379 426.767334,203.966904 
	C426.247375,203.719086 425.842133,203.230667 424.926666,202.479736 
	C463.666534,192.931198 502.350433,187.160355 541.578003,186.195770 
	C562.834534,185.673080 584.167542,186.768738 605.419983,187.958084 
	C630.989075,189.389008 656.210938,193.695953 681.121033,199.602798 
	C740.486084,213.679871 796.137268,236.684799 847.750000,269.328339 
	C849.020752,270.132019 850.639648,270.385193 852.096191,270.895142 
	C852.096191,270.895142 852.073975,270.957520 851.860229,271.147644 
	C852.163879,271.563293 852.681274,271.788818 853.198730,272.014343 
M483.157349,248.996338 
	C485.492096,254.713699 489.922668,258.324738 495.239746,261.063446 
	C515.366577,271.430328 548.567688,266.367004 564.736145,250.454971 
	C576.409058,238.967209 574.634399,225.186798 560.425476,217.057007 
	C559.561523,216.562683 558.649536,216.148315 557.744385,215.730286 
	C545.103455,209.891861 531.864258,209.841736 518.670959,212.645798 
	C507.534454,215.012711 496.927338,219.170822 488.893677,227.804581 
	C483.574097,233.521576 480.197021,240.038727 483.157349,248.996338 
z"/>
<path fill="#38A1F4" opacity="1.000000" stroke="none" 
	d="
M289.013550,364.945282 
	C270.322479,393.724518 254.332657,423.864929 242.571426,456.185822 
	C233.822464,480.228760 227.426361,504.877991 224.261688,530.231812 
	C220.748642,558.376831 220.800491,586.564880 225.669983,614.643005 
	C225.972061,616.384827 224.798965,618.749695 223.634995,620.323975 
	C203.352859,647.756531 189.096649,678.007751 180.695419,711.061340 
	C176.547882,727.379333 174.029785,743.986755 174.493591,760.754578 
	C174.821594,772.612305 177.179688,784.414185 178.639954,796.239929 
	C178.800430,797.539551 179.016525,798.832336 179.244003,800.381348 
	C152.762238,778.308716 118.037712,697.349792 110.701996,639.995728 
	C111.442589,629.493286 112.147873,619.874390 112.839142,610.254395 
	C115.056664,579.394348 119.983238,548.946594 126.973495,518.831604 
	C139.843018,463.388000 159.809219,410.811371 190.713318,362.737122 
	C196.221298,354.168945 202.263489,345.944183 208.059006,337.560852 
	C208.484924,350.552246 213.019623,360.665527 224.639862,365.719635 
	C231.330719,368.629700 238.941284,370.176056 246.259888,370.733185 
	C260.809174,371.840759 274.941650,368.256073 289.013550,364.945282 
z"/>
<path fill="#E4EFEF" opacity="1.000000" stroke="none" 
	d="
M289.260132,364.723389 
	C274.941650,368.256073 260.809174,371.840759 246.259888,370.733185 
	C238.941284,370.176056 231.330719,368.629700 224.639862,365.719635 
	C213.019623,360.665527 208.484924,350.552246 208.059006,337.560852 
	C202.263489,345.944183 196.221298,354.168945 190.713318,362.737122 
	C159.809219,410.811371 139.843018,463.388000 126.973495,518.831604 
	C119.983238,548.946594 115.056664,579.394348 112.839142,610.254395 
	C112.147873,619.874390 111.442589,629.493286 110.792801,639.575073 
	C109.437119,626.181763 107.359001,612.355957 106.743240,598.465271 
	C103.957657,535.627747 115.559944,475.304718 140.209351,417.560028 
	C158.801041,374.006409 184.594604,335.053833 217.404709,300.834717 
	C272.583008,243.286896 339.409149,205.659225 416.093567,185.038925 
	C464.346710,172.063721 513.538391,167.130646 563.386230,169.278473 
	C638.224060,172.503082 709.684570,189.518234 776.916321,223.045883 
	C803.478271,236.292007 828.602661,251.884750 852.038940,270.559845 
	C850.639648,270.385193 849.020752,270.132019 847.750000,269.328339 
	C796.137268,236.684799 740.486084,213.679871 681.121033,199.602798 
	C656.210938,193.695953 630.989075,189.389008 605.419983,187.958084 
	C584.167542,186.768738 562.834534,185.673080 541.578003,186.195770 
	C502.350433,187.160355 463.666534,192.931198 424.926666,202.479736 
	C425.842133,203.230667 426.247375,203.719086 426.767334,203.966904 
	C442.435608,211.435379 447.849670,223.027679 443.371979,239.951309 
	C438.449829,258.554779 427.097076,273.279480 414.424225,287.127625 
	C410.155853,291.791809 405.477448,296.080750 400.773926,300.835449 
	C394.473969,296.033569 388.206970,291.134033 382.351929,285.783691 
	C376.988403,280.882416 371.454498,280.931671 365.403717,283.912689 
	C354.189423,289.437561 345.410645,298.028290 336.637360,306.649384 
	C318.784576,324.192474 303.802216,344.065094 289.260132,364.723389 
z"/>
<path fill="#F4F6EF" opacity="1.000000" stroke="none" 
	d="
M201.084335,715.461487 
	C226.235580,744.604431 259.169769,756.205933 296.754120,757.118103 
	C329.739960,757.918640 361.583374,750.584839 393.148682,742.404480 
	C422.116302,734.897278 450.705078,725.934814 479.507935,717.780090 
	C485.250397,716.154297 491.206146,715.281860 497.460297,714.028625 
	C503.166382,731.033020 513.624573,744.930420 524.986023,758.228455 
	C510.610657,774.920837 484.327362,775.315369 467.029358,759.124023 
	C464.608826,756.858337 462.452057,754.296936 460.288544,751.773499 
	C455.688599,746.408386 450.684174,746.536011 447.055542,752.701477 
	C438.547363,767.157898 429.980408,781.598572 422.073242,796.385681 
	C408.673309,821.444641 396.531006,847.095825 388.588684,874.514709 
	C387.526978,878.180054 386.688934,881.910095 385.138550,885.793823 
	C375.559174,882.892273 366.514313,880.005676 357.630951,876.686951 
	C321.968231,863.363281 287.487427,847.662476 256.449432,825.247253 
	C234.933746,809.708679 215.842468,791.841064 202.822510,768.287720 
	C200.357483,763.828430 197.989731,759.315369 195.577087,754.827087 
	C197.370789,741.830444 199.164490,728.833862 201.084335,715.461487 
z"/>
<path fill="#F4F6EF" opacity="1.000000" stroke="none" 
	d="
M586.754761,727.014282 
	C601.416809,735.059387 616.194885,742.731506 630.125183,751.717712 
	C664.542114,773.919434 699.561340,794.955139 737.292297,811.120789 
	C756.045593,819.155579 775.528320,824.505981 796.253296,826.485352 
	C790.320435,835.444092 784.693787,844.568604 777.729492,852.521729 
	C752.747925,881.050476 722.009277,901.242554 685.770752,912.377869 
	C671.739807,916.689148 657.046265,918.843750 642.654541,921.980896 
	C644.852539,873.014282 636.338989,825.288147 625.903564,777.791687 
	C624.282227,770.412170 619.158386,768.488403 613.026306,772.873047 
	C597.033447,784.308350 580.411804,787.308716 562.795349,776.685852 
	C556.817932,773.081543 552.241150,768.130371 549.364136,761.445984 
	C563.434753,751.878601 576.881897,741.626648 586.754761,727.014282 
z"/>
<path fill="#FB615F" opacity="1.000000" stroke="none" 
	d="
M416.856598,925.111206 
	C404.357513,921.866638 403.781464,921.093872 404.074768,908.416504 
	C404.448639,892.255249 404.556335,892.143616 419.152985,885.580200 
	C451.084839,871.222046 484.795013,863.690918 519.486572,861.234497 
	C544.684937,859.450317 570.023376,859.558899 595.304199,859.081421 
	C601.940796,858.955994 608.592468,860.019348 615.242859,860.108337 
	C620.330505,860.176514 622.847107,862.241882 622.903503,867.375732 
	C623.078918,883.340027 623.786926,899.316956 623.342285,915.262634 
	C623.074951,924.848694 621.421082,934.454468 619.689087,943.923096 
	C618.287781,951.583862 617.023743,951.904968 609.259216,951.351440 
	C588.513123,949.872437 567.638794,949.494019 547.030701,946.940613 
	C514.202576,942.873230 481.516327,937.602539 448.840271,932.399902 
	C438.199493,930.705688 427.777863,927.634949 416.856598,925.111206 
z"/>
<path fill="#B2AFBE" opacity="1.000000" stroke="none" 
	d="
M642.464233,922.329407 
	C657.046265,918.843750 671.739807,916.689148 685.770752,912.377869 
	C722.009277,901.242554 752.747925,881.050476 777.729492,852.521729 
	C784.693787,844.568604 790.320435,835.444092 796.680298,826.562378 
	C796.972717,826.213135 797.145569,826.158447 798.065552,826.091064 
	C816.557739,826.959900 833.951233,825.121399 850.326660,817.909607 
	C858.157288,814.461060 865.462952,809.820496 873.006470,805.719849 
	C872.868652,833.810120 867.447754,860.617065 852.732971,884.902283 
	C839.591125,906.591492 820.527954,920.964539 796.254944,928.204041 
	C779.880737,933.087708 763.523132,938.164734 746.898804,942.044128 
	C711.063171,950.406494 674.549377,952.458252 637.860657,952.124878 
	C637.373718,952.120483 636.888245,951.952148 637.135193,951.998779 
	C638.855408,942.183777 640.564697,932.430847 642.464233,922.329407 
z"/>
<path fill="#389FF2" opacity="1.000000" stroke="none" 
	d="
M282.119019,922.900940 
	C270.074738,914.371582 262.007355,903.350891 259.891846,887.857056 
	C261.081940,888.237610 261.731628,888.321106 262.248352,888.628235 
	C303.701752,913.272461 348.797363,928.729675 395.145874,940.819824 
	C451.000000,955.389587 507.819031,964.641724 565.342346,968.998230 
	C594.534851,971.209106 623.855164,971.986389 653.135071,972.674927 
	C666.747375,972.994995 680.401062,971.559143 694.277832,971.238953 
	C672.658142,985.005798 648.217041,990.080811 623.211853,991.702454 
	C602.854431,993.022522 582.292664,993.009338 561.923035,991.831421 
	C539.744812,990.548950 517.463257,988.465149 495.622894,984.531494 
	C462.284912,978.526978 429.135376,971.265686 396.189331,963.356995 
	C365.918976,956.090637 336.459595,945.990173 307.850128,933.562866 
	C299.335846,929.864441 290.699463,926.447083 282.119019,922.900940 
z"/>
<path fill="#B1AEBD" opacity="1.000000" stroke="none" 
	d="
M195.373047,755.265991 
	C197.989731,759.315369 200.357483,763.828430 202.822510,768.287720 
	C215.842468,791.841064 234.933746,809.708679 256.449432,825.247253 
	C287.487427,847.662476 321.968231,863.363281 357.630951,876.686951 
	C366.514313,880.005676 375.559174,882.892273 384.909882,886.097656 
	C384.451172,896.067261 383.612335,905.916748 382.730316,916.273621 
	C373.466705,913.321533 363.496552,910.313477 353.639893,906.970825 
	C326.844635,897.883911 300.654205,887.317749 276.224457,872.919189 
	C261.787445,864.410400 247.138458,856.023621 233.755646,846.016235 
	C210.168030,828.377869 198.683121,803.606628 195.933411,774.615540 
	C195.338593,768.344238 195.406418,762.010132 195.373047,755.265991 
z"/>
<path fill="#A76F55" opacity="1.000000" stroke="none" 
	d="
M873.070557,805.281677 
	C865.462952,809.820496 858.157288,814.461060 850.326660,817.909607 
	C833.951233,825.121399 816.557739,826.959900 798.329651,826.026611 
	C803.496033,814.132446 809.740540,802.530701 814.649414,790.388977 
	C821.338257,773.844910 825.707336,756.575195 826.001892,738.577026 
	C826.131287,730.671875 825.372070,722.755249 825.306641,714.841431 
	C825.293579,713.265198 826.234131,711.327942 827.356812,710.149963 
	C838.534119,698.422974 848.411133,685.829163 855.985474,671.381348 
	C866.260559,651.782043 873.259399,631.098938 878.000793,609.569885 
	C879.279053,603.765808 880.588318,597.968567 882.203613,592.008240 
	C880.844666,606.016907 879.792786,620.294983 877.342712,634.328979 
	C873.433228,656.722778 866.016541,678.099121 855.958618,698.505859 
	C853.746277,702.994507 853.459656,707.172302 855.433838,711.880188 
	C867.896545,741.601685 873.571533,772.648926 873.070557,805.281677 
z"/>
<path fill="#2B62AF" opacity="1.000000" stroke="none" 
	d="
M282.195251,923.231628 
	C290.699463,926.447083 299.335846,929.864441 307.850128,933.562866 
	C336.459595,945.990173 365.918976,956.090637 396.189331,963.356995 
	C429.135376,971.265686 462.284912,978.526978 495.622894,984.531494 
	C517.463257,988.465149 539.744812,990.548950 561.923035,991.831421 
	C582.292664,993.009338 602.854431,993.022522 623.211853,991.702454 
	C648.217041,990.080811 672.658142,985.005798 694.734741,971.304443 
	C707.136658,969.418518 719.385498,968.144897 731.492371,966.050842 
	C742.786438,964.097412 753.929504,961.271057 765.139587,958.831726 
	C766.231323,958.594177 767.327271,958.376038 769.759949,957.870911 
	C768.330505,960.886963 767.546204,963.130432 766.298035,965.076416 
	C759.928772,975.006042 750.370056,981.021423 739.972900,985.808716 
	C722.693359,993.765137 704.258850,997.823547 685.515320,999.599915 
	C665.663513,1001.481262 645.607422,1003.341370 625.748535,1002.539124 
	C591.878052,1001.170898 558.019592,998.421143 524.287903,994.964966 
	C477.903290,990.212341 432.045929,981.999512 386.946869,969.983887 
	C356.141357,961.776489 326.019043,951.672913 298.499298,935.131531 
	C292.822876,931.719543 287.667175,927.441284 282.195251,923.231628 
z"/>
<path fill="#ECD8C0" opacity="1.000000" stroke="none" 
	d="
M742.603394,412.927643 
	C740.037292,416.651428 737.243042,420.495483 734.196411,424.127869 
	C709.077332,454.076416 689.230225,487.218231 674.137207,523.230591 
	C670.882446,530.996643 670.352722,531.394958 662.487000,527.643860 
	C647.474060,520.484253 632.704407,512.782410 617.494141,506.076019 
	C595.163330,496.230011 571.611267,490.377136 547.234741,486.268951 
	C572.966736,487.118561 598.546265,491.041901 623.300415,499.404755 
	C633.361694,502.803833 643.184448,506.908020 653.123169,510.671448 
	C659.996155,513.273987 665.083252,511.420380 667.792908,504.777863 
	C677.457642,481.086243 692.831848,461.279724 710.293030,443.061554 
	C720.408630,432.507324 731.568298,422.953674 742.603394,412.927643 
z"/>
<path fill="#EDD9C1" opacity="1.000000" stroke="none" 
	d="
M384.005676,314.418518 
	C367.829468,326.832428 351.121979,338.315765 332.715393,347.095367 
	C331.081360,347.874786 329.351868,348.454010 327.291138,349.032623 
	C336.108276,338.539154 345.080933,327.932343 354.583954,317.824158 
	C359.544067,312.548187 365.437683,308.149872 371.295868,303.016724 
	C375.756866,306.955475 379.816956,310.540222 384.005676,314.418518 
z"/>
<path fill="#E4EFEF" opacity="1.000000" stroke="none" 
	d="
M853.091309,271.748718 
	C852.681274,271.788818 852.163879,271.563293 851.889099,271.131470 
	C852.415833,271.111176 852.699829,271.297150 853.091309,271.748718 
z"/>
<path fill="#EDD9C1" opacity="1.000000" stroke="none" 
	d="
M326.676147,348.959473 
	C326.748810,349.208984 326.514282,349.510254 325.999908,349.936218 
	C325.936371,349.711029 326.152649,349.361145 326.676147,348.959473 
z"/>
<path fill="#ECD8C0" opacity="1.000000" stroke="none" 
	d="
M743.707825,411.968750 
	C743.812256,412.226318 743.624756,412.530914 743.170471,412.905548 
	C743.074463,412.655670 743.245178,412.335724 743.707825,411.968750 
z"/>
<path fill="#ECD8C0" opacity="1.000000" stroke="none" 
	d="
M744.818359,410.874084 
	C744.870850,411.055267 744.660583,411.392639 744.188599,411.871216 
	C744.136353,411.685028 744.345947,411.357666 744.818359,410.874084 
z"/>
<path fill="#F3F6EF" opacity="1.000000" stroke="none" 
	d="
M287.868317,564.245422 
	C282.008453,555.996704 279.647522,546.515808 278.543671,536.701233 
	C276.656769,519.924683 278.966766,503.583923 284.341675,486.429321 
	C287.941498,489.744324 290.989746,492.551392 294.240143,495.544617 
	C303.254150,443.417755 324.131348,397.210754 361.851257,359.216400 
	C378.808380,400.420990 383.454315,442.989807 378.560303,486.729462 
	C378.349670,488.611786 376.538635,490.830078 374.848785,491.948273 
	C363.894928,499.196533 352.597107,505.931702 341.733948,513.309021 
	C321.047638,527.357117 303.553864,544.865479 287.868317,564.245422 
z"/>
<path fill="#F3F6EF" opacity="1.000000" stroke="none" 
	d="
M817.231506,420.636719 
	C827.500732,437.580292 833.956055,456.063446 838.976013,475.087860 
	C846.870667,505.006622 848.688904,535.415283 845.902954,566.161926 
	C845.783081,567.484802 845.802734,568.820190 845.753906,570.580933 
	C845.825500,570.995972 845.900757,570.979980 845.975952,570.963928 
	C849.657654,568.937195 853.339355,566.910400 858.052368,564.315857 
	C857.426636,592.478943 853.659302,618.041992 833.509460,638.458069 
	C825.324036,623.879639 818.852783,608.296814 809.345581,594.862549 
	C797.094177,577.550476 782.362488,561.999268 768.857117,545.559814 
	C767.602783,544.032959 766.672119,541.439087 766.978821,539.568237 
	C768.374817,531.054077 769.874146,522.518799 772.050354,514.177429 
	C780.954102,480.050049 795.348450,448.520996 817.231506,420.636719 
z"/>
<path fill="#1B0648" opacity="1.000000" stroke="none" 
	d="
M439.960693,629.039062 
	C456.144440,645.076172 460.180389,668.641479 450.400665,688.647522 
	C440.972534,707.934265 419.457428,719.576172 398.019989,716.991150 
	C373.338409,714.014893 353.597900,692.454773 353.038605,667.863464 
	C352.442505,641.654846 370.492249,619.002625 395.546753,615.217957 
	C412.271393,612.691589 427.230896,616.955444 439.960693,629.039062 
M418.186523,694.856750 
	C433.669769,686.502869 440.231995,670.394836 434.501190,654.809692 
	C428.991425,639.825684 412.940674,630.976807 397.631378,634.483215 
	C378.836792,638.787842 368.031158,657.246765 373.686005,675.388245 
	C379.463623,693.923584 398.845428,702.658447 418.186523,694.856750 
z"/>
<path fill="#1B0648" opacity="1.000000" stroke="none" 
	d="
M740.938293,699.264587 
	C742.684753,725.109741 725.063416,746.442139 703.548950,752.294250 
	C668.539612,761.817017 635.250427,733.964294 638.779602,697.777344 
	C642.537598,659.244202 686.180420,638.512268 718.152344,660.148804 
	C731.804565,669.387634 739.185791,682.467041 740.938293,699.264587 
M699.100159,672.096802 
	C682.503052,667.701904 666.242188,675.408386 659.998962,690.628052 
	C654.010010,705.227844 659.960144,723.049866 673.356812,730.638062 
	C687.916565,738.885071 705.947693,735.158325 715.717529,721.772400 
	C728.700317,703.984131 720.100891,678.998840 699.100159,672.096802 
z"/>
<path fill="#1C0749" opacity="1.000000" stroke="none" 
	d="
M287.762299,564.561401 
	C303.553864,544.865479 321.047638,527.357117 341.733948,513.309021 
	C352.597107,505.931702 363.894928,499.196533 374.848785,491.948273 
	C376.538635,490.830078 378.349670,488.611786 378.560303,486.729462 
	C383.454315,442.989807 378.808380,400.420990 362.156189,359.061218 
	C361.122620,353.010406 362.772064,349.459076 366.842316,348.183289 
	C371.150543,346.832916 374.660461,348.941559 377.110321,354.510284 
	C390.045197,383.912933 397.282715,414.760468 398.821075,446.748657 
	C399.593750,462.814972 398.336578,478.978363 398.015503,495.098206 
	C397.916534,500.068542 395.505249,503.334167 391.252136,505.899475 
	C373.458954,516.631592 355.464905,527.083191 338.188446,538.603394 
	C323.586182,548.340393 311.506531,561.129700 300.183533,574.530334 
	C297.682953,577.489746 294.958466,579.728149 290.743958,578.495728 
	C285.206787,576.876526 282.594666,569.837402 287.762299,564.561401 
z"/>
<path fill="#1C0748" opacity="1.000000" stroke="none" 
	d="
M817.334961,420.330811 
	C795.348450,448.520996 780.954102,480.050049 772.050354,514.177429 
	C769.874146,522.518799 768.374817,531.054077 766.978821,539.568237 
	C766.672119,541.439087 767.602783,544.032959 768.857117,545.559814 
	C782.362488,561.999268 797.094177,577.550476 809.345581,594.862549 
	C818.852783,608.296814 825.324036,623.879639 833.332764,638.767334 
	C833.829163,640.151550 834.234619,641.259277 834.428467,642.402954 
	C835.139709,646.599792 833.391663,649.578918 829.556824,651.171387 
	C825.793701,652.734192 822.582764,651.455078 820.409912,648.241272 
	C818.841370,645.921387 817.796875,643.238464 816.591370,640.683167 
	C804.370850,614.780334 787.294983,592.394653 767.091309,572.268677 
	C761.427368,566.626648 755.901672,560.839355 750.089905,555.354492 
	C746.232056,551.713623 744.879395,547.821899 745.813599,542.436096 
	C753.929871,495.648865 772.180847,453.339233 801.195374,415.710999 
	C802.211304,414.393463 803.295227,413.124268 804.405090,411.884064 
	C808.015503,407.849457 811.777283,406.928894 815.325745,409.529358 
	C819.095459,412.291962 819.847534,415.899353 817.334961,420.330811 
z"/>
<path fill="#F4F6EF" opacity="1.000000" stroke="none" 
	d="
M448.890442,600.122437 
	C440.522095,600.421692 432.844574,599.832703 425.652191,595.996460 
	C414.396149,589.992920 412.182648,578.742676 420.433960,569.000061 
	C426.006073,562.420898 433.203094,558.146973 441.213623,555.770752 
	C457.481781,550.944946 474.081604,549.012390 490.891510,553.051758 
	C493.274109,553.624268 495.672577,554.575317 497.758362,555.850525 
	C502.861847,558.970886 504.205597,563.130493 501.946533,568.668518 
	C501.017975,570.944824 499.809967,573.263428 498.184937,575.074585 
	C485.127716,589.626770 469.204926,598.713806 448.890442,600.122437 
z"/>
<path fill="#F4F6EF" opacity="1.000000" stroke="none" 
	d="
M658.321533,575.588379 
	C672.241150,581.241028 685.007996,587.947388 693.730042,600.268372 
	C696.003113,603.479309 697.969360,607.099182 699.200684,610.820984 
	C703.442322,623.641052 696.309814,633.689636 682.798462,633.942444 
	C671.628174,634.151428 661.483093,630.436707 652.439209,624.119446 
	C638.879700,614.648132 628.287842,602.662476 623.939026,586.296631 
	C621.433472,576.867371 626.275269,570.609741 636.077576,571.204346 
	C643.432068,571.650513 650.674011,573.951599 658.321533,575.588379 
z"/>
<path fill="#E4EFF0" opacity="1.000000" stroke="none" 
	d="
M483.058899,248.607239 
	C480.197021,240.038727 483.574097,233.521576 488.893677,227.804581 
	C496.927338,219.170822 507.534454,215.012711 518.670959,212.645798 
	C531.864258,209.841736 545.103455,209.891861 557.744385,215.730286 
	C558.649536,216.148315 559.561523,216.562683 560.425476,217.057007 
	C574.634399,225.186798 576.409058,238.967209 564.736145,250.454971 
	C548.567688,266.367004 515.366577,271.430328 495.239746,261.063446 
	C489.922668,258.324738 485.492096,254.713699 483.058899,248.607239 
z"/>
<path fill="#E49D5B" opacity="1.000000" stroke="none" 
	d="
M845.993896,570.985413 
	C845.900757,570.979980 845.825500,570.995972 845.900696,571.029480 
	C846.051086,571.046936 846.011902,571.006897 845.993896,570.985413 
z"/>
<path fill="#F3F5EF" opacity="1.000000" stroke="none" 
	d="
M417.826660,694.987976 
	C398.845428,702.658447 379.463623,693.923584 373.686005,675.388245 
	C368.031158,657.246765 378.836792,638.787842 397.631378,634.483215 
	C412.940674,630.976807 428.991425,639.825684 434.501190,654.809692 
	C440.231995,670.394836 433.669769,686.502869 417.826660,694.987976 
z"/>
<path fill="#F3F5EF" opacity="1.000000" stroke="none" 
	d="
M699.484985,672.225830 
	C720.100891,678.998840 728.700317,703.984131 715.717529,721.772400 
	C705.947693,735.158325 687.916565,738.885071 673.356812,730.638062 
	C659.960144,723.049866 654.010010,705.227844 659.998962,690.628052 
	C666.242188,675.408386 682.503052,667.701904 699.484985,672.225830 
z"/>
</svg>