<svg version="1.1" id="Layer_1" xmlns="http://www.w3.org/2000/svg" xmlns:xlink="http://www.w3.org/1999/xlink" x="0px" y="0px"
	 width="100%" viewBox="0 0 1080 1080" enable-background="new 0 0 1080 1080" xml:space="preserve">
<path fill="#000000" opacity="1.000000" stroke="none" 
	d="
M1081.000000,364.000000 
	C1081.000000,602.961121 1081.000000,841.922180 1081.000000,1080.941650 
	C721.097534,1080.941650 361.195099,1080.941650 1.000000,1080.941650 
	C1.000000,837.970703 1.000000,594.941284 1.348050,351.486755 
	C4.578049,353.359192 7.119116,356.716278 10.400594,357.772003 
	C25.075966,362.493347 37.076580,370.971527 47.597927,381.978363 
	C49.954453,384.443665 50.632034,386.760681 49.880642,390.015533 
	C46.637531,404.063751 42.702133,418.025726 40.633144,432.253815 
	C37.682343,452.546082 35.770519,473.014282 34.155361,493.465790 
	C33.298283,504.318390 33.884598,515.296143 34.044746,526.214050 
	C34.154221,533.677612 34.271393,541.175720 35.055164,548.587585 
	C36.812340,565.204529 37.878033,582.007507 41.261253,598.312256 
	C45.936996,620.846130 51.511833,643.302307 58.503422,665.216858 
	C65.774323,688.006897 76.068405,709.683899 87.764015,730.669006 
	C102.479347,757.072449 119.759712,781.665588 140.981674,803.068970 
	C154.951355,817.158081 170.355209,829.984802 186.080795,842.128601 
	C202.017502,854.435425 219.911743,863.870972 238.571381,871.550415 
	C242.468811,873.154419 244.806305,874.983704 246.232483,879.013611 
	C256.495300,908.013184 267.896484,936.541321 282.367462,963.754883 
	C294.834625,987.200073 308.834808,1009.595337 328.971832,1027.323242 
	C342.725189,1039.431152 358.339874,1047.608154 377.524536,1043.894897 
	C392.367645,1041.022217 404.337708,1033.708130 411.664337,1019.792114 
	C417.966400,1007.822083 419.623688,994.932800 419.966187,981.736389 
	C420.146240,974.798889 420.670654,974.325623 427.312317,975.047302 
	C440.310425,976.459656 453.307709,977.984009 466.344604,978.907043 
	C480.740448,979.926331 495.185211,980.970093 509.600067,980.861511 
	C543.687683,980.605042 577.786743,980.116882 611.848755,978.850037 
	C633.183411,978.056519 654.459045,975.678223 675.761414,974.014587 
	C687.002991,973.136597 686.984436,973.140137 687.008057,984.677673 
	C687.037415,999.025757 689.378296,1012.689392 697.867615,1024.825806 
	C709.772461,1041.845337 734.443787,1049.100952 753.745483,1041.774048 
	C770.752563,1035.318237 783.456665,1023.605896 794.368286,1009.834167 
	C816.102600,982.402710 831.923279,951.533569 845.006592,919.231873 
	C851.365051,903.533569 857.082275,887.576416 863.256348,871.801636 
	C864.170715,869.465454 865.522888,866.666748 867.506531,865.500244 
	C873.790405,861.805237 880.536560,858.908142 886.983582,855.476440 
	C908.219849,844.172424 927.592224,830.079895 944.760681,813.387451 
	C958.060547,800.456360 970.726379,786.643127 982.079529,771.986938 
	C1006.983398,739.837646 1025.485474,704.030762 1038.947754,665.650513 
	C1047.259766,641.953552 1054.120972,617.781067 1057.586914,592.941223 
	C1060.718140,570.501526 1062.529053,547.827515 1063.781860,525.193726 
	C1064.587891,510.630798 1063.633179,495.938721 1062.905396,481.332550 
	C1062.320801,469.598114 1061.615723,457.783844 1059.670532,446.222687 
	C1056.593994,427.938995 1052.389282,409.846436 1048.807983,391.644257 
	C1048.467651,389.914398 1048.464355,387.244415 1049.495239,386.267426 
	C1054.395142,381.623322 1059.445679,377.043091 1064.950562,373.160187 
	C1069.961182,369.625824 1075.624390,367.016876 1081.000000,364.000000 
z"/>
<path fill="#190548" opacity="1.000000" stroke="none" 
	d="
M1081.000000,363.550049 
	C1075.624390,367.016876 1069.961182,369.625824 1064.950562,373.160187 
	C1059.445679,377.043091 1054.395142,381.623322 1049.495239,386.267426 
	C1048.464355,387.244415 1048.467651,389.914398 1048.807983,391.644257 
	C1052.389282,409.846436 1056.593994,427.938995 1059.670532,446.222687 
	C1061.615723,457.783844 1062.320801,469.598114 1062.905396,481.332550 
	C1063.633179,495.938721 1064.587891,510.630798 1063.781860,525.193726 
	C1062.529053,547.827515 1060.718140,570.501526 1057.586914,592.941223 
	C1054.120972,617.781067 1047.259766,641.953552 1038.947754,665.650513 
	C1025.485474,704.030762 1006.983398,739.837646 982.079529,771.986938 
	C970.726379,786.643127 958.060547,800.456360 944.760681,813.387451 
	C927.592224,830.079895 908.219849,844.172424 886.983582,855.476440 
	C880.536560,858.908142 873.790405,861.805237 867.506531,865.500244 
	C865.522888,866.666748 864.170715,869.465454 863.256348,871.801636 
	C857.082275,887.576416 851.365051,903.533569 845.006592,919.231873 
	C831.923279,951.533569 816.102600,982.402710 794.368286,1009.834167 
	C783.456665,1023.605896 770.752563,1035.318237 753.745483,1041.774048 
	C734.443787,1049.100952 709.772461,1041.845337 697.867615,1024.825806 
	C689.378296,1012.689392 687.037415,999.025757 687.008057,984.677673 
	C686.984436,973.140137 687.002991,973.136597 675.761414,974.014587 
	C654.459045,975.678223 633.183411,978.056519 611.848755,978.850037 
	C577.786743,980.116882 543.687683,980.605042 509.600067,980.861511 
	C495.185211,980.970093 480.740448,979.926331 466.344604,978.907043 
	C453.307709,977.984009 440.310425,976.459656 427.312317,975.047302 
	C420.670654,974.325623 420.146240,974.798889 419.966187,981.736389 
	C419.623688,994.932800 417.966400,1007.822083 411.664337,1019.792114 
	C404.337708,1033.708130 392.367645,1041.022217 377.524536,1043.894897 
	C358.339874,1047.608154 342.725189,1039.431152 328.971832,1027.323242 
	C308.834808,1009.595337 294.834625,987.200073 282.367462,963.754883 
	C267.896484,936.541321 256.495300,908.013184 246.232483,879.013611 
	C244.806305,874.983704 242.468811,873.154419 238.571381,871.550415 
	C219.911743,863.870972 202.017502,854.435425 186.080795,842.128601 
	C170.355209,829.984802 154.951355,817.158081 140.981674,803.068970 
	C119.759712,781.665588 102.479347,757.072449 87.764015,730.669006 
	C76.068405,709.683899 65.774323,688.006897 58.503422,665.216858 
	C51.511833,643.302307 45.936996,620.846130 41.261253,598.312256 
	C37.878033,582.007507 36.812340,565.204529 35.055164,548.587585 
	C34.271393,541.175720 34.154221,533.677612 34.044746,526.214050 
	C33.884598,515.296143 33.298283,504.318390 34.155361,493.465790 
	C35.770519,473.014282 37.682343,452.546082 40.633144,432.253815 
	C42.702133,418.025726 46.637531,404.063751 49.880642,390.015533 
	C50.632034,386.760681 49.954453,384.443665 47.597927,381.978363 
	C37.076580,370.971527 25.075966,362.493347 10.400594,357.772003 
	C7.119116,356.716278 4.578049,353.359192 1.348050,351.030823 
	C1.000000,348.629425 1.000000,346.258881 1.342109,343.417114 
	C4.513106,340.774719 7.023695,337.688080 10.220963,336.576324 
	C37.051151,327.247284 54.676460,308.250732 66.693825,283.381775 
	C74.712738,266.787262 78.459312,248.943253 80.959618,230.806931 
	C82.006538,223.212967 84.932358,220.184875 91.496185,220.007065 
	C97.923790,219.832947 101.722328,223.326813 103.005424,230.587082 
	C104.633018,239.796616 106.263695,249.005615 108.113937,259.463440 
	C109.516914,257.514923 110.038788,256.737061 110.613152,256.000183 
	C124.877403,237.699173 138.552094,218.893127 153.624252,201.283279 
	C163.752502,189.449722 175.357788,178.724777 187.207108,168.558517 
	C202.666946,155.294525 218.540436,142.400635 235.101166,130.557358 
	C261.804596,111.460609 290.701111,96.096863 320.834656,82.988152 
	C348.186615,71.089478 376.241821,61.108826 405.222107,54.423874 
	C430.028168,48.701809 455.290771,44.748928 480.508209,41.095448 
	C496.863708,38.725876 513.483154,37.614334 530.016602,37.187263 
	C548.288818,36.715282 566.609802,37.370407 584.887085,38.098888 
	C598.453613,38.639614 612.083313,39.384670 625.506653,41.292316 
	C643.523438,43.852760 661.446655,47.245251 679.271118,50.949429 
	C718.140198,59.027008 755.456482,71.941689 791.367004,88.780388 
	C818.500427,101.503448 844.816895,115.875458 868.696533,134.053253 
	C887.409302,148.297806 905.729858,163.186295 923.101196,179.021164 
	C935.818176,190.613388 947.572021,203.530289 958.207458,217.072235 
	C972.528320,235.306839 985.481445,254.626251 998.757812,273.664032 
	C1002.666809,279.269501 1005.682556,285.497803 1009.505615,292.130859 
	C1010.225647,290.164032 1010.690979,289.121094 1010.992249,288.032715 
	C1012.864624,281.268524 1016.580261,278.520752 1023.258301,279.015289 
	C1028.382812,279.394775 1032.249634,283.998779 1033.049072,289.939789 
	C1033.798706,295.510315 1034.681396,301.113312 1036.153076,306.526001 
	C1039.425171,318.560516 1044.535889,330.089172 1054.142334,338.096802 
	C1062.195801,344.809845 1071.981323,349.444916 1081.000000,355.000000 
	C1081.000000,357.700012 1081.000000,360.400024 1081.000000,363.550049 
M818.986816,128.224152 
	C818.336975,128.092117 817.687073,127.960060 817.047302,127.918900 
	C817.047302,127.918900 817.136169,127.897240 817.084717,127.184547 
	C794.930298,114.275047 771.775391,103.442505 747.793518,94.439888 
	C660.248840,61.576393 569.938599,52.631496 477.406738,63.766434 
	C415.638062,71.199440 356.786469,88.472107 301.348358,116.921501 
	C225.917328,155.630753 164.984406,210.217438 120.128998,282.438263 
	C118.269249,285.432587 118.137375,287.800323 120.098686,290.453735 
	C125.307617,297.500732 130.056519,304.972565 135.927673,311.420135 
	C141.214813,317.226349 147.747223,321.898651 154.092560,327.658600 
	C154.722336,327.802124 155.352112,327.945679 155.988098,328.017395 
	C155.988098,328.017395 155.930634,328.060913 156.082748,328.750488 
	C161.809753,331.292480 167.448059,334.065247 173.289078,336.310577 
	C178.956909,338.489288 181.989426,341.867401 181.979721,347.092224 
	C181.970367,352.126221 179.174240,355.977264 173.714294,357.664093 
	C150.122559,364.952667 133.735046,380.794525 121.633926,401.594849 
	C110.516838,420.703796 104.960007,441.571106 102.943779,463.466064 
	C102.381615,469.570801 98.145630,473.840851 92.407494,473.998169 
	C86.438347,474.161804 82.027756,470.407959 81.075958,464.359955 
	C80.663246,461.737396 80.240479,459.116486 79.874886,455.759399 
	C77.787292,440.942444 74.268120,426.540039 67.479034,412.081146 
	C60.743568,441.030060 57.305405,469.440002 56.246609,498.140106 
	C55.072044,529.978149 57.059750,561.660645 63.114212,592.938110 
	C66.254112,609.158875 70.892738,625.089478 74.792877,641.920532 
	C88.830673,687.022644 108.974594,729.065125 138.885498,765.852783 
	C149.309326,778.673157 161.570847,789.999329 173.098602,802.520996 
	C173.303589,802.521790 173.508591,802.522583 173.713577,802.523376 
	C173.501602,802.318054 173.289627,802.112793 173.207855,801.152954 
	C159.347458,767.520874 157.319290,732.609314 161.995102,696.987366 
	C166.306854,664.138977 176.059982,632.996643 191.846268,603.850708 
	C194.322357,599.279114 194.766861,595.375549 193.180557,590.398376 
	C185.706070,566.946777 181.211182,542.788025 180.374847,518.265137 
	C179.713577,498.876099 180.799225,479.370270 182.117722,459.984924 
	C183.889313,433.938019 189.417114,408.429260 197.726181,383.761719 
	C205.432220,360.884460 214.888748,338.596893 223.952896,315.528290 
	C224.609131,314.387665 225.332932,313.280212 225.911667,312.101532 
	C238.529846,286.403534 252.734802,261.634033 270.859924,239.402725 
	C277.524811,231.227951 285.341766,223.884918 293.271576,216.885757 
	C298.821655,211.987045 305.387024,211.513992 312.042084,216.074661 
	C319.138062,220.937515 326.587128,225.285156 334.394226,230.326538 
	C357.052399,246.579086 378.012115,264.770325 396.939636,285.264923 
	C425.691162,316.396973 450.502136,350.091125 464.927185,390.475769 
	C465.830566,393.004913 467.063354,393.169830 469.453583,392.545593 
	C497.353851,385.258820 525.692078,381.154755 554.574341,382.124298 
	C568.821960,382.602570 583.101440,383.428223 597.253296,385.071533 
	C609.683289,386.514893 621.955505,389.317902 634.517090,391.559601 
	C635.970581,387.567596 637.401062,383.352478 639.038818,379.219452 
	C640.748535,374.904541 642.495789,370.590729 644.505005,366.410278 
	C664.673462,324.447876 693.377441,288.931396 727.158020,257.275757 
	C745.419434,240.163040 765.128784,224.944595 786.415894,211.739243 
	C791.875732,208.352264 797.277222,207.838852 802.278381,211.379028 
	C808.341858,215.671173 814.378052,220.291260 819.394165,225.722488 
	C838.928467,246.873276 854.389832,270.947937 867.789246,296.309937 
	C902.467957,361.948578 923.746033,431.062805 922.104675,506.190765 
	C921.576477,530.368713 918.797913,554.211060 912.210754,577.368469 
	C909.260925,587.738831 910.424683,595.716980 915.439148,605.231873 
	C932.386169,637.388428 942.139038,671.821472 945.131775,708.210449 
	C946.904785,729.768494 945.709595,750.975586 940.871216,771.995544 
	C939.538940,777.783630 937.663574,783.446655 935.821350,789.926880 
	C937.003906,789.080627 937.439087,788.838318 937.788452,788.505798 
	C938.753479,787.587036 939.704163,786.651001 940.622803,785.685974 
	C974.106140,750.509155 998.589966,709.803650 1015.377075,664.326294 
	C1030.885620,622.312744 1039.701660,578.913818 1040.862061,534.201965 
	C1041.438965,511.974304 1039.876343,489.683899 1039.034912,467.431183 
	C1038.785156,460.824371 1037.858887,454.226715 1036.946655,447.666077 
	C1036.059937,441.289795 1034.793579,434.966370 1033.538574,427.722626 
	C1032.910767,429.389038 1032.595093,430.125458 1032.353027,430.885376 
	C1030.296509,437.340149 1026.602173,440.286285 1020.971497,439.941956 
	C1015.758362,439.623169 1012.258728,436.156769 1010.974915,429.939270 
	C1010.272339,426.536713 1009.776062,423.089661 1009.012573,419.701935 
	C1003.925842,397.130341 994.328674,378.079346 970.642639,369.633118 
	C968.125549,368.735565 965.565186,366.179352 964.359497,363.734497 
	C961.324768,357.580322 964.382019,351.760376 971.756042,348.999908 
	C982.733765,344.890350 991.303101,337.903259 997.881042,328.264984 
	C999.753113,325.521851 1000.149109,323.165375 998.432556,320.110474 
	C990.375366,305.770721 983.149597,290.923828 974.455688,276.988800 
	C936.924316,216.831635 886.596985,169.629440 826.465332,132.560181 
	C824.826599,131.549911 822.852112,131.084244 821.088013,129.584610 
	C820.395508,129.345184 819.703003,129.105759 819.029114,128.957565 
	C819.029114,128.957565 819.118835,128.932678 818.986816,128.224152 
M720.981140,295.985107 
	C720.981140,295.985107 720.952759,295.921722 720.239563,296.165283 
	C720.076538,296.753754 719.913513,297.342224 719.894226,297.906921 
	C719.894226,297.906921 719.853394,297.767090 719.191284,297.398804 
	C709.686157,309.181702 699.656372,320.584778 690.791199,332.830963 
	C675.028198,354.605682 661.692627,377.781006 654.442200,403.959686 
	C651.090027,416.063416 647.425720,418.430817 635.527405,415.326477 
	C605.894653,407.595154 575.857666,403.171600 545.161987,404.540863 
	C534.554993,405.014038 523.975220,406.097656 512.471008,406.834778 
	C495.889557,410.336487 479.280945,413.716064 462.737793,417.390228 
	C454.146790,419.298187 449.745758,416.626312 446.866913,408.300598 
	C443.182220,397.644379 439.599243,386.835510 434.604126,376.771576 
	C418.695557,344.719635 396.819336,316.892456 371.811188,291.495972 
	C355.439697,274.870270 337.916199,259.549225 317.894562,246.211304 
	C313.998230,243.660248 309.980103,241.273056 306.248962,238.499710 
	C303.818604,236.693237 302.122925,237.046066 300.390717,239.209702 
	C292.596619,248.945190 284.431000,258.410400 277.113525,268.491455 
	C271.488983,276.240234 266.928741,284.761597 261.960327,292.971436 
	C261.960327,292.971436 261.969513,292.899445 261.363495,292.959106 
	C261.226562,293.333862 261.089630,293.708649 260.396362,294.462860 
	C239.535416,330.671875 223.523697,368.884552 213.391708,409.457306 
	C197.996643,471.105591 196.959503,532.486877 217.518723,593.348328 
	C219.065125,597.926147 218.333832,601.942688 216.063156,606.215942 
	C210.921570,615.891846 205.652344,625.570801 201.494019,635.683899 
	C192.166351,658.368958 185.602493,681.845642 183.300232,707.201172 
	C183.372177,721.412842 183.444107,735.624573 183.273819,750.640625 
	C185.157333,767.267761 189.163696,783.309143 196.857742,798.258057 
	C205.196167,814.459045 216.291183,828.285645 232.124390,838.438293 
	C232.330276,838.385803 232.536148,838.333252 232.742050,838.280762 
	C232.601273,838.044556 232.460510,837.808289 232.397400,836.783875 
	C229.537582,822.163757 226.677765,807.543701 223.859512,792.085632 
	C221.780426,771.517212 223.368774,751.709473 236.451004,733.789124 
	C253.785522,716.151855 275.883118,711.890076 297.800873,722.473328 
	C303.862610,725.400330 309.294281,729.632263 315.332092,733.803894 
	C317.714142,736.125427 320.148285,738.396179 322.470032,740.776489 
	C342.139374,760.942322 355.917450,785.018860 367.768250,810.231567 
	C375.310974,826.278809 381.867859,842.789429 388.896362,859.854858 
	C392.404785,870.067993 395.808777,880.319580 399.538147,890.451355 
	C400.075958,891.912476 402.084991,893.660339 403.570587,893.821106 
	C429.525208,896.630310 455.451599,900.245361 481.491913,901.576416 
	C512.371887,903.154907 543.358398,903.257751 574.291687,903.031982 
	C615.254578,902.733032 656.002380,899.100403 696.608459,893.539124 
	C704.442261,892.466248 707.878357,889.374634 709.862183,882.103821 
	C712.645569,871.902161 716.525269,861.999634 720.291016,851.362122 
	C724.868652,840.881226 729.256897,830.312805 734.058899,819.935730 
	C749.286133,787.029114 766.327515,755.322144 795.026550,730.967163 
	C811.247437,718.721863 828.838806,712.979980 849.569763,719.930908 
	C855.320129,723.297119 861.070435,726.663269 867.152649,730.632812 
	C870.828552,736.292053 875.369202,741.577271 878.010620,747.683960 
	C884.672852,763.086853 884.250854,779.518494 882.362305,795.737427 
	C880.947876,807.884949 878.114990,819.867310 875.542847,832.083008 
	C875.826477,832.180725 876.110046,832.278381 877.042053,832.176331 
	C883.741882,825.775146 891.165955,819.968750 897.004578,812.860168 
	C913.953430,792.224731 921.422607,767.691284 922.750977,741.481689 
	C923.467468,727.343140 921.822144,713.084839 921.326355,698.014465 
	C916.857849,663.781921 906.044373,631.704346 888.290405,602.077393 
	C885.199158,596.918823 884.643005,592.250305 886.493103,586.530212 
	C897.515442,552.452637 901.236084,517.389587 899.789368,481.716064 
	C899.576172,476.458496 898.659241,471.229492 898.113647,465.086365 
	C897.668945,460.110840 897.495911,455.093597 896.738708,450.166077 
	C885.567871,377.474152 857.551392,311.881866 813.258423,253.247086 
	C807.784973,246.001297 801.412109,239.434875 795.394775,232.482971 
	C790.280457,235.900604 785.933777,238.663727 781.734497,241.635117 
	C759.916565,257.073334 739.752869,274.392303 721.434937,294.804047 
	C721.260986,295.202148 721.086975,295.600220 720.981140,295.985107 
M693.666504,935.603455 
	C695.397461,929.201782 697.128418,922.800049 699.018555,915.809448 
	C602.019714,928.311096 505.314270,929.400085 408.149933,917.369629 
	C410.450287,925.945984 412.628204,934.065735 414.837463,942.996155 
	C416.020416,946.352356 414.027435,951.250366 420.222687,952.019165 
	C460.070007,956.964172 500.117981,958.399597 540.202881,958.621399 
	C561.648010,958.740051 583.129517,958.170227 604.541016,956.961426 
	C629.258850,955.565918 653.938110,953.344910 678.593811,951.048401 
	C691.868835,949.811890 691.830688,949.402283 693.666504,935.603455 
M848.058228,859.209961 
	C852.718811,838.836304 857.911133,818.564941 861.854980,798.053467 
	C864.529175,784.145874 864.753662,769.902893 861.170227,755.932007 
	C855.886597,735.332092 838.642822,727.483887 819.601990,736.878601 
	C807.175537,743.009644 797.758118,752.632751 789.598267,763.435120 
	C763.442810,798.060730 743.917175,836.254700 730.128723,877.317444 
	C724.641907,893.657349 720.412415,910.419434 715.156372,927.550415 
	C714.573914,929.974609 713.930542,932.385986 713.418579,934.824951 
	C709.138916,955.214661 705.209778,975.627014 707.989014,996.649841 
	C711.482605,1023.075989 731.593323,1033.852539 754.456604,1020.254761 
	C763.959778,1014.602783 772.688782,1006.584778 779.669067,997.945374 
	C805.502014,965.972412 824.145264,929.840881 837.942383,891.208801 
	C841.617798,880.917480 844.513184,870.347534 848.058228,859.209961 
M256.977600,858.696777 
	C264.184509,885.417419 273.929810,911.152893 286.541870,935.813477 
	C298.147491,958.506104 310.272156,980.873108 326.666199,1000.566528 
	C335.451691,1011.120178 345.100739,1020.851746 358.244629,1025.926514 
	C376.516724,1032.981201 391.678711,1025.365601 397.088837,1006.619934 
	C400.419464,995.079590 400.825348,983.228577 399.016327,971.478882 
	C396.721832,956.575806 393.641022,941.793823 390.978821,926.171265 
	C384.261566,900.270874 376.952240,874.555481 365.898376,850.096069 
	C352.184204,819.750122 337.319305,790.034607 316.681580,763.629700 
	C308.526245,753.195312 299.399780,743.784058 287.471375,737.555969 
	C281.145691,734.253174 274.459076,732.302795 267.303009,733.620667 
	C254.294876,736.016479 246.915741,744.369446 243.962006,759.447693 
	C240.833572,775.417786 241.924210,791.391907 245.068207,807.100586 
	C248.483719,824.165771 253.089508,840.992737 256.977600,858.696777 
M63.483639,367.026428 
	C76.051910,380.467773 84.767822,396.318542 91.936157,414.619476 
	C102.740158,385.743286 119.267113,363.222687 144.681824,347.011200 
	C119.174950,330.783691 102.690590,308.083893 91.956352,279.254425 
	C81.170143,308.289825 64.428001,330.805420 40.090027,346.451599 
	C48.017635,353.388977 55.510223,359.945679 63.483639,367.026428 
M1001.650085,362.880524 
	C1008.595947,370.996521 1015.541809,379.112549 1021.785950,386.408600 
	C1028.814941,377.840271 1036.619385,368.326660 1043.725586,359.664337 
	C1036.348999,350.508636 1028.691650,341.004150 1021.725037,332.357208 
	C1014.576233,341.164001 1006.814636,350.725739 998.920105,360.451233 
	C999.155762,360.660339 1000.144104,361.537292 1001.650085,362.880524 
z"/>
<path fill="#000000" opacity="1.000000" stroke="none" 
	d="
M1081.000000,354.531372 
	C1071.981323,349.444916 1062.195801,344.809845 1054.142334,338.096802 
	C1044.535889,330.089172 1039.425171,318.560516 1036.153076,306.526001 
	C1034.681396,301.113312 1033.798706,295.510315 1033.049072,289.939789 
	C1032.249634,283.998779 1028.382812,279.394775 1023.258301,279.015289 
	C1016.580261,278.520752 1012.864624,281.268524 1010.992249,288.032715 
	C1010.690979,289.121094 1010.225647,290.164032 1009.505615,292.130859 
	C1005.682556,285.497803 1002.666809,279.269501 998.757812,273.664032 
	C985.481445,254.626251 972.528320,235.306839 958.207458,217.072235 
	C947.572021,203.530289 935.818176,190.613388 923.101196,179.021164 
	C905.729858,163.186295 887.409302,148.297806 868.696533,134.053253 
	C844.816895,115.875458 818.500427,101.503448 791.367004,88.780388 
	C755.456482,71.941689 718.140198,59.027008 679.271118,50.949429 
	C661.446655,47.245251 643.523438,43.852760 625.506653,41.292316 
	C612.083313,39.384670 598.453613,38.639614 584.887085,38.098888 
	C566.609802,37.370407 548.288818,36.715282 530.016602,37.187263 
	C513.483154,37.614334 496.863708,38.725876 480.508209,41.095448 
	C455.290771,44.748928 430.028168,48.701809 405.222107,54.423874 
	C376.241821,61.108826 348.186615,71.089478 320.834656,82.988152 
	C290.701111,96.096863 261.804596,111.460609 235.101166,130.557358 
	C218.540436,142.400635 202.666946,155.294525 187.207108,168.558517 
	C175.357788,178.724777 163.752502,189.449722 153.624252,201.283279 
	C138.552094,218.893127 124.877403,237.699173 110.613152,256.000183 
	C110.038788,256.737061 109.516914,257.514923 108.113937,259.463440 
	C106.263695,249.005615 104.633018,239.796616 103.005424,230.587082 
	C101.722328,223.326813 97.923790,219.832947 91.496185,220.007065 
	C84.932358,220.184875 82.006538,223.212967 80.959618,230.806931 
	C78.459312,248.943253 74.712738,266.787262 66.693825,283.381775 
	C54.676460,308.250732 37.051151,327.247284 10.220963,336.576324 
	C7.023695,337.688080 4.513106,340.774719 1.342109,342.972961 
	C1.000000,229.028061 1.000000,115.056114 1.000000,1.042084 
	C360.883331,1.042084 720.766663,1.042084 1081.000000,1.042084 
	C1081.000000,118.687332 1081.000000,236.375000 1081.000000,354.531372 
z"/>
<path fill="#E49D5B" opacity="1.000000" stroke="none" 
	d="
M183.777420,706.457031 
	C185.602493,681.845642 192.166351,658.368958 201.494019,635.683899 
	C205.652344,625.570801 210.921570,615.891846 216.063156,606.215942 
	C218.333832,601.942688 219.065125,597.926147 217.518723,593.348328 
	C196.959503,532.486877 197.996643,471.105591 213.391708,409.457306 
	C223.523697,368.884552 239.535416,330.671875 260.921509,294.145874 
	C261.620972,293.519073 261.795227,293.209259 261.969513,292.899445 
	C261.969513,292.899445 261.960327,292.971436 262.291199,292.992371 
	C263.376099,292.681641 264.198547,292.452881 264.874237,292.003387 
	C284.432739,278.992554 302.155151,263.809479 318.301849,246.767120 
	C337.916199,259.549225 355.439697,274.870270 371.811188,291.495972 
	C396.819336,316.892456 418.695557,344.719635 434.604126,376.771576 
	C439.599243,386.835510 443.182220,397.644379 446.866913,408.300598 
	C449.745758,416.626312 454.146790,419.298187 462.737793,417.390228 
	C479.280945,413.716064 495.889557,410.336487 513.345459,406.742767 
	C520.213379,406.769287 526.229309,406.601257 532.195862,407.066284 
	C544.452576,408.021484 556.750000,408.842407 568.910339,410.566956 
	C595.720459,414.369141 621.402466,422.605347 646.897766,431.446838 
	C649.719971,432.425537 652.605225,433.268921 655.516418,433.933319 
	C659.668518,434.881042 661.767090,433.245483 662.829346,428.897705 
	C672.820618,388.004578 688.919495,349.612213 710.581421,313.533630 
	C713.719666,308.306671 716.765015,303.023987 719.853394,297.767090 
	C719.853394,297.767090 719.894226,297.906921 720.145630,297.822205 
	C720.582275,297.132202 720.767517,296.526978 720.952759,295.921722 
	C720.952759,295.921722 720.981140,295.985107 721.257019,295.850586 
	C721.690613,295.290741 721.848328,294.865387 722.006042,294.440063 
	C739.752869,274.392303 759.916565,257.073334 781.734497,241.635117 
	C785.933777,238.663727 790.280457,235.900604 795.394775,232.482971 
	C801.412109,239.434875 807.784973,246.001297 813.258423,253.247086 
	C857.551392,311.881866 885.567871,377.474152 896.738708,450.166077 
	C897.495911,455.093597 897.668945,460.110840 897.815308,465.849487 
	C896.648071,479.022156 896.408203,491.514252 894.791687,503.825592 
	C890.034546,540.054688 880.116760,574.457214 857.167908,603.931885 
	C856.145752,605.244629 855.585693,607.694946 856.037598,609.261414 
	C863.460022,634.995789 862.308777,660.911621 857.419006,686.779663 
	C855.326782,697.848083 851.869385,708.658508 849.032349,719.586121 
	C828.838806,712.979980 811.247437,718.721863 794.298889,730.938538 
	C756.329590,722.836914 720.813354,709.587402 685.887573,694.675354 
	C662.782227,684.810181 639.955811,674.291748 616.856873,664.411133 
	C611.316589,662.041260 605.189087,661.044189 599.091919,659.319824 
	C595.273499,657.536926 591.841614,655.353455 588.092041,654.244324 
	C565.316833,647.507202 542.290466,646.521606 519.264587,652.713501 
	C513.474060,654.270630 508.104004,657.391418 502.121735,659.858032 
	C490.865753,664.112183 479.784637,667.767700 469.236755,672.589722 
	C435.077057,688.205933 401.581726,705.361694 365.882080,717.376526 
	C349.050415,723.041321 331.978241,727.991455 315.015045,733.265442 
	C309.294281,729.632263 303.862610,725.400330 297.800873,722.473328 
	C275.883118,711.890076 253.785522,716.151855 235.781158,733.920227 
	C215.856537,728.840759 198.363373,720.353027 183.777420,706.457031 
M702.780762,670.126648 
	C705.916138,669.752747 709.085449,669.559387 712.181702,668.977295 
	C745.417908,662.728027 765.695374,630.255127 754.704895,599.268677 
	C746.056213,574.884460 727.514038,561.894653 701.682129,557.955811 
	C700.215881,551.526794 698.749573,545.097839 697.121704,537.960144 
	C695.296326,545.209045 693.672119,551.658875 691.182251,558.122009 
	C687.087524,558.745239 682.918518,559.063660 678.909790,560.040039 
	C647.239929,567.753540 628.806152,599.170471 639.360474,628.988892 
	C647.989624,653.368225 666.595154,666.174561 692.185913,670.522400 
	C693.677612,677.018921 695.169312,683.515381 696.746887,690.385986 
	C698.526978,683.343201 700.204163,676.707458 702.780762,670.126648 
M393.976501,558.857910 
	C385.567780,561.773560 376.516510,563.541504 368.871521,567.821350 
	C346.469086,580.362549 335.724976,606.002441 341.895538,629.450073 
	C347.933350,652.393433 370.080872,669.400940 395.016571,670.776001 
	C396.549469,677.711914 398.082367,684.647827 399.500153,691.062805 
	C401.103790,684.327271 402.817627,677.128906 405.418396,669.958008 
	C412.571655,667.929871 420.113159,666.757935 426.809113,663.721375 
	C452.056152,652.272034 465.755646,625.658997 460.012878,600.530457 
	C454.436798,576.131226 431.759033,558.762573 404.204865,557.447327 
	C402.683472,550.467773 401.162079,543.488220 399.768707,537.095947 
	C398.174774,544.070129 396.489655,551.443176 393.976501,558.857910 
M801.599487,292.764679 
	C802.836182,286.829773 801.434998,283.442902 797.004028,281.656494 
	C792.850830,279.982086 788.897583,281.668030 785.917114,286.687286 
	C758.386230,333.050781 744.861084,383.374084 743.412903,437.118988 
	C743.285156,441.859619 744.970825,445.468811 748.787109,448.248962 
	C754.569153,452.461243 760.244507,456.819733 766.016968,461.045319 
	C790.185974,478.737396 812.243408,498.590576 829.663513,523.186707 
	C832.835266,527.665100 835.788513,532.298462 838.970825,536.769043 
	C842.140259,541.221558 846.552673,542.365051 850.654785,540.001343 
	C854.812805,537.605408 856.007812,533.250305 853.856689,528.335144 
	C853.526794,527.581299 853.199463,526.826355 853.221924,525.479187 
	C855.562805,521.853455 858.226746,518.393372 860.186340,514.572144 
	C867.090759,501.108093 869.690002,486.542267 869.784912,471.596802 
	C869.843262,462.406372 868.808228,453.208984 868.264160,444.014740 
	C867.675598,443.771820 867.087097,443.528900 866.498535,443.285980 
	C862.848816,445.905670 859.199158,448.525391 855.227844,451.375885 
	C855.138428,450.325806 855.027283,449.409058 854.986877,448.489197 
	C853.384033,412.043213 845.915222,376.931671 831.009033,343.532135 
	C823.046997,325.691895 813.649719,308.684082 801.599487,292.764679 
M253.041641,531.758057 
	C250.411179,537.809265 251.420486,542.409668 255.881622,544.702698 
	C260.478882,547.065674 264.685791,545.426086 268.348236,539.839600 
	C268.713257,539.282837 269.057739,538.712708 269.413300,538.149719 
	C281.125519,519.604370 294.538696,502.366577 311.096863,487.956970 
	C325.406342,475.504242 340.458862,463.898865 355.315399,452.085480 
	C359.396240,448.840546 361.975586,445.224121 361.449890,439.815582 
	C360.274872,427.725616 359.729248,415.542480 357.900299,403.553955 
	C351.758270,363.293823 338.438934,325.544128 317.001770,290.793182 
	C313.515045,285.140961 309.589966,283.551270 305.071198,285.653717 
	C300.798584,287.641663 299.514282,291.517395 300.595306,298.039978 
	C300.169037,298.550385 299.705109,299.034119 299.321838,299.574951 
	C270.942230,339.625641 255.602417,384.407990 251.032288,433.060516 
	C250.313049,440.717407 250.068390,448.418854 249.626907,455.725464 
	C245.793503,453.032654 242.030121,450.389038 237.350677,447.101959 
	C233.737869,477.879700 234.267670,506.195892 253.041641,531.758057 
M644.390320,453.942444 
	C639.429871,454.355011 634.361938,454.255951 629.528137,455.271423 
	C611.650146,459.027130 606.710632,473.689880 618.388916,487.686493 
	C632.766846,504.918579 662.820251,512.873352 683.640137,504.957703 
	C694.106018,500.978638 697.782104,492.160889 693.006226,482.060913 
	C691.809082,479.529297 690.281738,477.056641 688.469238,474.929138 
	C677.173279,461.670197 662.664001,454.892242 644.390320,453.942444 
M433.688324,462.111206 
	C425.554077,466.939880 418.347809,472.763367 413.777710,481.264954 
	C407.918274,492.165039 412.183716,502.311646 424.078033,505.996460 
	C446.310547,512.884033 473.284943,505.005615 488.115448,487.292908 
	C499.039276,474.246124 494.752808,460.330719 478.308685,455.931824 
	C462.893982,451.808289 448.292145,454.483093 433.688324,462.111206 
z"/>
<path fill="#38A1F4" opacity="1.000000" stroke="none" 
	d="
M821.034180,130.364655 
	C822.852112,131.084244 824.826599,131.549911 826.465332,132.560181 
	C886.596985,169.629440 936.924316,216.831635 974.455688,276.988800 
	C983.149597,290.923828 990.375366,305.770721 998.432556,320.110474 
	C1000.149109,323.165375 999.753113,325.521851 997.881042,328.264984 
	C991.303101,337.903259 982.733765,344.890350 971.756042,348.999908 
	C964.382019,351.760376 961.324768,357.580322 964.359497,363.734497 
	C965.565186,366.179352 968.125549,368.735565 970.642639,369.633118 
	C994.328674,378.079346 1003.925842,397.130341 1009.012573,419.701935 
	C1009.776062,423.089661 1010.272339,426.536713 1010.974915,429.939270 
	C1012.258728,436.156769 1015.758362,439.623169 1020.971497,439.941956 
	C1026.602173,440.286285 1030.296509,437.340149 1032.353027,430.885376 
	C1032.595093,430.125458 1032.910767,429.389038 1033.538574,427.722626 
	C1034.793579,434.966370 1036.059937,441.289795 1036.946655,447.666077 
	C1037.858887,454.226715 1038.785156,460.824371 1039.034912,467.431183 
	C1039.876343,489.683899 1041.438965,511.974304 1040.862061,534.201965 
	C1039.701660,578.913818 1030.885620,622.312744 1015.377075,664.326294 
	C998.589966,709.803650 974.106140,750.509155 940.622803,785.685974 
	C939.704163,786.651001 938.753479,787.587036 937.788452,788.505798 
	C937.439087,788.838318 937.003906,789.080627 935.821350,789.926880 
	C937.663574,783.446655 939.538940,777.783630 940.871216,771.995544 
	C945.709595,750.975586 946.904785,729.768494 945.131775,708.210449 
	C942.139038,671.821472 932.386169,637.388428 915.439148,605.231873 
	C910.424683,595.716980 909.260925,587.738831 912.210754,577.368469 
	C918.797913,554.211060 921.576477,530.368713 922.104675,506.190765 
	C923.746033,431.062805 902.467957,361.948578 867.789246,296.309937 
	C854.389832,270.947937 838.928467,246.873276 819.394165,225.722488 
	C814.378052,220.291260 808.341858,215.671173 802.278381,211.379028 
	C797.277222,207.838852 791.875732,208.352264 786.415894,211.739243 
	C765.128784,224.944595 745.419434,240.163040 727.158020,257.275757 
	C693.377441,288.931396 664.673462,324.447876 644.505005,366.410278 
	C642.495789,370.590729 640.748535,374.904541 639.038818,379.219452 
	C637.401062,383.352478 635.970581,387.567596 634.517090,391.559601 
	C621.955505,389.317902 609.683289,386.514893 597.253296,385.071533 
	C583.101440,383.428223 568.821960,382.602570 554.574341,382.124298 
	C525.692078,381.154755 497.353851,385.258820 469.453583,392.545593 
	C467.063354,393.169830 465.830566,393.004913 464.927185,390.475769 
	C450.502136,350.091125 425.691162,316.396973 396.939636,285.264923 
	C378.012115,264.770325 357.052399,246.579086 334.287506,229.793823 
	C336.750305,225.989349 339.415497,222.787735 341.873413,219.434174 
	C355.350037,201.046692 366.983124,181.723251 370.442657,158.682648 
	C372.863525,142.559525 367.250488,126.210052 347.563538,120.983864 
	C346.756897,120.769730 346.047302,120.189842 344.851990,119.541367 
	C349.578186,117.662529 353.714294,115.942604 357.905579,114.369720 
	C364.278809,111.978012 370.660095,109.601181 377.090363,107.368958 
	C430.128876,88.956955 484.749207,78.006645 540.748474,75.254364 
	C583.332458,73.161430 625.830627,75.382874 668.025391,82.694763 
	C712.888306,90.469017 756.305115,102.886726 798.309753,120.376945 
	C804.547485,122.974266 810.858887,125.394875 817.136169,127.897232 
	C817.136169,127.897240 817.047302,127.918900 817.117798,128.210266 
	C817.831787,128.645325 818.475281,128.789001 819.118835,128.932678 
	C819.118835,128.932678 819.029114,128.957565 819.126221,129.229736 
	C819.826965,129.789490 820.430542,130.077072 821.034180,130.364655 
M452.891571,114.278297 
	C442.508240,117.595932 432.677856,122.023697 424.541992,129.455688 
	C417.895264,135.527390 412.269562,142.544037 412.560760,152.072998 
	C412.876373,162.401947 421.640320,170.483032 433.437164,172.977829 
	C455.381653,177.618683 475.020111,171.896057 492.661469,159.138931 
	C498.132477,155.182632 502.728394,149.391724 506.287872,143.563126 
	C511.613617,134.842300 509.475769,125.471565 501.381409,119.123764 
	C497.948914,116.431915 493.725586,114.364021 489.533875,113.097801 
	C477.560120,109.480835 465.552826,110.736946 452.891571,114.278297 
z"/>
<path fill="#F3F6EF" opacity="1.000000" stroke="none" 
	d="
M599.331604,659.415771 
	C605.189087,661.044189 611.316589,662.041260 616.856873,664.411133 
	C639.955811,674.291748 662.782227,684.810181 685.887573,694.675354 
	C720.813354,709.587402 756.329590,722.836914 793.977478,731.012329 
	C766.327515,755.322144 749.286133,787.029114 734.058899,819.935730 
	C729.256897,830.312805 724.868652,840.881226 719.736328,851.671265 
	C718.694153,852.084351 718.178345,852.118347 717.723267,852.302307 
	C679.272583,867.846497 638.998962,873.983582 597.840881,874.872192 
	C558.409058,875.723572 518.991943,874.685364 479.704956,870.989868 
	C460.039307,869.140137 440.429077,866.647461 420.831726,864.147827 
	C410.135803,862.783630 399.519196,860.797791 388.866821,859.092285 
	C381.867859,842.789429 375.310974,826.278809 367.768250,810.231567 
	C355.917450,785.018860 342.139374,760.942322 322.470032,740.776489 
	C320.148285,738.396179 317.714142,736.125427 315.173584,733.534668 
	C331.978241,727.991455 349.050415,723.041321 365.882080,717.376526 
	C401.581726,705.361694 435.077057,688.205933 469.236755,672.589722 
	C479.784637,667.767700 490.865753,664.112183 501.968262,660.257080 
	C504.922729,666.364502 506.686676,672.854065 510.490326,677.763306 
	C518.786133,688.470520 528.119873,698.373535 537.305603,708.922180 
	C533.762146,714.424500 528.114807,718.919250 521.301697,721.952148 
	C502.543640,730.302490 484.241180,726.417175 467.868561,710.708069 
	C461.514313,704.611328 456.604858,705.367981 452.583588,713.160278 
	C444.523163,728.779419 438.900940,745.253357 436.255005,762.622986 
	C433.469360,780.909363 434.529785,798.849976 443.385651,815.584534 
	C453.958252,835.563110 471.704132,846.309875 492.491882,852.837891 
	C509.448120,858.162720 526.968384,860.016846 544.650513,860.399841 
	C568.888245,860.924927 592.886658,859.362610 615.931152,850.911560 
	C647.099304,839.481384 664.750183,815.943665 666.043274,783.909912 
	C667.055908,758.824036 659.894897,735.628601 648.975830,713.427917 
	C645.683289,706.733582 640.698853,706.267151 634.933594,711.426086 
	C622.671204,722.398987 609.150269,729.684570 591.896118,725.964294 
	C580.418762,723.489502 570.857056,718.246643 564.666809,708.054443 
	C569.571045,703.387085 574.647339,699.442810 578.611450,694.590149 
	C585.837769,685.744141 592.502014,676.429382 599.176636,667.148987 
	C600.789551,664.906372 601.928772,662.038940 599.331604,659.415771 
z"/>
<path fill="#E4EFEF" opacity="1.000000" stroke="none" 
	d="
M817.110474,127.540886 
	C810.858887,125.394875 804.547485,122.974266 798.309753,120.376945 
	C756.305115,102.886726 712.888306,90.469017 668.025391,82.694763 
	C625.830627,75.382874 583.332458,73.161430 540.748474,75.254364 
	C484.749207,78.006645 430.128876,88.956955 377.090363,107.368958 
	C370.660095,109.601181 364.278809,111.978012 357.905579,114.369720 
	C353.714294,115.942604 349.578186,117.662529 344.851990,119.541367 
	C346.047302,120.189842 346.756897,120.769730 347.563538,120.983864 
	C367.250488,126.210052 372.863525,142.559525 370.442657,158.682648 
	C366.983124,181.723251 355.350037,201.046692 341.873413,219.434174 
	C339.415497,222.787735 336.750305,225.989349 334.031433,229.559418 
	C326.587128,225.285156 319.138062,220.937515 312.042084,216.074661 
	C305.387024,211.513992 298.821655,211.987045 293.271576,216.885757 
	C285.341766,223.884918 277.524811,231.227951 270.859924,239.402725 
	C252.734802,261.634033 238.529846,286.403534 225.911667,312.101532 
	C225.332932,313.280212 224.609131,314.387665 223.358414,315.793823 
	C201.406372,325.184265 179.610535,331.868530 155.930634,328.060913 
	C155.930634,328.060913 155.988098,328.017395 155.847717,327.738708 
	C155.048340,327.330353 154.389374,327.200714 153.730392,327.071075 
	C147.747223,321.898651 141.214813,317.226349 135.927673,311.420135 
	C130.056519,304.972565 125.307617,297.500732 120.098686,290.453735 
	C118.137375,287.800323 118.269249,285.432587 120.128998,282.438263 
	C164.984406,210.217438 225.917328,155.630753 301.348358,116.921501 
	C356.786469,88.472107 415.638062,71.199440 477.406738,63.766434 
	C569.938599,52.631496 660.248840,61.576393 747.793518,94.439888 
	C771.775391,103.442505 794.930298,114.275047 817.110474,127.540886 
z"/>
<path fill="#38A1F4" opacity="1.000000" stroke="none" 
	d="
M156.006683,328.405701 
	C179.610535,331.868530 201.406372,325.184265 223.169189,316.054504 
	C214.888748,338.596893 205.432220,360.884460 197.726181,383.761719 
	C189.417114,408.429260 183.889313,433.938019 182.117722,459.984924 
	C180.799225,479.370270 179.713577,498.876099 180.374847,518.265137 
	C181.211182,542.788025 185.706070,566.946777 193.180557,590.398376 
	C194.766861,595.375549 194.322357,599.279114 191.846268,603.850708 
	C176.059982,632.996643 166.306854,664.138977 161.995102,696.987366 
	C157.319290,732.609314 159.347458,767.520874 173.121857,801.555542 
	C173.035873,801.958130 172.993088,802.007935 172.993088,802.007935 
	C161.570847,789.999329 149.309326,778.673157 138.885498,765.852783 
	C108.974594,729.065125 88.830673,687.022644 74.823387,641.083252 
	C74.777534,638.433655 74.737968,636.618835 74.619102,634.809326 
	C73.461525,617.187866 72.290695,599.567322 71.493134,581.962036 
	C86.828941,586.340759 96.963715,596.556824 102.802612,610.317505 
	C107.081894,620.402588 109.251076,631.418579 111.958244,642.121460 
	C113.494537,648.195251 117.561096,652.172913 123.271927,651.949585 
	C128.897614,651.729614 133.171051,647.374268 133.925735,641.338440 
	C134.499741,636.747498 134.885193,632.073059 136.077286,627.629578 
	C141.747559,606.493958 151.788345,588.937195 174.307968,581.668274 
	C179.050735,580.137451 181.280411,576.293884 181.007080,571.160706 
	C180.735779,566.065735 178.108627,562.517578 173.368027,561.220520 
	C161.798767,558.054810 153.601776,550.633789 147.055603,541.094788 
	C139.181427,529.620483 135.615326,516.580750 133.992981,502.949524 
	C133.151474,495.879028 128.873596,491.153564 122.844963,491.143066 
	C116.979118,491.132843 112.923775,495.521149 111.971436,502.518341 
	C110.214317,515.428345 106.981277,527.909424 99.872063,539.023804 
	C92.959938,549.830017 84.050171,558.210388 71.046921,560.845947 
	C72.337563,535.678406 73.409981,510.974548 75.205200,486.323334 
	C75.933578,476.321472 78.236053,466.434204 79.822281,456.494812 
	C80.240479,459.116486 80.663246,461.737396 81.075958,464.359955 
	C82.027756,470.407959 86.438347,474.161804 92.407494,473.998169 
	C98.145630,473.840851 102.381615,469.570801 102.943779,463.466064 
	C104.960007,441.571106 110.516838,420.703796 121.633926,401.594849 
	C133.735046,380.794525 150.122559,364.952667 173.714294,357.664093 
	C179.174240,355.977264 181.970367,352.126221 181.979721,347.092224 
	C181.989426,341.867401 178.956909,338.489288 173.289078,336.310577 
	C167.448059,334.065247 161.809753,331.292480 156.006683,328.405701 
z"/>
<path fill="#F3F6EF" opacity="1.000000" stroke="none" 
	d="
M257.176331,857.923584 
	C253.089508,840.992737 248.483719,824.165771 245.068207,807.100586 
	C241.924210,791.391907 240.833572,775.417786 243.962006,759.447693 
	C246.915741,744.369446 254.294876,736.016479 267.303009,733.620667 
	C274.459076,732.302795 281.145691,734.253174 287.471375,737.555969 
	C299.399780,743.784058 308.526245,753.195312 316.681580,763.629700 
	C337.319305,790.034607 352.184204,819.750122 365.898376,850.096069 
	C376.952240,874.555481 384.261566,900.270874 390.589417,926.614380 
	C384.531860,929.372009 379.054565,932.579529 373.160980,933.839233 
	C352.766998,938.198242 334.688568,931.569824 317.983917,920.425293 
	C295.041229,905.118835 277.667236,884.325012 261.557312,862.330261 
	C260.347198,860.678101 258.648102,859.384094 257.176331,857.923584 
z"/>
<path fill="#F3F6F0" opacity="1.000000" stroke="none" 
	d="
M715.610474,926.989258 
	C720.412415,910.419434 724.641907,893.657349 730.128723,877.317444 
	C743.917175,836.254700 763.442810,798.060730 789.598267,763.435120 
	C797.758118,752.632751 807.175537,743.009644 819.601990,736.878601 
	C838.642822,727.483887 855.886597,735.332092 861.170227,755.932007 
	C864.753662,769.902893 864.529175,784.145874 861.854980,798.053467 
	C857.911133,818.564941 852.718811,838.836304 847.592224,859.640259 
	C843.663940,864.527039 840.191040,868.975342 836.741089,873.441345 
	C822.003723,892.519470 805.647827,909.952942 784.926575,922.665161 
	C769.045715,932.407837 751.971985,938.057129 733.134216,933.810303 
	C727.087708,932.447205 721.440491,929.313110 715.610474,926.989258 
z"/>
<path fill="#B1AEBD" opacity="1.000000" stroke="none" 
	d="
M388.881592,859.473572 
	C399.519196,860.797791 410.135803,862.783630 420.831726,864.147827 
	C440.429077,866.647461 460.039307,869.140137 479.704956,870.989868 
	C518.991943,874.685364 558.409058,875.723572 597.840881,874.872192 
	C638.998962,873.983582 679.272583,867.846497 717.723267,852.302307 
	C718.178345,852.118347 718.694153,852.084351 719.558838,851.974731 
	C716.525269,861.999634 712.645569,871.902161 709.862183,882.103821 
	C707.878357,889.374634 704.442261,892.466248 696.608459,893.539124 
	C656.002380,899.100403 615.254578,902.733032 574.291687,903.031982 
	C543.358398,903.257751 512.371887,903.154907 481.491913,901.576416 
	C455.451599,900.245361 429.525208,896.630310 403.570587,893.821106 
	C402.084991,893.660339 400.075958,891.912476 399.538147,890.451355 
	C395.808777,880.319580 392.404785,870.067993 388.881592,859.473572 
z"/>
<path fill="#B2AEBE" opacity="1.000000" stroke="none" 
	d="
M257.076965,858.310181 
	C258.648102,859.384094 260.347198,860.678101 261.557312,862.330261 
	C277.667236,884.325012 295.041229,905.118835 317.983917,920.425293 
	C334.688568,931.569824 352.766998,938.198242 373.160980,933.839233 
	C379.054565,932.579529 384.531860,929.372009 390.549622,927.008545 
	C393.641022,941.793823 396.721832,956.575806 399.016327,971.478882 
	C400.825348,983.228577 400.419464,995.079590 397.088837,1006.619934 
	C391.678711,1025.365601 376.516724,1032.981201 358.244629,1025.926514 
	C345.100739,1020.851746 335.451691,1011.120178 326.666199,1000.566528 
	C310.272156,980.873108 298.147491,958.506104 286.541870,935.813477 
	C273.929810,911.152893 264.184509,885.417419 257.076965,858.310181 
z"/>
<path fill="#B1AEBE" opacity="1.000000" stroke="none" 
	d="
M715.383423,927.269836 
	C721.440491,929.313110 727.087708,932.447205 733.134216,933.810303 
	C751.971985,938.057129 769.045715,932.407837 784.926575,922.665161 
	C805.647827,909.952942 822.003723,892.519470 836.741089,873.441345 
	C840.191040,868.975342 843.663940,864.527039 847.446472,859.988037 
	C844.513184,870.347534 841.617798,880.917480 837.942383,891.208801 
	C824.145264,929.840881 805.502014,965.972412 779.669067,997.945374 
	C772.688782,1006.584778 763.959778,1014.602783 754.456604,1020.254761 
	C731.593323,1033.852539 711.482605,1023.075989 707.989014,996.649841 
	C705.209778,975.627014 709.138916,955.214661 713.418579,934.824951 
	C713.930542,932.385986 714.573914,929.974609 715.383423,927.269836 
z"/>
<path fill="#A76F55" opacity="1.000000" stroke="none" 
	d="
M849.301025,719.758545 
	C851.869385,708.658508 855.326782,697.848083 857.419006,686.779663 
	C862.308777,660.911621 863.460022,634.995789 856.037598,609.261414 
	C855.585693,607.694946 856.145752,605.244629 857.167908,603.931885 
	C880.116760,574.457214 890.034546,540.054688 894.791687,503.825592 
	C896.408203,491.514252 896.648071,479.022156 897.792480,466.299957 
	C898.659241,471.229492 899.576172,476.458496 899.789368,481.716064 
	C901.236084,517.389587 897.515442,552.452637 886.493103,586.530212 
	C884.643005,592.250305 885.199158,596.918823 888.290405,602.077393 
	C906.044373,631.704346 916.857849,663.781921 921.106567,698.751709 
	C915.643250,703.823181 910.581299,708.403076 905.118591,712.440796 
	C893.605896,720.950378 880.238403,725.580627 866.820801,730.029480 
	C861.070435,726.663269 855.320129,723.297119 849.301025,719.758545 
z"/>
<path fill="#38A0F3" opacity="1.000000" stroke="none" 
	d="
M414.806091,942.185547 
	C412.628204,934.065735 410.450287,925.945984 408.149933,917.369629 
	C505.314270,929.400085 602.019714,928.311096 699.018555,915.809448 
	C697.128418,922.800049 695.397461,929.201782 693.045166,935.909729 
	C658.110046,945.827393 622.905518,949.507324 587.496826,950.794006 
	C549.567017,952.172180 511.626526,950.962158 473.777557,947.911072 
	C461.531097,946.923950 449.329071,945.394104 437.099762,944.182800 
	C429.675446,943.447510 422.237762,942.846802 414.806091,942.185547 
z"/>
<path fill="#E39C5B" opacity="1.000000" stroke="none" 
	d="
M63.243225,366.764404 
	C55.510223,359.945679 48.017635,353.388977 40.090027,346.451599 
	C64.428001,330.805420 81.170143,308.289825 91.956352,279.254425 
	C102.690590,308.083893 119.174950,330.783691 144.681824,347.011200 
	C119.267113,363.222687 102.740158,385.743286 91.936157,414.619476 
	C84.767822,396.318542 76.051910,380.467773 63.243225,366.764404 
z"/>
<path fill="#B1AEBD" opacity="1.000000" stroke="none" 
	d="
M866.986694,730.331177 
	C880.238403,725.580627 893.605896,720.950378 905.118591,712.440796 
	C910.581299,708.403076 915.643250,703.823181 921.064636,699.184814 
	C921.822144,713.084839 923.467468,727.343140 922.750977,741.481689 
	C921.422607,767.691284 913.953430,792.224731 897.004578,812.860168 
	C891.165955,819.968750 883.741882,825.775146 876.598328,832.162476 
	C876.154602,832.148682 875.913696,831.923218 875.913696,831.923218 
	C878.114990,819.867310 880.947876,807.884949 882.362305,795.737427 
	C884.250854,779.518494 884.672852,763.086853 878.010620,747.683960 
	C875.369202,741.577271 870.828552,736.292053 866.986694,730.331177 
z"/>
<path fill="#E1EDEE" opacity="1.000000" stroke="none" 
	d="
M71.123642,581.946472 
	C72.290695,599.567322 73.461525,617.187866 74.619102,634.809326 
	C74.737968,636.618835 74.777534,638.433655 74.854095,640.698608 
	C70.892738,625.089478 66.254112,609.158875 63.114212,592.938110 
	C57.059750,561.660645 55.072044,529.978149 56.246609,498.140106 
	C57.305405,469.440002 60.743568,441.030060 67.479034,412.081146 
	C74.268120,426.540039 77.787292,440.942444 79.848587,456.127106 
	C78.236053,466.434204 75.933578,476.321472 75.205200,486.323334 
	C73.409981,510.974548 72.337563,535.678406 70.850723,561.103882 
	C62.409534,568.569214 62.546589,575.512695 71.123642,581.946472 
z"/>
<path fill="#EDD9C0" opacity="1.000000" stroke="none" 
	d="
M719.522339,297.582947 
	C716.765015,303.023987 713.719666,308.306671 710.581421,313.533630 
	C688.919495,349.612213 672.820618,388.004578 662.829346,428.897705 
	C661.767090,433.245483 659.668518,434.881042 655.516418,433.933319 
	C652.605225,433.268921 649.719971,432.425537 646.897766,431.446838 
	C621.402466,422.605347 595.720459,414.369141 568.910339,410.566956 
	C556.750000,408.842407 544.452576,408.021484 532.195862,407.066284 
	C526.229309,406.601257 520.213379,406.769287 513.801453,406.776611 
	C523.975220,406.097656 534.554993,405.014038 545.161987,404.540863 
	C575.857666,403.171600 605.894653,407.595154 635.527405,415.326477 
	C647.425720,418.430817 651.090027,416.063416 654.442200,403.959686 
	C661.692627,377.781006 675.028198,354.605682 690.791199,332.830963 
	C699.656372,320.584778 709.686157,309.181702 719.522339,297.582947 
z"/>
<path fill="#2B61AE" opacity="1.000000" stroke="none" 
	d="
M414.821777,942.590820 
	C422.237762,942.846802 429.675446,943.447510 437.099762,944.182800 
	C449.329071,945.394104 461.531097,946.923950 473.777557,947.911072 
	C511.626526,950.962158 549.567017,952.172180 587.496826,950.794006 
	C622.905518,949.507324 658.110046,945.827393 692.815674,936.203857 
	C691.830688,949.402283 691.868835,949.811890 678.593811,951.048401 
	C653.938110,953.344910 629.258850,955.565918 604.541016,956.961426 
	C583.129517,958.170227 561.648010,958.740051 540.202881,958.621399 
	C500.117981,958.399597 460.070007,956.964172 420.222687,952.019165 
	C414.027435,951.250366 416.020416,946.352356 414.821777,942.590820 
z"/>
<path fill="#F3F5EF" opacity="1.000000" stroke="none" 
	d="
M183.538818,706.829102 
	C198.363373,720.353027 215.856537,728.840759 235.491821,734.108459 
	C223.368774,751.709473 221.780426,771.517212 223.507492,792.455994 
	C214.101837,784.203003 204.738693,775.875061 196.115784,766.840576 
	C191.282730,761.776794 187.675537,755.542908 183.516052,749.836243 
	C183.444107,735.624573 183.372177,721.412842 183.538818,706.829102 
z"/>
<path fill="#B0ADBD" opacity="1.000000" stroke="none" 
	d="
M183.394928,750.238403 
	C187.675537,755.542908 191.282730,761.776794 196.115784,766.840576 
	C204.738693,775.875061 214.101837,784.203003 223.486710,792.875000 
	C226.677765,807.543701 229.537582,822.163757 232.276672,837.289917 
	C232.155930,837.795959 231.986771,838.015869 231.986771,838.015869 
	C216.291183,828.285645 205.196167,814.459045 196.857742,798.258057 
	C189.163696,783.309143 185.157333,767.267761 183.394928,750.238403 
z"/>
<path fill="#E19B5B" opacity="1.000000" stroke="none" 
	d="
M1001.391296,362.647400 
	C1000.144104,361.537292 999.155762,360.660339 998.920105,360.451233 
	C1006.814636,350.725739 1014.576233,341.164001 1021.725037,332.357208 
	C1028.691650,341.004150 1036.348999,350.508636 1043.725586,359.664337 
	C1036.619385,368.326660 1028.814941,377.840271 1021.785950,386.408600 
	C1015.541809,379.112549 1008.595947,370.996521 1001.391296,362.647400 
z"/>
<path fill="#EDD9C1" opacity="1.000000" stroke="none" 
	d="
M318.098206,246.489212 
	C302.155151,263.809479 284.432739,278.992554 264.874237,292.003387 
	C264.198547,292.452881 263.376099,292.681641 262.258606,292.976349 
	C266.928741,284.761597 271.488983,276.240234 277.113525,268.491455 
	C284.431000,258.410400 292.596619,248.945190 300.390717,239.209702 
	C302.122925,237.046066 303.818604,236.693237 306.248962,238.499710 
	C309.980103,241.273056 313.998230,243.660248 318.098206,246.489212 
z"/>
<path fill="#EDD9C0" opacity="1.000000" stroke="none" 
	d="
M720.596191,296.043518 
	C720.767517,296.526978 720.582275,297.132202 720.073730,297.834045 
	C719.913513,297.342224 720.076538,296.753754 720.596191,296.043518 
z"/>
<path fill="#E4EFEF" opacity="1.000000" stroke="none" 
	d="
M821.061096,129.974640 
	C820.430542,130.077072 819.826965,129.789490 819.116943,129.184113 
	C819.703003,129.105759 820.395508,129.345184 821.061096,129.974640 
z"/>
<path fill="#E4EFEF" opacity="1.000000" stroke="none" 
	d="
M819.052856,128.578415 
	C818.475281,128.789001 817.831787,128.645325 817.112732,128.164825 
	C817.687073,127.960060 818.336975,128.092117 819.052856,128.578415 
z"/>
<path fill="#38A1F4" opacity="1.000000" stroke="none" 
	d="
M153.911469,327.364838 
	C154.389374,327.200714 155.048340,327.330353 155.844604,327.774597 
	C155.352112,327.945679 154.722336,327.802124 153.911469,327.364838 
z"/>
<path fill="#EDD9C0" opacity="1.000000" stroke="none" 
	d="
M721.720459,294.622070 
	C721.848328,294.865387 721.690613,295.290741 721.222900,295.857178 
	C721.086975,295.600220 721.260986,295.202148 721.720459,294.622070 
z"/>
<path fill="#EDD9C1" opacity="1.000000" stroke="none" 
	d="
M261.666504,292.929260 
	C261.795227,293.209259 261.620972,293.519073 261.199707,293.956146 
	C261.089630,293.708649 261.226562,293.333862 261.666504,292.929260 
z"/>
<path fill="#38A1F4" opacity="1.000000" stroke="none" 
	d="
M173.056763,801.932800 
	C173.289627,802.112793 173.501602,802.318054 173.713577,802.523376 
	C173.508591,802.522583 173.303589,802.521790 173.045837,802.264465 
	C172.993088,802.007935 173.035873,801.958130 173.056763,801.932800 
z"/>
<path fill="#B1AEBD" opacity="1.000000" stroke="none" 
	d="
M876.274170,832.262390 
	C876.110046,832.278381 875.826477,832.180725 875.728271,832.003113 
	C875.913696,831.923218 876.154602,832.148682 876.274170,832.262390 
z"/>
<path fill="#B0ADBD" opacity="1.000000" stroke="none" 
	d="
M232.237839,837.684021 
	C232.460510,837.808289 232.601273,838.044556 232.742035,838.280762 
	C232.536148,838.333252 232.330276,838.385803 232.055573,838.227051 
	C231.986771,838.015869 232.155930,837.795959 232.237839,837.684021 
z"/>
<path fill="#1A0648" opacity="1.000000" stroke="none" 
	d="
M599.091919,659.319824 
	C601.928772,662.038940 600.789551,664.906372 599.176636,667.148987 
	C592.502014,676.429382 585.837769,685.744141 578.611450,694.590149 
	C574.647339,699.442810 569.571045,703.387085 564.666809,708.054443 
	C570.857056,718.246643 580.418762,723.489502 591.896118,725.964294 
	C609.150269,729.684570 622.671204,722.398987 634.933594,711.426086 
	C640.698853,706.267151 645.683289,706.733582 648.975830,713.427917 
	C659.894897,735.628601 667.055908,758.824036 666.043274,783.909912 
	C664.750183,815.943665 647.099304,839.481384 615.931152,850.911560 
	C592.886658,859.362610 568.888245,860.924927 544.650513,860.399841 
	C526.968384,860.016846 509.448120,858.162720 492.491882,852.837891 
	C471.704132,846.309875 453.958252,835.563110 443.385651,815.584534 
	C434.529785,798.849976 433.469360,780.909363 436.255005,762.622986 
	C438.900940,745.253357 444.523163,728.779419 452.583588,713.160278 
	C456.604858,705.367981 461.514313,704.611328 467.868561,710.708069 
	C484.241180,726.417175 502.543640,730.302490 521.301697,721.952148 
	C528.114807,718.919250 533.762146,714.424500 537.305603,708.922180 
	C528.119873,698.373535 518.786133,688.470520 510.490326,677.763306 
	C506.686676,672.854065 504.922729,666.364502 502.387268,660.192627 
	C508.104004,657.391418 513.474060,654.270630 519.264587,652.713501 
	C542.290466,646.521606 565.316833,647.507202 588.092041,654.244324 
	C591.841614,655.353455 595.273499,657.536926 599.091919,659.319824 
M509.016907,779.465271 
	C491.649475,786.739319 475.195007,795.644165 459.521210,806.801941 
	C463.375061,815.814758 469.771515,822.134277 477.584930,827.149170 
	C493.436890,837.323242 511.195221,841.173401 529.661987,842.470276 
	C556.519592,844.356445 582.929810,841.757935 608.387024,832.841614 
	C626.490723,826.500732 640.784485,815.696045 644.904114,795.434204 
	C647.373230,783.290039 645.545715,771.269897 643.629639,759.227722 
	C643.011780,755.344971 641.280518,754.496582 637.724365,754.495178 
	C593.457397,754.477844 550.746887,762.446106 509.016907,779.465271 
z"/>
<path fill="#F4F6EF" opacity="1.000000" stroke="none" 
	d="
M253.199738,531.023560 
	C234.267670,506.195892 233.737869,477.879700 237.350677,447.101959 
	C242.030121,450.389038 245.793503,453.032654 249.626907,455.725464 
	C250.068390,448.418854 250.313049,440.717407 251.032288,433.060516 
	C255.602417,384.407990 270.942230,339.625641 299.321838,299.574951 
	C299.705109,299.034119 300.169037,298.550385 301.152344,298.016602 
	C325.649689,339.780884 337.718781,384.852417 339.250122,432.894867 
	C339.366425,436.542755 337.475861,438.237091 335.124695,440.146362 
	C315.090363,456.416016 295.263062,472.994141 279.363617,493.486176 
	C270.026215,505.520630 261.881104,518.480164 253.199738,531.023560 
z"/>
<path fill="#F3F6EF" opacity="1.000000" stroke="none" 
	d="
M801.368469,293.389252 
	C813.649719,308.684082 823.046997,325.691895 831.009033,343.532135 
	C845.915222,376.931671 853.384033,412.043213 854.986877,448.489197 
	C855.027283,449.409058 855.138428,450.325806 855.227844,451.375885 
	C859.199158,448.525391 862.848816,445.905670 866.498535,443.285980 
	C867.087097,443.528900 867.675598,443.771820 868.264160,444.014740 
	C868.808228,453.208984 869.843262,462.406372 869.784912,471.596802 
	C869.690002,486.542267 867.090759,501.108093 860.186340,514.572144 
	C858.226746,518.393372 855.562805,521.853455 852.761108,525.598877 
	C843.756104,513.641541 835.729675,501.154022 826.553772,489.577637 
	C810.305786,469.079132 790.020935,452.730743 769.531067,436.718964 
	C766.432495,434.297546 765.146973,431.753174 765.464600,427.902039 
	C766.093140,420.280151 766.192810,412.611176 766.931702,405.002502 
	C770.772217,365.453949 781.866211,328.118042 801.368469,293.389252 
z"/>
<path fill="#1B0748" opacity="1.000000" stroke="none" 
	d="
M801.484009,293.076965 
	C781.866211,328.118042 770.772217,365.453949 766.931702,405.002502 
	C766.192810,412.611176 766.093140,420.280151 765.464600,427.902039 
	C765.146973,431.753174 766.432495,434.297546 769.531067,436.718964 
	C790.020935,452.730743 810.305786,469.079132 826.553772,489.577637 
	C835.729675,501.154022 843.756104,513.641541 852.585632,525.895264 
	C853.199463,526.826355 853.526794,527.581299 853.856689,528.335144 
	C856.007812,533.250305 854.812805,537.605408 850.654785,540.001343 
	C846.552673,542.365051 842.140259,541.221558 838.970825,536.769043 
	C835.788513,532.298462 832.835266,527.665100 829.663513,523.186707 
	C812.243408,498.590576 790.185974,478.737396 766.016968,461.045319 
	C760.244507,456.819733 754.569153,452.461243 748.787109,448.248962 
	C744.970825,445.468811 743.285156,441.859619 743.412903,437.118988 
	C744.861084,383.374084 758.386230,333.050781 785.917114,286.687286 
	C788.897583,281.668030 792.850830,279.982086 797.004028,281.656494 
	C801.434998,283.442902 802.836182,286.829773 801.484009,293.076965 
z"/>
<path fill="#1B0748" opacity="1.000000" stroke="none" 
	d="
M253.120697,531.390808 
	C261.881104,518.480164 270.026215,505.520630 279.363617,493.486176 
	C295.263062,472.994141 315.090363,456.416016 335.124695,440.146362 
	C337.475861,438.237091 339.366425,436.542755 339.250122,432.894867 
	C337.718781,384.852417 325.649689,339.780884 301.418365,297.774170 
	C299.514282,291.517395 300.798584,287.641663 305.071198,285.653717 
	C309.589966,283.551270 313.515045,285.140961 317.001770,290.793182 
	C338.438934,325.544128 351.758270,363.293823 357.900299,403.553955 
	C359.729248,415.542480 360.274872,427.725616 361.449890,439.815582 
	C361.975586,445.224121 359.396240,448.840546 355.315399,452.085480 
	C340.458862,463.898865 325.406342,475.504242 311.096863,487.956970 
	C294.538696,502.366577 281.125519,519.604370 269.413300,538.149719 
	C269.057739,538.712708 268.713257,539.282837 268.348236,539.839600 
	C264.685791,545.426086 260.478882,547.065674 255.881622,544.702698 
	C251.420486,542.409668 250.411179,537.809265 253.120697,531.390808 
z"/>
<path fill="#F2F5EE" opacity="1.000000" stroke="none" 
	d="
M404.531433,669.930603 
	C402.817627,677.128906 401.103790,684.327271 399.500153,691.062805 
	C398.082367,684.647827 396.549469,677.711914 394.851044,670.031494 
	C387.082245,644.252136 373.386871,624.354858 347.985870,614.286072 
	C352.553589,611.858826 357.102264,609.848511 361.225281,607.180481 
	C379.000763,595.677734 388.963135,578.655212 394.804535,558.816284 
	C396.489655,551.443176 398.174774,544.070129 399.768707,537.095947 
	C401.162079,543.488220 402.683472,550.467773 404.437012,558.155518 
	C412.165619,584.036072 425.886139,603.996460 451.532990,614.114319 
	C425.459473,627.012207 410.018524,645.445862 404.531433,669.930603 
z"/>
<path fill="#F2F5EE" opacity="1.000000" stroke="none" 
	d="
M692.047974,558.108704 
	C693.672119,551.658875 695.296326,545.209045 697.121704,537.960144 
	C698.749573,545.097839 700.215881,551.526794 701.866089,558.692505 
	C709.701172,584.276245 723.370178,604.089478 748.833496,614.175171 
	C723.106934,625.032593 708.707092,644.392151 701.881348,670.071655 
	C700.204163,676.707458 698.526978,683.343201 696.746887,690.385986 
	C695.169312,683.515381 693.677612,677.018921 692.012451,669.799194 
	C684.436890,644.090393 670.499023,624.536194 645.184570,614.120667 
	C675.112305,602.056274 687.850037,575.791138 692.047974,558.108704 
z"/>
<path fill="#F4F6EF" opacity="1.000000" stroke="none" 
	d="
M644.864929,453.958008 
	C662.664001,454.892242 677.173279,461.670197 688.469238,474.929138 
	C690.281738,477.056641 691.809082,479.529297 693.006226,482.060913 
	C697.782104,492.160889 694.106018,500.978638 683.640137,504.957703 
	C662.820251,512.873352 632.766846,504.918579 618.388916,487.686493 
	C606.710632,473.689880 611.650146,459.027130 629.528137,455.271423 
	C634.361938,454.255951 639.429871,454.355011 644.864929,453.958008 
z"/>
<path fill="#F4F6EF" opacity="1.000000" stroke="none" 
	d="
M434.019989,461.947693 
	C448.292145,454.483093 462.893982,451.808289 478.308685,455.931824 
	C494.752808,460.330719 499.039276,474.246124 488.115448,487.292908 
	C473.284943,505.005615 446.310547,512.884033 424.078033,505.996460 
	C412.183716,502.311646 407.918274,492.165039 413.777710,481.264954 
	C418.347809,472.763367 425.554077,466.939880 434.019989,461.947693 
z"/>
<path fill="#1B0648" opacity="1.000000" stroke="none" 
	d="
M404.974915,669.944336 
	C410.018524,645.445862 425.459473,627.012207 451.532990,614.114319 
	C425.886139,603.996460 412.165619,584.036072 404.624023,558.468872 
	C431.759033,558.762573 454.436798,576.131226 460.012878,600.530457 
	C465.755646,625.658997 452.056152,652.272034 426.809113,663.721375 
	C420.113159,666.757935 412.571655,667.929871 404.974915,669.944336 
z"/>
<path fill="#1B0748" opacity="1.000000" stroke="none" 
	d="
M702.331055,670.099121 
	C708.707092,644.392151 723.106934,625.032593 748.833496,614.175171 
	C723.370178,604.089478 709.701172,584.276245 702.039307,559.014771 
	C727.514038,561.894653 746.056213,574.884460 754.704895,599.268677 
	C765.695374,630.255127 745.417908,662.728027 712.181702,668.977295 
	C709.085449,669.559387 705.916138,669.752747 702.331055,670.099121 
z"/>
<path fill="#1B0748" opacity="1.000000" stroke="none" 
	d="
M691.615112,558.115356 
	C687.850037,575.791138 675.112305,602.056274 645.184570,614.120667 
	C670.499023,624.536194 684.436890,644.090393 691.846619,669.439209 
	C666.595154,666.174561 647.989624,653.368225 639.360474,628.988892 
	C628.806152,599.170471 647.239929,567.753540 678.909790,560.040039 
	C682.918518,559.063660 687.087524,558.745239 691.615112,558.115356 
z"/>
<path fill="#1B0748" opacity="1.000000" stroke="none" 
	d="
M394.390503,558.837097 
	C388.963135,578.655212 379.000763,595.677734 361.225281,607.180481 
	C357.102264,609.848511 352.553589,611.858826 347.985870,614.286072 
	C373.386871,624.354858 387.082245,644.252136 394.715332,669.660645 
	C370.080872,669.400940 347.933350,652.393433 341.895538,629.450073 
	C335.724976,606.002441 346.469086,580.362549 368.871521,567.821350 
	C376.516510,563.541504 385.567780,561.773560 394.390503,558.837097 
z"/>
<path fill="#E4EFF0" opacity="1.000000" stroke="none" 
	d="
M453.287842,114.188049 
	C465.552826,110.736946 477.560120,109.480835 489.533875,113.097801 
	C493.725586,114.364021 497.948914,116.431915 501.381409,119.123764 
	C509.475769,125.471565 511.613617,134.842300 506.287872,143.563126 
	C502.728394,149.391724 498.132477,155.182632 492.661469,159.138931 
	C475.020111,171.896057 455.381653,177.618683 433.437164,172.977829 
	C421.640320,170.483032 412.876373,162.401947 412.560760,152.072998 
	C412.269562,142.544037 417.895264,135.527390 424.541992,129.455688 
	C432.677856,122.023697 442.508240,117.595932 453.287842,114.188049 
z"/>
<path fill="#190648" opacity="1.000000" stroke="none" 
	d="
M71.493134,581.962036 
	C62.546589,575.512695 62.409534,568.569214 70.923103,561.588745 
	C84.050171,558.210388 92.959938,549.830017 99.872063,539.023804 
	C106.981277,527.909424 110.214317,515.428345 111.971436,502.518341 
	C112.923775,495.521149 116.979118,491.132843 122.844963,491.143066 
	C128.873596,491.153564 133.151474,495.879028 133.992981,502.949524 
	C135.615326,516.580750 139.181427,529.620483 147.055603,541.094788 
	C153.601776,550.633789 161.798767,558.054810 173.368027,561.220520 
	C178.108627,562.517578 180.735779,566.065735 181.007080,571.160706 
	C181.280411,576.293884 179.050735,580.137451 174.307968,581.668274 
	C151.788345,588.937195 141.747559,606.493958 136.077286,627.629578 
	C134.885193,632.073059 134.499741,636.747498 133.925735,641.338440 
	C133.171051,647.374268 128.897614,651.729614 123.271927,651.949585 
	C117.561096,652.172913 113.494537,648.195251 111.958244,642.121460 
	C109.251076,631.418579 107.081894,620.402588 102.802612,610.317505 
	C96.963715,596.556824 86.828941,586.340759 71.493134,581.962036 
M143.046371,568.556763 
	C136.049500,560.278259 129.052643,551.999817 122.769035,544.565247 
	C115.683807,553.265442 107.916573,562.803040 100.700790,571.663574 
	C107.996170,580.605042 115.755562,590.115295 122.817711,598.770935 
	C130.008255,590.012695 137.723557,580.615295 145.675995,570.929016 
	C145.477966,570.747925 144.540176,569.890381 143.046371,568.556763 
z"/>
<path fill="#FB615F" opacity="1.000000" stroke="none" 
	d="
M509.360779,779.299683 
	C550.746887,762.446106 593.457397,754.477844 637.724365,754.495178 
	C641.280518,754.496582 643.011780,755.344971 643.629639,759.227722 
	C645.545715,771.269897 647.373230,783.290039 644.904114,795.434204 
	C640.784485,815.696045 626.490723,826.500732 608.387024,832.841614 
	C582.929810,841.757935 556.519592,844.356445 529.661987,842.470276 
	C511.195221,841.173401 493.436890,837.323242 477.584930,827.149170 
	C469.771515,822.134277 463.375061,815.814758 459.521210,806.801941 
	C475.195007,795.644165 491.649475,786.739319 509.360779,779.299683 
z"/>
<path fill="#E19B5B" opacity="1.000000" stroke="none" 
	d="
M143.324371,568.794800 
	C144.540176,569.890381 145.477966,570.747925 145.675995,570.929016 
	C137.723557,580.615295 130.008255,590.012695 122.817711,598.770935 
	C115.755562,590.115295 107.996170,580.605042 100.700790,571.663574 
	C107.916573,562.803040 115.683807,553.265442 122.769035,544.565247 
	C129.052643,551.999817 136.049500,560.278259 143.324371,568.794800 
z"/>
</svg>